<svg xmlns="http://www.w3.org/2000/svg" xmlns:xlink="http://www.w3.org/1999/xlink" viewBox="0 0 400 336.46"><defs><style>.cls-1,.cls-13,.cls-5{fill:none;}.cls-2{isolation:isolate;}.cls-3{fill:#a7a6a6;}.cls-17,.cls-4{fill:#575756;}.cls-13,.cls-5{stroke:#a7a6a6;stroke-miterlimit:10;}.cls-5{stroke-width:4px;}.cls-6{fill:#868686;}.cls-7{fill:#e3032e;}.cls-8{opacity:0.4;}.cls-17,.cls-8{mix-blend-mode:multiply;}.cls-9{clip-path:url(#clip-path);}.cls-10{clip-path:url(#clip-path-2);}.cls-11,.cls-22{fill:#fff;}.cls-12{fill:#1d1d1b;}.cls-13{stroke-width:0.75px;}.cls-14{clip-path:url(#clip-path-3);}.cls-15{opacity:0.1;}.cls-16{clip-path:url(#clip-path-4);}.cls-17{opacity:0.2;}.cls-18{fill:#cfcfcf;}.cls-19{fill:#4f4f4f;}.cls-20{fill:#06080d;}.cls-21{fill:#97d4eb;}.cls-22{font-size:21px;font-family:MyriadPro-Bold, Myriad Pro;font-weight:700;}.cls-23{fill:#1e1e1e;opacity:0.4;}</style><clipPath id="clip-path"><rect class="cls-1" x="159.59" y="299.53" width="33.49" height="36.62"/></clipPath><clipPath id="clip-path-2"><rect class="cls-1" x="245.85" y="299.53" width="33.49" height="36.62"/></clipPath><clipPath id="clip-path-3"><rect class="cls-1" x="245.55" y="191.03" width="54.49" height="54.65"/></clipPath><clipPath id="clip-path-4"><rect class="cls-1" x="170.28" y="125.09" width="31.16" height="35.03"/></clipPath></defs><title>Tekengebied 14</title><g class="cls-2"><g id="Laag_1" data-name="Laag 1"><path class="cls-3" d="M318.9,226.86l-7-17.57a3.58,3.58,0,0,0-5-2.16h0a4.61,4.61,0,0,0-1.89,5.73l7,17.58a3.57,3.57,0,0,0,5,2.15h0A4.61,4.61,0,0,0,318.9,226.86Z"/><path class="cls-3" d="M90.34,228.35l7.42-17.58a3.9,3.9,0,0,1,5.3-2.15h0a4.46,4.46,0,0,1,2,5.73l-7.41,17.57a3.91,3.91,0,0,1-5.31,2.16h0A4.46,4.46,0,0,1,90.34,228.35Z"/><path class="cls-4" d="M114.5,169.83c-13.62,0-24.67,12.08-24.67,27s11,27,24.67,27Z"/><path class="cls-3" d="M94.26,200.44a1.65,1.65,0,0,0,1.57-1.72c0-19.65,14.43-21.68,15-21.76a1.69,1.69,0,0,0,1.38-1.9,1.62,1.62,0,0,0-1.72-1.52c-.18,0-17.85,2.38-17.85,25.18a1.65,1.65,0,0,0,1.57,1.72"/><path class="cls-3" d="M94.26,205.29a1.42,1.42,0,1,0,1.41-1.55,1.48,1.48,0,0,0-1.41,1.55"/><path class="cls-4" d="M291.28,167.17c13.63,0,24.68,12.08,24.68,27s-11,27-24.68,27Z"/><path class="cls-3" d="M311.53,197.78a1.65,1.65,0,0,1-1.57-1.72c0-19.65-14.44-21.68-15-21.76a1.68,1.68,0,0,1-1.39-1.9,1.61,1.61,0,0,1,1.73-1.51c.18,0,17.85,2.37,17.85,25.17a1.65,1.65,0,0,1-1.57,1.72"/><path class="cls-3" d="M311.53,202.63a1.42,1.42,0,1,1-1.41-1.54,1.49,1.49,0,0,1,1.41,1.54"/><line class="cls-5" x1="245.55" y1="232.66" x2="245.55" y2="303.19"/><path class="cls-4" d="M254.63,270c0,5.48-4.07,9.93-9.08,9.93s-9.08-4.45-9.08-9.93,4.06-9.94,9.08-9.94,9.08,4.45,9.08,9.94"/><path class="cls-6" d="M253.13,267.58a5.35,5.35,0,1,1-5.33-5.83,5.59,5.59,0,0,1,5.33,5.83"/><line class="cls-5" x1="161.09" y1="232.66" x2="161.09" y2="303.19"/><path class="cls-7" d="M300,192.35C300,138,257.37,94,204.74,94s-95.3,44-95.3,98.37Z"/><path class="cls-4" d="M300,245.68H109.44V192.07H300Z"/><path class="cls-4" d="M193.08,336.15c0-20.23-15-36.62-33.49-36.62s-33.49,16.39-33.49,36.62Z"/><g class="cls-8"><g class="cls-9"><path class="cls-4" d="M193.08,336.15c0-20.23-15-36.62-33.49-36.62,0,0,17.51,5.42,14.55,36.62Z"/></g></g><path class="cls-4" d="M279.34,336.15c0-20.23-15-36.62-33.49-36.62s-33.49,16.39-33.49,36.62Z"/><g class="cls-8"><g class="cls-10"><path class="cls-4" d="M279.34,336.15c0-20.23-15-36.62-33.49-36.62,0,0,17.51,5.42,14.56,36.62Z"/></g></g><path class="cls-11" d="M247.66,156.82c0,26.14-19.38,47.33-43.28,47.33S161.09,183,161.09,156.82s19.38-47.34,43.29-47.34,43.28,21.2,43.28,47.34"/><path class="cls-12" d="M231,157.33c0,15.8-11.71,28.61-26.16,28.61s-26.16-12.81-26.16-28.61,11.71-28.61,26.16-28.61S231,141.53,231,157.33"/><path class="cls-11" d="M231.32,169.28c0,4-3,7.31-6.69,7.31s-6.69-3.27-6.69-7.31,3-7.32,6.69-7.32,6.69,3.28,6.69,7.32"/><line class="cls-13" x1="110.57" y1="236.83" x2="299.66" y2="236.83"/><line class="cls-13" x1="110.57" y1="231.49" x2="299.66" y2="231.49"/><line class="cls-13" x1="110.57" y1="226.16" x2="299.66" y2="226.16"/><g class="cls-8"><g class="cls-14"><polygon class="cls-4" points="245.55 192.07 245.55 245.68 300.04 245.68 300.04 191.03 245.55 192.07"/></g></g><path class="cls-4" d="M170.17,270c0,5.48-4.06,9.93-9.08,9.93S152,275.47,152,270s4.07-9.94,9.08-9.94,9.08,4.45,9.08,9.94"/><path class="cls-6" d="M168.68,267.58a5.35,5.35,0,1,1-5.33-5.83,5.6,5.6,0,0,1,5.33,5.83"/><g class="cls-15"><g class="cls-16"><path class="cls-11" d="M183.58,159.93c-8.51-1.42-14.39-10.33-13.13-19.89s9.19-16.18,17.7-14.76,14.39,10.33,13.13,19.89-9.19,16.17-17.7,14.76"/></g></g>

<rect class="cls-7" x="161.09" y="108.34" width="86.56" height="1.14">

  <animate xmlns="http://www.w3.org/2000/svg" dur="4s" attributeName="height" repeatCount="indefinite" values="1; 1; 1; 1; 75; 1; 0" keyTimes="0; 0.25; 0.5; 0.85; 0.9; 0.95; 1"/>

</rect>

<path class="cls-17" d="M245.55,192.07H300s2.06-43.88-33.63-74.72c0,0-24.93-23.37-61.67-23.37,0,0,36.42,27.93,40.81,48.22a50.92,50.92,0,0,1,0,29.24Z"/><polygon class="cls-3" points="171.54 253.38 174.97 245.85 96.78 232.83 93.35 240.36 171.54 253.38"/><path class="cls-18" d="M165.37,250.78c.19-.42-.24-.85-1-1l-53.81-9a1.58,1.58,0,0,0-1.65.54c-.19.41.24.85,1,1l53.81,8.95a1.58,1.58,0,0,0,1.65-.53"/><path class="cls-4" d="M91.5,241.33a9.44,9.44,0,0,1-4.64-12,8.34,8.34,0,0,1,11.48-4.21,9.44,9.44,0,0,1,4.63,12,8.35,8.35,0,0,1-11.47,4.21"/><polygon class="cls-3" points="242.77 251.9 239.56 244.37 312.86 231.35 316.08 238.88 242.77 251.9"/><path class="cls-18" d="M248.55,249.29c-.17-.41.23-.85.91-1l50.45-8.95a1.44,1.44,0,0,1,1.54.53c.18.42-.22.85-.9,1l-50.45,9a1.44,1.44,0,0,1-1.55-.54"/><path class="cls-4" d="M317.81,239.84a9.71,9.71,0,0,0,4.35-12,7.63,7.63,0,0,0-10.76-4.21,9.72,9.72,0,0,0-4.35,12,7.64,7.64,0,0,0,10.76,4.21"/><path class="cls-19" d="M187.46,292a6.67,6.67,0,0,1-6.71-6.62V197.91a6.66,6.66,0,0,1,6.71-6.61h37.48a6.67,6.67,0,0,1,6.72,6.61v87.42a6.68,6.68,0,0,1-6.72,6.62Z"/><path class="cls-20" d="M231.36,285.33a6.37,6.37,0,0,1-6.42,6.32H187.46a6.37,6.37,0,0,1-6.42-6.32V197.91a6.37,6.37,0,0,1,6.42-6.32h37.48a6.37,6.37,0,0,1,6.42,6.32Z"/><path class="cls-19" d="M225.69,192.33h-18l16.9.55c3,0,5.91,2.38,5.91,5.29v87c0,2.91-2.95,5.29-5.91,5.29l-16.9.43h18a5.64,5.64,0,0,0,5.67-5.59V197.91A5.63,5.63,0,0,0,225.69,192.33Z"/><rect class="cls-7" x="181.94" y="202.22" width="47.52" height="78.81"/><path class="cls-19" d="M202,197.83h-.86a.45.45,0,0,1,0-.89H202Zm6.61-.89H207v.89h1.66Zm1.26,0H209v.89h.93a.45.45,0,0,0,0-.89Zm-3.24,0h-2.25v.89h2.25Zm-2.57,0h-1.74v.89h1.74Z"/><circle class="cls-19" cx="191.3" cy="197.5" r="2.24"/><circle class="cls-20" cx="191.3" cy="197.5" r="1.58" transform="translate(-41.47 51.15) rotate(-13.75)"/><path class="cls-21" d="M192.6,197.5a1.3,1.3,0,1,0-1.3,1.3A1.3,1.3,0,0,0,192.6,197.5Z"/><text class="cls-22" transform="translate(181.78 244.98)">miep</text><path class="cls-23" d="M230.28,201.27v-3.44a6.32,6.32,0,0,0-6.32-6.32H187.07a6.32,6.32,0,0,0-6.32,6.32v53Z"/><path class="cls-3" d="M188.76,254.09l1.6,4.58s-13.62,3.28-21.14-5.76l-.54-7.59s2-5.38,12.07-6.74V244s-5.55,1.37-5.41,5.21S179.58,254.9,188.76,254.09Z"/><path class="cls-18" d="M186,257.07a.61.61,0,0,0,0-.14.7.7,0,0,0-.82-.56c-12.21,1.48-14.22-6.63-14.3-7a.78.78,0,0,0-1.5.34c0,.1,2.38,9.57,15.91,7.94a.78.78,0,0,0,.7-.6"/><path class="cls-3" d="M221.71,252.34l-1.78,4.58s15.23,3.29,23.63-5.76l.61-7.59s-2.27-5.38-13.49-6.74v5.44s6.2,1.37,6,5.21S232,253.15,221.71,252.34Z"/><path class="cls-18" d="M224.84,256.6a.61.61,0,0,1,0-.14.76.76,0,0,1,.91-.56c13.65,1.47,15.9-6.64,16-7a.82.82,0,0,1,1-.46c.46.09.76.45.67.8,0,.09-2.66,9.57-17.78,7.94a.87.87,0,0,1-.78-.6"/></g></g></svg>
