<svg xmlns="http://www.w3.org/2000/svg" viewBox="0 0 400 336" id="ByElYtd2hG"><style>@-webkit-keyframes HyEZgYYdhnf_B1LtK_32G_Animation{0%{-webkit-transform: translate(0px, 0px);transform: translate(0px, 0px);}50%{-webkit-transform: translate(0px, 15px);transform: translate(0px, 15px);}100%{-webkit-transform: translate(0px, 0px);transform: translate(0px, 0px);}}@keyframes HyEZgYYdhnf_B1LtK_32G_Animation{0%{-webkit-transform: translate(0px, 0px);transform: translate(0px, 0px);}50%{-webkit-transform: translate(0px, 15px);transform: translate(0px, 15px);}100%{-webkit-transform: translate(0px, 0px);transform: translate(0px, 0px);}}#ByElYtd2hG *{-webkit-animation-duration: 3s;animation-duration: 3s;-webkit-animation-iteration-count: infinite;animation-iteration-count: infinite;-webkit-animation-timing-function: cubic-bezier(0, 0, 1, 1);animation-timing-function: cubic-bezier(0, 0, 1, 1);}#HyrettOhnz{isolation: isolate;}#rkveYK_2nf{fill: #a7a6a6;}#BJueFKOh3z{fill: #575756;}#S1KxYYu2nf{fill: #a7a6a6;}#r1qeYKdn3M{fill: #575756;}#rkoeFtO3hz{fill: #868686;}#r1nxtY_2nM{fill: #a7a6a6;}#ryalKYO2nG{fill: #a7a6a6;}#B1AltY_3nz{fill: #a7a6a6;}#SJ1xxKt_3hM{fill: #cfcfcf;}#HyglxtY_33z{fill: #cfcfcf;}#r1ZeeKFOhnf{fill: #a7a6a6;-webkit-transform:  translate(-1.34px, 0.62px) rotate(-0.56deg);transform:  translate(-1.34px, 0.62px) rotate(-0.56deg);}#HJMletYd32G{fill: #a7a6a6;-webkit-transform:  translate(-103.62px, 105.36px) rotate(-45.56deg);transform:  translate(-103.62px, 105.36px) rotate(-45.56deg);}#BkmxgtKO22G{fill: #cfcfcf;}#SkNxlYYun3f{fill: #a7a6a6;}#HyBllFY_hnf{fill: #cfcfcf;}#ByLgxFY_n2z{fill: #575756;}#rkweeYY_2hf{fill: #a7a6a6;}#Sy_xgFt_23M{fill: #a7a6a6;}#H1YglKKd23z{fill: none;stroke: #a7a6a6;stroke-miterlimit: 10;stroke-width: 6.58px;}#By5eltFu23f{fill: #575756;}#rJigltFd23z{fill: #868686;}#H12xgtFun2z{fill: none;stroke: #a7a6a6;stroke-miterlimit: 10;stroke-width: 6.58px;}#r1aggttO2hf{fill: #e3032e;}#Sy0lxFtunhf{fill: #575756;}#S1kbltYun2z{fill: #575756;}#rJgZeKY_2nM{fill: #575756;opacity: 0.4;mix-blend-mode: multiply;}#SkZ-lKtOh3M{fill: #575756;}#SJf-xYtunhf{fill: #575756;opacity: 0.4;mix-blend-mode: multiply;}#HJQZeYK_3nG{fill: #fff;}#HyEZgYYdhnf{fill: #1d1d1b;}#SJSWeKK_hhz{fill: #fff;}#H1LWeKKO22z{fill: #fff;opacity: 0.1;}#S1DZxFtOn3M{fill: none;stroke: #a7a6a6;stroke-miterlimit: 10;stroke-width: 1.23px;}#SkO-xtFO32f{fill: none;stroke: #a7a6a6;stroke-miterlimit: 10;stroke-width: 1.23px;}#H1YZeKtun2M{fill: none;stroke: #a7a6a6;stroke-miterlimit: 10;stroke-width: 1.23px;}#Hk9ZeKFO3hz{fill: #575756;opacity: 0.4;mix-blend-mode: multiply;}#H1o-xKtO33G{fill: #575756;}#B1hWlYYO33M{fill: #868686;}#rkAbgtKOhhz{fill: #3c3c3b;}#S1lfltYun2z{fill: #3c3c3b;}#SkZfgtFd23f{fill: none;stroke: #3c3c3b;stroke-linecap: round;stroke-linejoin: round;stroke-width: 1.5px;}#r1GfltFOhnM{fill: #3c3c3b;}#HkmfetKdh3M{fill: #575756;}#ByVfxFFd23f{fill: #868686;}#ByBzgFY_2hM{fill: #e3032e;}#HkIMetKOh2M{fill: #575756;mix-blend-mode: multiply;opacity: 0.2;}#BJvMlKt_2nz{fill: #1d1d1b;}#HyEZgYYdhnf_B1LtK_32G{-webkit-animation-name: HyEZgYYdhnf_B1LtK_32G_Animation;animation-name: HyEZgYYdhnf_B1LtK_32G_Animation;-webkit-transform-origin: 50% 50%;transform-origin: 50% 50%;transform-box: fill-box;-webkit-transform: translate(0px, 0px);transform: translate(0px, 0px);}</style><defs/><title>Tekengebied 5</title><g id="HyrettOhnz"><g id="r18xKKO3nG" data-name="Laag 1"><rect x="338.22" y="200.9" width="8.36" height="50.11" id="rkveYK_2nf"/><path d="M287.31,174a26.25,26.25,0,0,1,0,52.5Z" id="BJueFKOh3z"/><rect x="313.56" y="196.03" width="28.83" height="8.36" id="S1KxYYu2nf"/><circle cx="341.86" cy="200.69" r="9.19" id="r1qeYKdn3M"/><circle cx="344.14" cy="198.47" r="5.39" id="rkoeFtO3hz"/><path d="M353.18,273.79,345.75,270a10.13,10.13,0,0,0-4.37-13.61,10.11,10.11,0,0,0-13.6,4.37l-7.43-3.83a18.46,18.46,0,0,1,32.83,16.89Z" id="r1nxtY_2nM"/><path d="M308.85,203.74a1.68,1.68,0,0,1-1.67-1.68c0-19.12-15.36-21.09-16-21.17a1.67,1.67,0,1,1,.36-3.32c.19,0,19,2.31,19,24.49A1.67,1.67,0,0,1,308.85,203.74Z" id="ryalKYO2nG"/><circle cx="307.35" cy="208.45" r="1.5" id="B1AltY_3nz"/><path d="M345,246.62a.83.83,0,0,1-.83-.83V211.3a.84.84,0,0,1,.83-.84.85.85,0,0,1,.84.84v34.49A.84.84,0,0,1,345,246.62Z" id="SJ1xxKt_3hM"/><path d="M353.27,270.15a.55.55,0,0,1-.18,0,.82.82,0,0,1-.63-1c3-13.13-7.08-16.91-7.51-17.06a.83.83,0,1,1,.56-1.57c.12,0,11.88,4.45,8.57,19A.82.82,0,0,1,353.27,270.15Z" id="HyglxtY_33z"/><rect x="58.87" y="112.83" width="8.36" height="50.11" id="r1ZeeKFOhnf"/><rect x="69.47" y="161.65" width="8.36" height="28.83" id="HJMletYd32G"/><path d="M65.4,117.19a.85.85,0,0,0-.83.85l.34,34.48a.84.84,0,0,0,1.67,0L66.25,118A.85.85,0,0,0,65.4,117.19Z" id="BkmxgtKO22G"/><path d="M77.69,114l-3.89-7.4A10.1,10.1,0,0,1,59.45,94.69a10,10,0,0,1,4.94-5.94l-3.89-7.4A18.46,18.46,0,0,0,77.69,114Z" id="SkNxlYYun3f"/><path d="M57.48,109.39l.16-.1a.83.83,0,0,0,.11-1.18c-8.54-10.4-1.24-18.29-.92-18.62a.85.85,0,0,0,0-1.18.84.84,0,0,0-1.18,0c-.09.09-8.63,9.3.84,20.83A.84.84,0,0,0,57.48,109.39Z" id="HyBllFY_hnf"/><path d="M99.22,176.54a26.25,26.25,0,0,0,0,52.5Z" id="ByLgxFY_n2z"/><path d="M77.68,206.32a1.68,1.68,0,0,0,1.68-1.67c0-19.12,15.36-21.1,16-21.17a1.67,1.67,0,0,0-.36-3.32c-.2,0-19,2.31-19,24.49A1.67,1.67,0,0,0,77.68,206.32Z" id="rkweeYY_2hf"/><circle cx="79.19" cy="211.04" r="1.5" id="Sy_xgFt_23M"/><line x1="238.65" y1="237.67" x2="238.65" y2="306.29" id="H1YglKKd23z"/><circle cx="238.65" cy="273.98" r="9.66" id="By5eltFu23f"/><circle cx="241.05" cy="271.65" r="5.67" id="rJigltFd23z"/><line x1="148.8" y1="237.67" x2="148.8" y2="306.29" id="H12xgtFun2z"/><path d="M296.62,198.36a101.39,101.39,0,0,0-202.78,0Z" id="r1aggttO2hf"/><rect x="93.84" y="198.18" width="202.78" height="52.15" id="Sy0lxFtunhf"/><path d="M182.82,338.36a35.63,35.63,0,0,0-71.26,0Z" id="S1kbltYun2z"/><path d="M182.82,338.36a35.63,35.63,0,0,0-35.63-35.63s18.64,5.27,15.49,35.63Z" id="rJgZeKY_2nM"/><path d="M274.6,338.36a35.63,35.63,0,0,0-71.26,0Z" id="SkZ-lKtOh3M"/><path d="M274.6,338.36A35.63,35.63,0,0,0,239,302.73s18.64,5.27,15.49,35.63Z" id="SJf-xYtunhf"/><circle cx="194.85" cy="163.88" r="46.05" id="HJQZeYK_3nG"/><g id="HyEZgYYdhnf_B1LtK_32G" data-animator-group="true" data-animator-type="0"><circle cx="195.37" cy="164.38" r="27.83" id="HyEZgYYdhnf"/></g><circle cx="216.39" cy="176.01" r="7.12" id="SJSWeKK_hhz"/><circle cx="175.54" cy="144.37" r="29.12" id="H1LWeKKO22z"/><line x1="95.04" y1="241.72" x2="296.22" y2="241.72" id="S1DZxFtOn3M"/><line x1="95.04" y1="236.53" x2="296.22" y2="236.53" id="SkO-xtFO32f"/><line x1="95.04" y1="231.34" x2="296.22" y2="231.34" id="H1YZeKtun2M"/><polygon points="238.65 198.18 238.65 250.34 296.62 250.34 296.62 198.37 238.65 198.18" id="Hk9ZeKFO3hz"/><circle cx="148.8" cy="273.98" r="9.66" id="H1o-xKtO33G"/><circle cx="151.19" cy="271.65" r="5.67" id="B1hWlYYO33M"/><path d="M100.42,161.94c-1.12-5.47,1.92-7.78,1.92-7.78l30.41.23v-8.68h-35a4.37,4.37,0,0,0-4.11,2.88c-3.75,10.2,1,20.17,3.54,24.38Z" id="r1ablKY_3nM"/><path d="M96,146.6h34.11l-1.1,2.09A276.38,276.38,0,0,1,96,146.6Z" id="rkAbgtKOhhz"/><path d="M293.33,173c2.51-4.21,7.29-14.18,3.54-24.38a4.37,4.37,0,0,0-4.11-2.88h-35v8.68l30.41-.23s3,2.31,1.92,7.78Z" id="S1kzgFt_n2M"/><path d="M294.5,146.6H260.39l1.1,2.09A276.38,276.38,0,0,0,294.5,146.6Z" id="S1lfltYun2z"/><path d="M251.27,137.47s14.89,29.39-3,58.36" id="SkZfgtFd23f"/><circle cx="248.8" cy="132.87" r="1.5" id="r1GfltFOhnM"/><circle cx="63.41" cy="166.69" r="9.19" id="HkmfetKdh3M"/><circle cx="63.34" cy="163.51" r="5.39" id="ByVfxFFd23f"/><rect x="147.57" y="114.8" width="94.55" height="2.7" id="ByBzgFY_2hM"/>

<rect xmlns="http://www.w3.org/2000/svg" x="147.57" y="114.8" width="94.55" height="1" id="ByBzgFY_2hM">

        <animate xmlns="http://www.w3.org/2000/svg" dur="7.5s" attributeName="height" repeatCount="indefinite" values="1; 1; 1; 1; 65; 1; 0" keyTimes="0; 0.25; 0.5; 0.85; 0.9; 0.95; 1"/>

</rect>


<path d="M238.72,198.18H296.6s2.2-45.16-35.72-76.91c0,0-26.48-24.06-65.51-24.06,0,0,38.69,28.75,43.35,49.64a50.81,50.81,0,0,1,0,30.09Z" id="HkIMetKOh2M"/><path d="M195.21,99a65.13,65.13,0,1,0,65.14,65.13A65.13,65.13,0,0,0,195.21,99Zm0,118.93c-30.26,0-54.8-24.09-54.8-53.8s24.54-53.79,54.8-53.79S250,134.46,250,164.17,225.48,218,195.21,218Z" id="BJvMlKt_2nz"/></g></g></svg>
