<svg xmlns="http://www.w3.org/2000/svg" xmlns:xlink="http://www.w3.org/1999/xlink" viewBox="0 0 400 340" id="rJ4U8F_n3M"><style>@-webkit-keyframes ByMG8Utu22G_rJcLFdnhz_Animation{0%{-webkit-transform: translate(0px, 0px);transform: translate(0px, 0px);}50%{-webkit-transform: translate(0px, 15px);transform: translate(0px, 15px);}100%{-webkit-transform: translate(0px, 0px);transform: translate(0px, 0px);}}@keyframes ByMG8Utu22G_rJcLFdnhz_Animation{0%{-webkit-transform: translate(0px, 0px);transform: translate(0px, 0px);}50%{-webkit-transform: translate(0px, 15px);transform: translate(0px, 15px);}100%{-webkit-transform: translate(0px, 0px);transform: translate(0px, 0px);}}#rJ4U8F_n3M *{-webkit-animation-duration: 3s;animation-duration: 3s;-webkit-animation-iteration-count: infinite;animation-iteration-count: infinite;-webkit-animation-timing-function: cubic-bezier(0, 0, 1, 1);animation-timing-function: cubic-bezier(0, 0, 1, 1);}#BkBIIFOnnG{isolation: isolate;}#Hkv8Ituh2G{fill: #a7a6a6;}#HJ_LIF_2nM{fill: #a7a6a6;}#HJFUIF_h2M{fill: #575756;}#B1cLIFd2hG{fill: #868686;}#ryi88Kd23M{fill: #cfcfcf;}#rJh8LYO3hf{fill: #a7a6a6;}#SkaLIYO3nz{fill: #cfcfcf;}#r1CULtOh3f{fill: #575756;}#SJ1lIUt_33z{fill: #a7a6a6;}#HJlxUUF_nnG{fill: #a7a6a6;}#rkbe8UFdhnf{fill: #a7a6a6;}#HJMe8LKu3hz{fill: #575756;}#HyXeLLKd3nG{fill: #a7a6a6;}#H14l88YO3hM{fill: #575756;}#HJHlI8FdhnM{fill: #868686;}#rk8xILKdhhz{fill: #a7a6a6;}#Skvl88Fuhnf{fill: #a7a6a6;}#S1dgIUKunhf{fill: #a7a6a6;}#rkKxIIK_33f{fill: #cfcfcf;}#B15eUUYd23f{fill: #cfcfcf;}#B1ie88Yd23G{fill: none;stroke: #a7a6a6;stroke-miterlimit: 10;stroke-width: 4px;}#BkheILFunhG{fill: #575756;}#Sy6eIUtdn3f{fill: #868686;}#SyRxU8Y_nnf{fill: none;stroke: #a7a6a6;stroke-miterlimit: 10;stroke-width: 4px;}#HJkZL8td3nf{fill: #e3032e;}#B1g-L8YdhhM{fill: #575756;}#ByWWLLKO23z{fill: #575756;}#SJzWU8KOh3f{opacity: 0.4;mix-blend-mode: multiply;}#HJ7WLItd2nG{-webkit-clip-path: url(#clip-path);clip-path: url(#clip-path);}#rkEZL8Yu32z{fill: #575756;}#BJSb8LtO23f{fill: #575756;}#HJUZ8IYu3hM{opacity: 0.4;mix-blend-mode: multiply;}#HJDZ8UYOn3z{-webkit-clip-path: url(#clip-path-2);clip-path: url(#clip-path-2);}#SJOb8IK_32z{fill: #575756;}#BJKb8LKun2z{fill: none;stroke: #a7a6a6;stroke-miterlimit: 10;stroke-width: 0.75px;}#By5ZU8F_32M{fill: none;stroke: #a7a6a6;stroke-miterlimit: 10;stroke-width: 0.75px;}#SJsWLLFO3hf{fill: none;stroke: #a7a6a6;stroke-miterlimit: 10;stroke-width: 0.75px;}#rk3ZUIKO32G{fill: none;stroke: #a7a6a6;stroke-miterlimit: 10;stroke-width: 0.75px;}#SJabL8Yd32M{fill: none;stroke: #a7a6a6;stroke-miterlimit: 10;stroke-width: 0.75px;}#B1CWIIYdh3G{fill: #575756;}#SkkfLItu3nz{fill: #868686;}#rylfUIFO3hz{fill: #e3032e;}#BJbGLLF_hnM{fill: #fff;}#ByMG8Utu22G{fill: #1d1d1b;}#r1XM8IKd2hG{fill: #fff;}#H1VG8LYunnM{opacity: 0.1;}#H1BG8UYuh2z{-webkit-clip-path: url(#clip-path-3);clip-path: url(#clip-path-3);}#S1UfU8Yu3nf{fill: #fff;}#S1PzIIY_h3M{fill: #e3032e;}#B1_f88tdnhz{fill: #575756;mix-blend-mode: multiply;opacity: 0.4;}#ByKzI8tun3G{fill: #575756;mix-blend-mode: multiply;opacity: 0.2;}#ByMG8Utu22G_rJcLFdnhz{-webkit-animation-name: ByMG8Utu22G_rJcLFdnhz_Animation;animation-name: ByMG8Utu22G_rJcLFdnhz_Animation;-webkit-transform-origin: 50% 50%;transform-origin: 50% 50%;transform-box: fill-box;-webkit-transform: translate(0px, 0px);transform: translate(0px, 0px);}</style><defs><clipPath id="clip-path"><rect class="cls-1" x="164.85" y="321.45" width="27.75" height="18.55"/></clipPath><clipPath id="clip-path-2"><rect class="cls-1" x="236.33" y="321.45" width="27.75" height="18.55"/></clipPath><clipPath id="clip-path-3"><rect class="cls-1" x="172.38" y="158.41" width="34.04" height="38.26"/></clipPath></defs><title>Tekengebied 4</title><g id="BkBIIFOnnG"><g id="SJIIIFOhhG" data-name="Laag 1"><polygon points="97.36 142.1 90.89 142.92 95.24 186.51 101.71 185.7 97.36 142.1" id="Hkv8Ituh2G"/><polygon points="97.27 191.69 113.3 209.37 117.86 204.14 101.83 186.47 97.27 191.69" id="HJ_LIF_2nM"/><path d="M94.48,184.08a8.76,8.76,0,0,0,.09,11.37,6.62,6.62,0,0,0,10.13-.11,8.76,8.76,0,0,0-.1-11.37,6.61,6.61,0,0,0-10.12.11" id="HJFUIF_h2M"/><path d="M96.53,183.62a5.15,5.15,0,0,0,.06,6.68,3.89,3.89,0,0,0,5.94-.07,5.15,5.15,0,0,0-.06-6.68,3.89,3.89,0,0,0-5.94.07" id="B1cLIFd2hG"/><path d="M96.48,146.08a.71.71,0,0,0-.57.8l3,30a.68.68,0,0,0,.72.64.71.71,0,0,0,.58-.81l-3-30a.67.67,0,0,0-.72-.64" id="ryi88Kd23M"/><path d="M113.11,140.36,107.33,137c-2,4.33-6.76,6-10.61,3.79a8.57,8.57,0,0,1-3.88-5.17,9.75,9.75,0,0,1,.51-6.75l-5.78-3.36a17.79,17.79,0,0,0-.93,12.32,15.68,15.68,0,0,0,7.09,9.46,12.87,12.87,0,0,0,11,1.05,14.9,14.9,0,0,0,8.42-8" id="rJh8LYO3hf"/><path d="M110.84,142.26l-.1-.12a.61.61,0,0,0-.92.06c-7,8.79-13.92,3.53-14.22,3.3a.6.6,0,0,0-.9.18.79.79,0,0,0,.16,1c.08.07,8.19,6.22,15.93-3.52a.81.81,0,0,0,0-.92" id="SkaLIYO3nz"/><path d="M127.48,198.34c-11.29,0-20.44,10.29-20.44,23s9.15,23,20.44,23Z" id="r1CULtOh3f"/><path d="M110.71,224.41A1.39,1.39,0,0,0,112,223c0-16.75,12-18.47,12.47-18.54a1.44,1.44,0,0,0,1.15-1.62,1.36,1.36,0,0,0-1.43-1.29c-.15,0-14.8,2-14.8,21.45a1.39,1.39,0,0,0,1.31,1.46" id="SJ1lIUt_33z"/><path d="M110.7,228.54a1.18,1.18,0,1,0,1.17-1.32,1.25,1.25,0,0,0-1.17,1.32" id="HJlxUUF_nnG"/><polygon points="320.86 174.4 314.25 174.28 313.6 218.14 320.21 218.26 320.86 174.4" id="rkbe8UFdhnf"/><path d="M274,196.07c11.29,0,20.45,10.29,20.45,23s-9.16,23-20.45,23Z" id="HJMe8LKu3hz"/><rect x="294.43" y="215.4" width="22.46" height="7.32" id="HyXeLLKd3nG"/><path d="M323.62,219.47c0,4.45-3.2,8.05-7.15,8.05s-7.16-3.6-7.16-8.05,3.2-8,7.16-8,7.15,3.6,7.15,8" id="H14l88YO3hM"/><path d="M322.44,217.53a4.23,4.23,0,1,1-4.2-4.72,4.48,4.48,0,0,1,4.2,4.72" id="HJHlI8FdhnM"/><path d="M326.38,154.56l-5.93,3.23c1.95,4.37.32,9.69-3.63,11.84a7.25,7.25,0,0,1-6.1.44,8.21,8.21,0,0,1-4.6-4.46l-5.93,3.24A15.06,15.06,0,0,0,308.6,177a13.26,13.26,0,0,0,11.15-.8,15.66,15.66,0,0,0,7.37-9.3,17.61,17.61,0,0,0-.74-12.34" id="rk8xILKdhhz"/><path d="M290.76,222.14a1.38,1.38,0,0,1-1.3-1.46c0-16.74-12-18.47-12.47-18.53a1.43,1.43,0,0,1-1.15-1.62,1.36,1.36,0,0,1,1.43-1.29c.15,0,14.79,2,14.79,21.44a1.38,1.38,0,0,1-1.3,1.46" id="Skvl88Fuhnf"/><path d="M290.76,226.27a1.18,1.18,0,1,1-1.17-1.31,1.25,1.25,0,0,1,1.17,1.31" id="S1dgIUKunhf"/><path d="M319.52,178.21a.7.7,0,0,0-.67.72l-.45,30.19a.71.71,0,0,0,.65.74.69.69,0,0,0,.67-.72l.45-30.19a.7.7,0,0,0-.65-.74" id="rkKxIIK_33f"/><path d="M326.41,157.74h-.15a.73.73,0,0,0-.51.87c2.19,11.54-5.82,14.69-6.16,14.82a.75.75,0,0,0-.41.93.64.64,0,0,0,.83.46c.1,0,9.46-3.72,7-16.51a.67.67,0,0,0-.63-.58" id="B15eUUYd23f"/><line x1="236.08" y1="251.85" x2="236.08" y2="322.57" id="B1ie88Yd23G"/><path d="M243.61,283.64c0,4.67-3.37,8.46-7.53,8.46s-7.52-3.79-7.52-8.46,3.37-8.46,7.52-8.46,7.53,3.79,7.53,8.46" id="BkheILFunhG"/><path d="M242.37,281.6a4.45,4.45,0,1,1-4.42-5,4.71,4.71,0,0,1,4.42,5" id="Sy6eIUtdn3f"/><line x1="166.09" y1="251.85" x2="166.09" y2="322.57" id="SyRxU8Y_nnf"/><path d="M281.23,217.44c0-49-35.35-88.76-79-88.76s-79,39.74-79,88.76Z" id="HJkZL8td3nf"/><rect x="123.29" y="209.9" width="157.94" height="53.04" id="B1g-L8YdhhM"/><path d="M192.6,340c0-10.24-12.43-18.54-27.75-18.54s-27.76,8.3-27.76,18.54Z" id="ByWWLLKO23z"/><g id="SJzWU8KOh3f"><g id="HJ7WLItd2nG"><path d="M192.6,340c0-10.24-12.43-18.54-27.75-18.54,0,0,14.51,2.74,12.06,18.54Z" id="rkEZL8Yu32z"/></g></g><path d="M264.08,340c0-10.24-12.42-18.54-27.75-18.54s-27.75,8.3-27.75,18.54Z" id="BJSb8LtO23f"/><g id="HJUZ8IYu3hM"><g id="HJDZ8UYOn3z"><path d="M264.08,340c0-10.24-12.42-18.54-27.75-18.54,0,0,14.51,2.74,12.07,18.54Z" id="SJOb8IK_32z"/></g></g><line x1="124.22" y1="255.4" x2="280.92" y2="255.4" id="BJKb8LKun2z"/><line x1="124.22" y1="250.86" x2="280.92" y2="250.86" id="By5ZU8F_32M"/><line x1="124.22" y1="246.31" x2="280.92" y2="246.31" id="SJsWLLFO3hf"/><line x1="124.22" y1="237.99" x2="280.92" y2="237.99" id="rk3ZUIKO32G"/><line x1="124.22" y1="242.15" x2="280.92" y2="242.15" id="SJabL8Yd32M"/><path d="M173.62,283.64c0,4.67-3.37,8.46-7.53,8.46s-7.52-3.79-7.52-8.46,3.37-8.46,7.52-8.46,7.53,3.79,7.53,8.46" id="B1CWIIYdh3G"/><path d="M172.38,281.6a4.45,4.45,0,1,1-4.42-5,4.71,4.71,0,0,1,4.42,5" id="SkkfLItu3nz"/><rect x="164.18" y="146.68" width="76.16" height="63.05" id="rylfUIFO3hz"/><path d="M237.83,187.25c0,22.27-16.06,40.32-35.87,40.32s-35.87-18-35.87-40.32,16.06-40.31,35.87-40.31,35.87,18.05,35.87,40.31" id="BJbGLLF_hnM"/><g id="ByMG8Utu22G_rJcLFdnhz" data-animator-group="true" data-animator-type="0"><path d="M219.11,190.84c0,10.1-7.29,18.28-16.27,18.28s-16.27-8.18-16.27-18.28,7.28-18.28,16.27-18.28,16.27,8.18,16.27,18.28" id="ByMG8Utu22G"/></g><path d="M219.28,198.48a4.19,4.19,0,1,1-4.16-4.68,4.44,4.44,0,0,1,4.16,4.68" id="r1XM8IKd2hG"/><g id="H1VG8LYunnM"><g id="H1BG8UYuh2z"><path d="M186.9,196.46c-9.29-1.55-15.71-11.28-14.33-21.73s10-17.66,19.32-16.11,15.72,11.27,14.34,21.72-10,17.67-19.33,16.12" id="S1UfU8Yu3nf"/></g></g><rect x="166.09" y="144" width="71.74" height="2.94" id="S1PzIIY_h3M"/><polygon points="236.08 209.73 236.08 262.94 280.92 262.94 280.92 209.92 236.08 209.73" id="B1_f88tdnhz"/>

<rect xmlns="http://www.w3.org/2000/svg" x="166.09" y="144" width="71.74" height="1" id="S1PzIIY_h3M">

    <animate xmlns="http://www.w3.org/2000/svg" dur="5.5s" attributeName="height" repeatCount="indefinite" values="1; 1; 1; 1; 65; 1; 0" keyTimes="0; 0.25; 0.5; 0.85; 0.9; 0.95; 1"/>

</rect>


<path d="M236.27,218.23h44.64s1.69-40.06-27.55-68.21c0,0-20.43-21.34-50.52-21.34,0,0,29.84,25.5,33.43,44a51.52,51.52,0,0,1,0,26.69Z" id="ByKzI8tun3G"/></g></g></svg>
