<svg xmlns="http://www.w3.org/2000/svg" xmlns:xlink="http://www.w3.org/1999/xlink" viewBox="0 0 400 340" id="SySE_On3f"><style>@-webkit-keyframes S1nlrEd_n3f_SyQFdOnhz_Animation{0%{-webkit-transform: translate(0px, 0px);transform: translate(0px, 0px);}50%{-webkit-transform: translate(0px, 15px);transform: translate(0px, 15px);}100%{-webkit-transform: translate(0px, 0px);transform: translate(0px, 0px);}}@keyframes S1nlrEd_n3f_SyQFdOnhz_Animation{0%{-webkit-transform: translate(0px, 0px);transform: translate(0px, 0px);}50%{-webkit-transform: translate(0px, 15px);transform: translate(0px, 15px);}100%{-webkit-transform: translate(0px, 0px);transform: translate(0px, 0px);}}#SySE_On3f *{-webkit-animation-duration: 3s;animation-duration: 3s;-webkit-animation-iteration-count: infinite;animation-iteration-count: infinite;-webkit-animation-timing-function: cubic-bezier(0, 0, 1, 1);animation-timing-function: cubic-bezier(0, 0, 1, 1);}#HJeSNu_nnf{isolation: isolate;}#HyfSE_d3nz{fill: none;stroke: #a7a6a6;stroke-miterlimit: 10;stroke-width: 5.81px;}#HkmBNOO3nf{fill: #575756;}#HyVHEuu2hG{fill: #575756;opacity: 0.4;mix-blend-mode: multiply;}#H1HrV_uh3M{fill: #1d1d1b;}#rkLH4O_22G{fill: #a7a6a6;}#ByDr4Odn3M{fill: #a7a6a6;-webkit-transform:  translate(-172.47px, 187.56px) rotate(-53.08deg);transform:  translate(-172.47px, 187.56px) rotate(-53.08deg);}#B1OS4O_22f{fill: #a7a6a6;-webkit-transform:  translate(-157.39px, 169.35px) rotate(-53.08deg);transform:  translate(-157.39px, 169.35px) rotate(-53.08deg);}#BkYH4d_hnz{fill: #575756;}#rJcrVu_hnz{fill: #868686;}#HJoSVOu32M{fill: #cfcfcf;}#Hk2rNOO33G{fill: #a7a6a6;}#rypS4ud22z{fill: #cfcfcf;}#r1AH4uO32G{fill: #575756;}#SkylSNd_3hM{fill: #a7a6a6;}#r1xgS4_d3hf{fill: #a7a6a6;}#BkWgBVOd3nf{fill: #575756;}#BJzeH4du3hz{fill: #a7a6a6;}#Bk7eHEd_hhM{fill: #a7a6a6;}#SJNlrE_dn2f{fill: #575756;}#H1BxrV_Ohnf{fill: #868686;}#ryLgrNu_h2M{fill: none;stroke: #a7a6a6;stroke-miterlimit: 10;stroke-width: 5.81px;}#HJvxS4__hhz{fill: #e3032e;}#BkuxrE_u32f{fill: #575756;}#S1KgrNOOhnG{fill: #575756;}#rkcxr4uuhnz{fill: #575756;opacity: 0.4;mix-blend-mode: multiply;}#BJierEOuh3z{fill: #fff;}#S1nlrEd_n3f{fill: #1d1d1b;}#r1alrEuunnM{fill: #fff;}#HkAlBEOd22z{fill: none;stroke: #a7a6a6;stroke-miterlimit: 10;stroke-width: 1.09px;}#ry1WSEdOnhM{fill: none;stroke: #a7a6a6;stroke-miterlimit: 10;stroke-width: 1.09px;}#S1lWr4_unhf{fill: none;stroke: #a7a6a6;stroke-miterlimit: 10;stroke-width: 1.09px;}#SJWZSNOd22z{fill: #575756;opacity: 0.4;mix-blend-mode: multiply;}#SyzbSVu_h3G{fill: #575756;}#HymWBEu_nnG{fill: #868686;}#Bk4-BEuOnnz{fill: #575756;}#ryH-BE__h2f{fill: #868686;}#BkUbBEu_n2G{fill: #a7a6a6;}#HyPWSNOuhnf{fill: #cfcfcf;}#SJuZH4uO3hz{fill: #1d1d1b;}#rJFbrVdu22z{fill: #3c3c3b;}#rk5brV_O33z{fill: #787c7f;-webkit-transform:  translate(-65.35px, 87.05px) rotate(-19.97deg);transform:  translate(-65.35px, 87.05px) rotate(-19.97deg);}#rkibBE_d23z{fill: #6a7076;}#rJnZSEdun2G{fill: #6a7076;}#HkaWH4dOn3G{fill: #6a7076;}#H1CbrEOd23f{fill: #6a7076;}#B1JGHN_u2hz{fill: #6a7076;}#rJgzHNOd33f{fill: #6a7076;}#H1-MBNOOhhf{fill: #6a7076;}#SkzMBNOd22M{fill: #6a7076;}#rkmfBVuu33f{fill: #6a7076;}#rJNzSNud32G{fill: #6a7076;}#ByBfr4dOhnz{fill: #6a7076;}#rJ8fr4dun3M{fill: #6a7076;}#SkvMB4d_3hG{fill: #6a7076;}#SyufBV_d3hM{fill: #6a7076;}#HktfH4dO2hz{fill: #6a7076;}#Hy9fBN_uh2z{fill: #6a7076;}#HkjMBEddhhz{fill: #6a7076;}#BJ2MrVd_h3M{fill: #6a7076;}#SkpfB4Ou33M{fill: #6a7076;}#r1AGrNu_nnM{fill: #6a7076;}#HkJQH4_d3nz{fill: #6a7076;}#S1g7BV_d33f{fill: #6a7076;}#HkZXSNduhnf{fill: #6a7076;}#BkGXB4_O23G{fill: #6a7076;}#SymmS4_d32z{fill: #6a7076;}#SkE7HN_Oh2z{fill: #6a7076;}#H1HQSEd_h3G{fill: #6a7076;}#S1UXSN_O23M{fill: #6a7076;}#H1PQHN_u32z{fill: #6a7076;}#S1dmSNOd33z{fill: #6a7076;}#S1YQHEd_32z{fill: #6a7076;}#Hyc7BEd_h2G{fill: #6a7076;}#rJi7rN_dhhM{fill: #6a7076;}#B1nmHE_d32M{fill: #6a7076;}#r1aQHVudnhG{fill: #6a7076;}#Hk07BVd_32z{fill: #6a7076;}#Sy1VSVdOnhM{fill: #6a7076;}#S1gNSN_O3hM{fill: #6a7076;}#rkZNBNu_n2z{fill: #6a7076;}#B1fErE__h3f{fill: #1d1d1b;}#rkQNr4dun2M{fill: #787c7f;}#Sk4EB4_Ohnf{fill: #e20613;}#SJBEHEOd3hG{fill: #fff;}#HkLEB4Ou33G{fill: #fff;}#SJPNHEud2hz{fill: #787c7f;}#Hk_EBN_u23M{fill: #8e959d;}#rkKES4_u22f{fill: #9c9b9b;opacity: 0.16;}#H1qVSNd_3hf{fill: #949a9f;}#H1iVBVOO2nf{fill: #a7a6a6;}#H13VrVuO3hM{fill: #7c7b7b;}#HkaVrEdd32z{opacity: 0.1;}#ByC4SNO_32M{-webkit-clip-path: url(#clip-path);clip-path: url(#clip-path);}#rk1SBEO_3nM{fill: #fff;}#H1xBB4u_n3M{fill: #e3032e;}#rybBSE_dh3z{fill: #575756;mix-blend-mode: multiply;opacity: 0.2;}#H1xBB4u_n3M_SJLruO3nM{-webkit-transform-origin: 50% 50%;transform-origin: 50% 50%;transform-box: fill-box;-webkit-transform: scale(1, 1);transform: scale(1, 1);}#S1nlrEd_n3f_SyQFdOnhz{-webkit-animation-name: S1nlrEd_n3f_SyQFdOnhz_Animation;animation-name: S1nlrEd_n3f_SyQFdOnhz_Animation;-webkit-transform-origin: 50% 50%;transform-origin: 50% 50%;transform-box: fill-box;-webkit-transform: translate(0px, 0px);transform: translate(0px, 0px);}</style><defs><clipPath id="clip-path"><rect class="cls-1" x="168.48" y="150.14" width="34.04" height="38.26"/></clipPath></defs><title>Tekengebied 1</title><g id="HJeSNu_nnf"><g id="SyZH4_O2hz" data-name="Laag 1"><line x1="238.76" y1="250.08" x2="238.76" y2="311.6" id="HyfSE_d3nz"/><path d="M271,340.36a31.95,31.95,0,1,0-63.89,0Z" id="HkmBNOO3nf"/><path d="M271,340.36a31.94,31.94,0,0,0-31.94-31.95s16.7,4.73,13.88,31.95Z" id="HyVHEuu2hG"/><path d="M245.16,316.73c-.17,9.6,11,13.3,19,13.65,8.66.37,16.22-5.41,21.8-11.4a45.11,45.11,0,0,1,11.69-8.47c7.93-4.16,16.85-3.15,25.29-1.34,15.12,3.25,30.61,13.1,31.14,30.13,0,1.17,1.85,1.17,1.81,0-.35-11.57-7.75-21.2-17.7-26.62-10.34-5.63-26.39-9.59-37.77-5.38-4.75,1.76-9.34,4.92-13.29,8.06-2.22,1.77-3.82,4.14-5.92,6-4.39,4-11.09,7.47-17.05,7.17-6.85-.34-17.35-3.42-17.21-11.83a.91.91,0,0,0-1.81,0Z" id="H1HrV_uh3M"/><polygon points="302.6 251.7 278.04 217.07 285.12 212.43 309.67 247.06 302.6 251.7" id="rkLH4O_22G"/><rect x="97.78" y="243.96" width="7.49" height="44.93" id="ByDr4Odn3M"/><rect x="77.91" y="238.48" width="25.85" height="7.49" id="B1OS4O_22f"/><circle cx="83.71" cy="252.43" r="8.24" id="BkYH4d_hnz"/><circle cx="80.89" cy="252.87" r="4.84" id="rJcrVu_hnz"/><path d="M115,279.39a.75.75,0,0,0-.15-1.05L90.1,259.77a.75.75,0,1,0-.9,1.2l24.72,18.57A.75.75,0,0,0,115,279.39Z" id="HJoSVOu32M"/><path d="M122,301.26l1.7-7.3a9.06,9.06,0,1,1,4.11-17.64l1.7-7.3A16.55,16.55,0,0,0,122,301.26Z" id="Hk2rNOO33G"/><path d="M119.44,299.21a.38.38,0,0,0,.09-.13.76.76,0,0,0-.31-1c-10.71-5.58-7.45-14.65-7.31-15a.75.75,0,0,0-1.4-.53c0,.11-3.85,10.71,8,16.89A.75.75,0,0,0,119.44,299.21Z" id="rypS4ud22z"/><path d="M113.74,195.27a23.54,23.54,0,0,0,0,47.08Z" id="r1AH4uO32G"/><path d="M94.43,222a1.5,1.5,0,0,0,1.5-1.5c0-17.14,13.77-18.91,14.36-19a1.49,1.49,0,0,0,1.32-1.65,1.52,1.52,0,0,0-1.65-1.33c-.17,0-17,2.08-17,22A1.5,1.5,0,0,0,94.43,222Z" id="SkylSNd_3hM"/><circle cx="95.78" cy="226.2" r="1.35" id="r1xgS4_d3hf"/><path d="M282.39,193a23.54,23.54,0,1,1,0,47.08Z" id="BkWgBVOd3nf"/><path d="M301.7,219.65a1.5,1.5,0,0,1-1.5-1.5c0-17.14-13.77-18.91-14.36-19a1.49,1.49,0,0,1-1.32-1.65,1.52,1.52,0,0,1,1.65-1.33c.17,0,17,2.08,17,22A1.5,1.5,0,0,1,301.7,219.65Z" id="BJzeH4du3hz"/><circle cx="300.35" cy="223.88" r="1.35" id="Bk7eHEd_hhM"/><circle cx="238.76" cy="282.64" r="8.66" id="SJNlrE_dn2f"/><circle cx="240.91" cy="280.54" r="5.09" id="H1BxrV_Ohnf"/><line x1="158.19" y1="250.08" x2="158.19" y2="311.6" id="ryLgrNu_h2M"/><path d="M290.74,214.84a90.91,90.91,0,1,0-181.82,0Z" id="HJvxS4__hhz"/><rect x="108.92" y="214.67" width="181.82" height="46.76" id="BkuxrE_u32f"/><path d="M188.7,340.36a31.95,31.95,0,1,0-63.89,0Z" id="S1KgrNOOhnG"/><path d="M188.7,340.36a31.94,31.94,0,0,0-31.95-31.95s16.71,4.73,13.89,31.95Z" id="rkcxr4uuhnz"/><circle cx="199.48" cy="183.92" r="41.29" id="BJierEOuh3z"/><g id="S1nlrEd_n3f_SyQFdOnhz" data-animator-group="true" data-animator-type="0"><circle cx="199.95" cy="184.37" r="24.96" id="S1nlrEd_n3f"/></g><circle cx="218.8" cy="194.79" r="6.38" id="r1alrEuunnM"/><line x1="109.99" y1="253.71" x2="290.38" y2="253.71" id="HkAlBEOd22z"/><line x1="109.99" y1="249.06" x2="290.38" y2="249.06" id="ry1WSEdOnhM"/><line x1="109.99" y1="244.41" x2="290.38" y2="244.41" id="S1lWr4_unhf"/><polygon points="238.76 214.68 238.76 261.44 290.74 261.44 290.74 213.76 238.76 214.68" id="SJWZSNOd22z"/><circle cx="158.19" cy="282.64" r="8.66" id="SyzbSVu_h3G"/><circle cx="160.34" cy="280.54" r="5.09" id="HymWBEu_nnG"/><ellipse cx="305.86" cy="250.62" rx="9.01" ry="8.7" id="Bk4-BEuOnnz"/><ellipse cx="310.21" cy="249.94" rx="3.79" ry="3.66" id="ryH-BE__h2f"/><path d="M302.07,257.45,250,278.61,247,271.72l52.09-21.15a3.17,3.17,0,0,1,2.67,0,4.67,4.67,0,0,1,2.2,5.14C303.78,256.72,302.07,257.45,302.07,257.45Z" id="BkUbBEu_n2G"/><path d="M258.52,273.7c-.16-.38.17-.87.74-1.09L299.75,256c.57-.22,1.17-.09,1.33.29s-.17.87-.74,1.09L259.85,274C259.28,274.21,258.68,274.08,258.52,273.7Z" id="HyPWSNOuhnf"/><path d="M221.35,243.16l-2.59,1-3.88,1.41a4.63,4.63,0,0,0-2.43,6.29l26.87,62.42a4.6,4.6,0,0,0,5.7,2.7h0l2.94-1.07h0a4.6,4.6,0,0,0,2.64-5.73L231.14,245a4.65,4.65,0,0,0-5.9-3.27Z" id="SJuZH4uO3hz"/><path d="M220.23,243.07l-1,.37-1.55.57c-1,.34-.93,2.81.08,5.38l24.64,63.23c.92,2.35,2.32,3.93,3.2,3.61h0l1.17-.43h0c.88-.32.94-2.43.13-4.82l-21.68-64.3c-.88-2.61-2.44-4.53-3.4-4.18Z" id="rJFbrVdu22z"/><ellipse cx="214.59" cy="229.15" rx="17.5" ry="18.85" id="rk5brV_O33z"/><path d="M199.7,218.35c-.17.28-.34.57-.5.86l0,0A.78.78,0,0,0,199.7,218.35Z" id="rkibBE_d23z"/><path d="M201.58,218.34l3.79-1.37a.88.88,0,0,0,.4-1.15L205,213.6a1.13,1.13,0,0,0-.27-.42,16.73,16.73,0,0,0-4.29,4.14l.14.4A.86.86,0,0,0,201.58,218.34Z" id="rJnZSEdun2G"/><path d="M205.86,213.27l.81,2.22a.87.87,0,0,0,1,.63l3.78-1.38a.87.87,0,0,0,.4-1.15l-.8-2.22a1.06,1.06,0,0,0-.55-.6,16.08,16.08,0,0,0-2.39.67,15.9,15.9,0,0,0-2.26,1A1,1,0,0,0,205.86,213.27Z" id="HkaWH4dOn3G"/><path d="M212.79,213.27a.87.87,0,0,0,1.05.62l3.78-1.37a.88.88,0,0,0,.4-1.15l-.15-.4a16.48,16.48,0,0,0-5.94-.41,1.07,1.07,0,0,0,.06.49Z" id="H1CbrEOd23f"/><path d="M220,211.67l0,0-.95-.34A.81.81,0,0,0,220,211.67Z" id="B1JGHN_u2hz"/><path d="M201.21,224.6a.88.88,0,0,0,.39-1.15l-.8-2.22a.88.88,0,0,0-1.05-.63l-1.46.54a18.79,18.79,0,0,0-1.24,4.85.59.59,0,0,0,.37,0Z" id="rJgzHNOd33f"/><path d="M205.88,218.38l-3.78,1.37a.87.87,0,0,0-.4,1.15l.8,2.22a.88.88,0,0,0,1.05.63l3.78-1.38a.87.87,0,0,0,.4-1.15l-.81-2.22A.86.86,0,0,0,205.88,218.38Z" id="H1-MBNOOhhf"/><path d="M212,216.15l-3.79,1.38a.87.87,0,0,0-.4,1.15l.81,2.22a.86.86,0,0,0,1,.62l3.79-1.37a.88.88,0,0,0,.39-1.15l-.8-2.22A.88.88,0,0,0,212,216.15Z" id="SkzMBNOd22M"/><path d="M218.13,213.93l-3.78,1.37a.87.87,0,0,0-.4,1.15l.81,2.22a.87.87,0,0,0,1,.63l3.78-1.38a.87.87,0,0,0,.4-1.15l-.81-2.22A.85.85,0,0,0,218.13,213.93Z" id="rkmfBVuu33f"/><path d="M220.07,214.23l.81,2.22a.86.86,0,0,0,1,.62l3.79-1.37a.66.66,0,0,0,.29-.23,18.62,18.62,0,0,0-4.06-2.93l-1.47.54A.88.88,0,0,0,220.07,214.23Z" id="rJNzSNud32G"/><path d="M197.44,231.08l-.46-1.27a19.77,19.77,0,0,0,.31,2.26A1,1,0,0,0,197.44,231.08Z" id="ByBfr4dOhnz"/><path d="M201.72,226l-3.79,1.37a.88.88,0,0,0-.39,1.15l.8,2.22a.88.88,0,0,0,1,.63l3.78-1.38a.87.87,0,0,0,.4-1.15l-.81-2.22A.86.86,0,0,0,201.72,226Z" id="rJ8fr4dun3M"/><path d="M207.84,223.78l-3.78,1.38a.87.87,0,0,0-.4,1.15l.81,2.22a.86.86,0,0,0,1,.62l3.78-1.37a.87.87,0,0,0,.4-1.15l-.8-2.22A.88.88,0,0,0,207.84,223.78Z" id="SkvMB4d_3hG"/><path d="M214,221.56l-3.78,1.37a.87.87,0,0,0-.4,1.15l.8,2.22a.88.88,0,0,0,1,.63l3.78-1.38a.87.87,0,0,0,.4-1.15l-.81-2.22A.86.86,0,0,0,214,221.56Z" id="SyufBV_d3hM"/><path d="M220.09,219.33l-3.78,1.38a.87.87,0,0,0-.4,1.15l.81,2.22a.86.86,0,0,0,1,.62l3.79-1.37a.88.88,0,0,0,.39-1.15l-.8-2.22A.88.88,0,0,0,220.09,219.33Z" id="HktfH4dO2hz"/><path d="M226.22,217.11l-3.78,1.37a.87.87,0,0,0-.4,1.15l.8,2.22a.88.88,0,0,0,1,.63l3.78-1.38a.87.87,0,0,0,.4-1.15l-.81-2.22A.85.85,0,0,0,226.22,217.11Z" id="Hy9fBN_uh2z"/><path d="M229,219.62a1,1,0,0,0,.75.66,22.36,22.36,0,0,0-1.21-1.93Z" id="HkjMBEddhhz"/><path d="M199.41,236.48l-.81-2.22a.89.89,0,0,0-.94-.64c.14.5.29,1,.47,1.51a21.55,21.55,0,0,0,1.06,2.4A1,1,0,0,0,199.41,236.48Z" id="BJ2MrVd_h3M"/><path d="M203.68,231.41l-3.78,1.38a.87.87,0,0,0-.4,1.15l.81,2.22a.85.85,0,0,0,1,.62l3.78-1.37a.87.87,0,0,0,.4-1.15l-.81-2.22A.87.87,0,0,0,203.68,231.41Z" id="SkpfB4Ou33M"/><path d="M209.81,229.19,206,230.56a.88.88,0,0,0-.39,1.15l.8,2.22a.88.88,0,0,0,1,.63l3.79-1.38a.87.87,0,0,0,.4-1.15l-.81-2.22A.86.86,0,0,0,209.81,229.19Z" id="r1AGrNu_nnM"/><path d="M215.93,227l-3.78,1.38a.87.87,0,0,0-.4,1.15l.81,2.22a.86.86,0,0,0,1,.62l3.78-1.37a.87.87,0,0,0,.4-1.15l-.8-2.22A.88.88,0,0,0,215.93,227Z" id="HkJQH4_d3nz"/><path d="M222.06,224.74l-3.79,1.37a.88.88,0,0,0-.39,1.15l.8,2.22a.88.88,0,0,0,1,.63l3.78-1.38a.87.87,0,0,0,.4-1.15l-.81-2.22A.86.86,0,0,0,222.06,224.74Z" id="S1g7BV_d33f"/><path d="M228.18,222.51l-3.78,1.38A.87.87,0,0,0,224,225l.81,2.22a.86.86,0,0,0,1,.62l3.79-1.37a.88.88,0,0,0,.39-1.15l-.8-2.22A.88.88,0,0,0,228.18,222.51Z" id="HkZXSNduhnf"/><path d="M230.13,222.81l.8,2.22a.94.94,0,0,0,.84.66,21.73,21.73,0,0,0-.73-2.52c-.18-.5-.39-1-.6-1.46A.87.87,0,0,0,230.13,222.81Z" id="BkGXB4_O23G"/><path d="M200.1,239.11l.56.84-.1-.28A1,1,0,0,0,200.1,239.11Z" id="SymmS4_d32z"/><path d="M205.65,236.82l-3.79,1.37a.88.88,0,0,0-.4,1.15l.81,2.22a.88.88,0,0,0,1,.63l3.79-1.38a.87.87,0,0,0,.39-1.15l-.8-2.22A.86.86,0,0,0,205.65,236.82Z" id="SkE7HN_Oh2z"/><path d="M211.77,234.59,208,236a.87.87,0,0,0-.4,1.15l.81,2.22a.85.85,0,0,0,1,.62l3.78-1.37a.87.87,0,0,0,.4-1.15l-.81-2.22A.87.87,0,0,0,211.77,234.59Z" id="H1HQSEd_h3G"/><path d="M217.9,232.37l-3.79,1.37a.88.88,0,0,0-.4,1.15l.81,2.22a.88.88,0,0,0,1,.63l3.79-1.38a.87.87,0,0,0,.4-1.15l-.81-2.22A.86.86,0,0,0,217.9,232.37Z" id="S1UXSN_O23M"/><path d="M224,230.14l-3.78,1.38a.87.87,0,0,0-.4,1.15l.81,2.22a.85.85,0,0,0,1,.62l3.78-1.37a.87.87,0,0,0,.4-1.15l-.8-2.22A.88.88,0,0,0,224,230.14Z" id="H1PQHN_u32z"/><path d="M230.15,227.92l-3.79,1.37a.88.88,0,0,0-.39,1.15l.8,2.22a.88.88,0,0,0,1,.63l3.78-1.38a.87.87,0,0,0,.4-1.15l-.81-2.22A.86.86,0,0,0,230.15,227.92Z" id="S1dmSNOd33z"/><path d="M232.09,228.22l.1.28c0-.34-.06-.68-.1-1A1,1,0,0,0,232.09,228.22Z" id="S1YQHEd_32z"/><path d="M209.46,245.07l-.81-2.22a.87.87,0,0,0-1-.63L204,243.55a18.6,18.6,0,0,0,4.59,2.85l.5-.18A.87.87,0,0,0,209.46,245.07Z" id="Hyc7BEd_h2G"/><path d="M213.73,240,210,241.37a.87.87,0,0,0-.4,1.15l.81,2.22a.87.87,0,0,0,1,.63l3.79-1.38a.87.87,0,0,0,.39-1.15l-.8-2.22A.87.87,0,0,0,213.73,240Z" id="rJi7rN_dhhM"/><path d="M219.86,237.77l-3.78,1.38a.87.87,0,0,0-.4,1.15l.8,2.22a.87.87,0,0,0,1.05.62l3.78-1.37a.87.87,0,0,0,.4-1.15l-.81-2.22A.87.87,0,0,0,219.86,237.77Z" id="B1nmHE_d32M"/><path d="M226,235.55l-3.79,1.37a.88.88,0,0,0-.4,1.15l.81,2.22a.88.88,0,0,0,1,.63l3.79-1.38a.88.88,0,0,0,.4-1.15l-.81-2.22A.86.86,0,0,0,226,235.55Z" id="r1aQHVudnhG"/><path d="M227.93,235.85l.81,2.22a.85.85,0,0,0,1,.62l.5-.18a18.85,18.85,0,0,0,1.69-5.13l-3.64,1.32A.87.87,0,0,0,227.93,235.85Z" id="Hk07BVd_32z"/><path d="M215.7,245.4l-3.79,1.38a.75.75,0,0,0-.45.6,16.7,16.7,0,0,0,5.9.35l-.62-1.7A.87.87,0,0,0,215.7,245.4Z" id="Sy1VSVdOnhM"/><path d="M221.82,243.18,218,244.55a.87.87,0,0,0-.4,1.15l.69,1.89a16.48,16.48,0,0,0,2.69-.72,16.26,16.26,0,0,0,2.53-1.18l-.68-1.89A.87.87,0,0,0,221.82,243.18Z" id="S1gNSN_O3hM"/><path d="M228,241l-3.78,1.38a.87.87,0,0,0-.4,1.15l.62,1.7a16.58,16.58,0,0,0,4.29-4.06A.74.74,0,0,0,228,241Z" id="rkZNBNu_n2z"/><path d="M228.72,239.93,211,246.35a1.58,1.58,0,0,0-.87,2.05l1.12,3.06a1.58,1.58,0,0,0,2,1l17.67-6.42a1.58,1.58,0,0,0,.87-2.05l-1.11-3.07A1.58,1.58,0,0,0,228.72,239.93Z" id="B1fErE__h3f"/><path d="M222.52,251.14a2.48,2.48,0,0,0-1.21,3.28l3.17,8.74a2.3,2.3,0,1,0,4.26-1.54l-3.17-8.74A2.5,2.5,0,0,0,222.52,251.14Z" id="rkQNr4dun2M"/><path d="M224.35,253.28l-1.85.67c-.23.08-.32.41-.2.73l.42,1.17c.11.32.4.51.63.42l1.84-.66a.57.57,0,0,0,.21-.74l-.43-1.16C224.86,253.39,224.58,253.2,224.35,253.28Z" id="Sk4EB4_Ohnf"/><path d="M225.49,256.44l-1.84.67a.56.56,0,0,0-.21.73l.43,1.17c.11.32.4.51.63.43l1.84-.67a.57.57,0,0,0,.21-.74l-.43-1.16C226,256.55,225.72,256.36,225.49,256.44Z" id="SJBEHEOd3hG"/><path d="M226.64,259.6l-1.84.67a.57.57,0,0,0-.21.74l.43,1.16c.11.32.39.51.62.43l1.85-.67c.23-.09.32-.41.2-.74l-.42-1.16C227.16,259.71,226.87,259.52,226.64,259.6Z" id="HkLEB4Ou33G"/><path d="M239.36,314.22a4.6,4.6,0,0,0,5.7,2.7l2.94-1.07a4.59,4.59,0,0,0,2.63-5.73L250,308l-11.51,4.18Z" id="SJPNHEud2hz"/><polygon points="237.48 309.85 238.49 312.19 250 308.01 249.27 305.57 237.48 309.85" id="Hk_EBN_u23M"/><path d="M230.74,222.43a19,19,0,0,0-1-2.13h0c-.18-.32-.37-.64-.56-.95l0-.06a20,20,0,0,0-3.12-3.8h0l-.11-.1c-.16-.14-.31-.29-.47-.42l-.23-.2-.38-.31-.25-.2-.52-.39-.4-.27-.18-.13c-.5-.32-1-.62-1.52-.9h0a17.91,17.91,0,0,0-1.94-.9h0c-.31-.12-.62-.23-.94-.33h0c-.39-.13-.79-.25-1.19-.35h0l-.69-.16h-.07l-.68-.13h-.06a16.55,16.55,0,0,0-4.45-.1h0q-.69.08-1.38.21h0c-.3.06-.61.14-.91.22l-.4.11-.3.08-.73.25-.09,0,38.16,105,1.74-.63,0,0a4.6,4.6,0,0,0,2.63-5.73L250,308l-.73-2.44h0l-17.87-59.78a1.63,1.63,0,0,0,.44-1.79L230.69,241a1.65,1.65,0,0,0-1.18-1.06,17.38,17.38,0,0,0,1.05-1.95l0-.05a19.49,19.49,0,0,0,.72-1.84v0c.06-.18.12-.37.17-.56a1.09,1.09,0,0,0,.05-.17c.06-.18.1-.36.15-.54a.83.83,0,0,1,0-.15,19.67,19.67,0,0,0-.2-9.92c0-.13-.07-.26-.11-.39s-.07-.22-.1-.34-.17-.51-.26-.77Z" id="rkKES4_u22f"/><path d="M228.76,242.36l-16.45,6a1,1,0,0,0,.68,1.87l16.45-6a1,1,0,0,0-.68-1.87Z" id="H1qVSNd_3hf"/><path d="M237.65,267.71l1.91,5.79c1.24.48,3.75.4,3.73,2.13-.06,5.3-7.38,4.65-18,4.62a1.07,1.07,0,0,0-1.1,1.05v8.58a1.07,1.07,0,0,0,1.07,1c12.22.24,28.91,1.06,28.9-11.77C254.19,272.18,245.74,267.52,237.65,267.71Z" id="H1iVBVOO2nf"/><path d="M237.65,267.71s2.71,3.08,4,4.49,2.73,1.36,1.34,5c0-.93.87-2.87-3.47-3.68Z" id="H13VrVuO3hM"/><g id="HkaVrEdd32z"><g id="ByC4SNO_32M"><path d="M183,188.19c-9.3-1.55-15.72-11.27-14.34-21.72s10-17.67,19.33-16.12,15.72,11.28,14.34,21.73-10,17.66-19.33,16.11" id="rk1SBEO_3nM"/></g></g>

<rect x="158.19" y="139.18" width="82.58" height="3.45" id="H1xBB4u_n3M">

  <animate xmlns="http://www.w3.org/2000/svg" dur="4s" attributeName="height" repeatCount="indefinite" values="1; 1; 1; 1; 75; 1; 0" keyTimes="0; 0.25; 0.5; 0.85; 0.9; 0.95; 1"/>

</rect>




<path d="M239,214.67h51.55s2-40.61-31.81-69.17c0,0-23.6-21.63-58.36-21.63,0,0,34.47,25.86,38.62,44.64a46.17,46.17,0,0,1,0,27.06Z" id="rybBSE_dh3z"/></g></g></svg>
