<svg xmlns="http://www.w3.org/2000/svg" xmlns:xlink="http://www.w3.org/1999/xlink" viewBox="0 0 400 336" id="r1EFLJo32z"><style>@-webkit-keyframes S1V-YIyo32f_ry1uyj23M_Animation{0%{-webkit-transform: translate(0px, 0px);transform: translate(0px, 0px);}50%{-webkit-transform: translate(0px, 15px);transform: translate(0px, 15px);}100%{-webkit-transform: translate(0px, 0px);transform: translate(0px, 0px);}}@keyframes S1V-YIyo32f_ry1uyj23M_Animation{0%{-webkit-transform: translate(0px, 0px);transform: translate(0px, 0px);}50%{-webkit-transform: translate(0px, 15px);transform: translate(0px, 15px);}100%{-webkit-transform: translate(0px, 0px);transform: translate(0px, 0px);}}#r1EFLJo32z *{-webkit-animation-duration: 3s;animation-duration: 3s;-webkit-animation-iteration-count: infinite;animation-iteration-count: infinite;-webkit-animation-timing-function: cubic-bezier(0, 0, 1, 1);animation-timing-function: cubic-bezier(0, 0, 1, 1);}#HJHK81shhG{isolation: isolate;}#B1wtUyjn3G{fill: #a7a6a6;-webkit-transform:  translate(-169.36px, 209.59px) rotate(-59deg);transform:  translate(-169.36px, 209.59px) rotate(-59deg);}#H1OFIJin3M{fill: #a7a6a6;-webkit-transform:  translate(-154.46px, 184.54px) rotate(-59deg);transform:  translate(-154.46px, 184.54px) rotate(-59deg);}#HyKKIyjhnM{fill: #575756;}#rkcYUyjnnM{fill: #868686;}#B1jtUJj22M{fill: #a7a6a6;}#H1hFLki32f{fill: #cfcfcf;}#rkpFL1s23f{fill: #cfcfcf;}#BJCtUJjn2z{fill: #a7a6a6;-webkit-transform:  translate(-37.82px, 152.66px) rotate(-24.49deg);transform:  translate(-37.82px, 152.66px) rotate(-24.49deg);}#HJ1lK8Jj23f{fill: #a7a6a6;-webkit-transform:  translate(-51.16px, 199.4px) rotate(-31.11deg);transform:  translate(-51.16px, 199.4px) rotate(-31.11deg);}#r1xxFL1snnf{fill: #575756;}#HyZetUJjh2f{fill: #868686;}#BJfxtU1ohnG{fill: #cfcfcf;}#HkmlKL1i23f{fill: #575756;}#ByNxt8Jjh3z{fill: #a7a6a6;}#BJSlYIki2nM{fill: #a7a6a6;}#r1UxKIJsn2f{fill: #575756;}#SyPxFIJi22z{fill: #a7a6a6;}#SJdeF81ih2z{fill: #a7a6a6;}#SJYgKIJjn3M{fill: none;stroke: #a7a6a6;stroke-miterlimit: 10;stroke-width: 5.81px;}#By9xKUJj23f{fill: #575756;}#rkixFIyi3nz{fill: #868686;}#ByheYLyshhf{fill: none;stroke: #a7a6a6;stroke-miterlimit: 10;stroke-width: 5.81px;}#HkaxYIJo32G{fill: #e3032e;}#Bk0xK8Jih2f{fill: #575756;}#BJkbY81shnM{fill: #575756;}#HJgZYI1sh2G{fill: #575756;opacity: 0.4;mix-blend-mode: multiply;}#SkbbFUkinnM{fill: #575756;}#B1zZt8yjn2z{fill: #575756;opacity: 0.4;mix-blend-mode: multiply;}#SkQ-tLys33f{fill: #fff;}#S1V-YIyo32f{fill: #1d1d1b;}#HkBbKI1ihhM{fill: #fff;}#rkIZK8yj2hz{fill: none;stroke: #a7a6a6;stroke-miterlimit: 10;stroke-width: 1.09px;}#HyPbYIyin3z{fill: none;stroke: #a7a6a6;stroke-miterlimit: 10;stroke-width: 1.09px;}#rJubF8ys3hG{fill: none;stroke: #a7a6a6;stroke-miterlimit: 10;stroke-width: 1.09px;}#HkYZtIyinhM{fill: #575756;opacity: 0.4;mix-blend-mode: multiply;}#Bkc-tL1o3hz{fill: #575756;}#rko-YIko2nf{fill: #868686;}#rynbtLJohhM{fill: #f6aa30;}#B16WYI1j33f{fill: #e79505;-webkit-transform:  translate(31.35px, 481.93px) rotate(-89.63deg);transform:  translate(31.35px, 481.93px) rotate(-89.63deg);}#SJ0ZFUys23z{fill: #fff;opacity: 0.2;}#H1kMYLkonnM{fill: #ca8010;}#HJlzY8koh2f{fill: #ca8010;}#ry-MK81jnhM{fill: #ca8010;}#ByzMYLki32z{fill: #ca8010;}#r1XMtUyj32G{fill: #ca8010;}#rkNzYIyi2hz{fill: #ca8010;}#rJrMFL1sn3f{fill: #ca8010;}#B1IGFIyj3nG{fill: #ca8010;}#rkPGtUkin3M{fill: #ca8010;}#Bk_fF81ih2z{fill: #ca8010;}#HkFfKL1sn2z{fill: #ca8010;}#Sy5zKUJjh2z{fill: #ca8010;}#HkjGK8kjn2f{fill: #ca8010;}#SynGF8Js2hf{fill: #ca8010;}#SyTGKI1onnG{fill: #ca8010;}#SJ0ztLyohhG{fill: #ca8010;}#ryJQYLJinnM{fill: #ca8010;}#B1e7K8Js3hG{fill: #ca8010;}#SJZQFLksn2G{fill: #ca8010;}#rkf7YLyo3hz{fill: #ca8010;}#HJmQt8ysnnM{fill: #ca8010;}#HyVmKIJjnhG{fill: #ca8010;}#ryBmKI1s33f{fill: #ca8010;}#HJLQYIJj33M{fill: #ca8010;}#S1DmFLJi33M{fill: #ca8010;}#Sy_mK81jhhf{fill: #ca8010;}#SyKXKI1snhf{fill: #ca8010;}#r15QKUyonhM{fill: #ca8010;}#HJjQY8ki33M{fill: #ca8010;}#BkhmKU1s3nz{fill: #ca8010;}#rkaXFLyjh2M{fill: #ca8010;}#SkCmF81jhhf{fill: #ca8010;}#Hyy4KUyi2nG{fill: #ca8010;}#BJe4t8Jo23f{fill: #ca8010;}#ryZNt8Jj2nz{fill: #ca8010;}#BkfVFU1jh2f{fill: #ca8010;}#rkm4K8yih2G{fill: #ca8010;}#ryVVt81o2nM{fill: #ca8010;}#H1H4FIkj2hf{fill: #ca8010;}#HkLVt81jn2M{fill: #ca8010;}#SywNFIJi2nf{fill: #ca8010;}#HyuEFIkj3hM{fill: #ca8010;}#SJtNKLks2hM{fill: #ca8010;}#B194KUyi3hf{fill: #ca8010;}#BJiEKLJo3hM{fill: #ca8010;}#Bk2VF8kohnG{fill: #ca8010;}#HJa4KLyinnG{fill: #ca8010;}#HyAEYLyihnG{fill: #ca8010;}#S1JHtU1sh2z{fill: #ca8010;}#HkgBKLkon3G{fill: #ca8010;}#rJbrYLki2hG{fill: #ca8010;}#S1fBF8ksnhz{fill: #ca8010;}#rJmHYL1i2nG{fill: #ca8010;}#Hy4HKUJih3z{fill: #ca8010;}#HyBBKLks2hG{fill: #ca8010;}#BJIBF8ki32f{fill: #ca8010;}#SkPBKLkj32f{fill: #ca8010;}#SyOBtIkihnz{fill: #ca8010;}#r1FSK81s3hM{fill: #ca8010;}#BkcSYUys3hM{fill: #ca8010;}#B1irK8kj3hM{fill: #ca8010;}#rJnrFIkih3f{fill: #ca8010;}#HyaBYUJohnz{fill: #ca8010;}#SJ0rKUyjnhf{fill: #ca8010;}#ryy8K8yinnG{fill: #ca8010;}#BJeUF8kjn2G{fill: #ca8010;}#S1Z8KUkjhnG{fill: #ca8010;}#HkMLF8yoh3G{fill: #ca8010;}#BJmItL1onhM{fill: #ca8010;}#HJVLK81in2M{fill: #ca8010;}#BkHLt8Jsnnz{fill: #ca8010;}#SyUUtUkin3M{fill: #ca8010;}#H1wLF81sh3f{fill: #ca8010;}#ByO8tLyin3f{fill: #ca8010;}#SkYIK81jhnM{fill: #ca8010;}#rk58KUkinhz{fill: #ca8010;}#H1iLKLkinhG{fill: #ca8010;}#HkhLt8kih2G{fill: #ca8010;}#BJTIFLyin2G{fill: #ca8010;}#r1AIt8Js2nM{fill: #ca8010;}#rJkwtU1i32f{fill: #ca8010;}#rylvY8Ji32z{fill: #ca8010;}#SkWvKIyi3nM{fill: #ca8010;}#Bkzvt8kih3f{fill: #ca8010;}#HymPK8kshhG{fill: #ca8010;}#B1VvKIJs33G{fill: #ca8010;}#H1BvtI1i3hM{fill: #ca8010;}#ByIvYUJin2z{fill: #ca8010;}#rkDDKL1j32f{fill: #ca8010;}#r1_vKU1onnf{fill: #ca8010;}#HJFwFUks32f{fill: #ca8010;}#HJ9vF8Jsh3M{fill: #ca8010;}#SkiDFLysn2z{fill: #ca8010;}#rJ3DK8ko23z{fill: #ca8010;}#r1TPF81oh2z{fill: #ca8010;}#Bk0vFIJs33G{fill: #ca8010;}#B1JdKL1in3G{fill: #ca8010;}#S1xdtLko22G{fill: #ca8010;}#Sy-_K8yj2nM{fill: #ca8010;}#SyG_YUJj23f{fill: #ca8010;}#HJmOtI1j22G{fill: #ca8010;}#SkNOFLksnnM{fill: #ca8010;}#SJS_tU1i33f{fill: #ca8010;}#Sy8uYU1j3hM{fill: #ca8010;}#HyvutIysn3G{fill: #ca8010;}#Hy__Y8kj3nz{fill: #ca8010;}#rktdK8ks23G{fill: #ca8010;}#rkcdY81in3G{fill: #ca8010;}#Byo_KLJinnM{fill: #ca8010;-webkit-transform:  translate(-39.54px, 174.23px) rotate(-62.82deg);transform:  translate(-39.54px, 174.23px) rotate(-62.82deg);}#BJ2uFIJjn3M{fill: #ffe88e;-webkit-transform:  translate(-72.45px, 175.39px) rotate(-65.54deg);transform:  translate(-72.45px, 175.39px) rotate(-65.54deg);}#S1adtUyj23f{fill: #eabd02;}#Sk0dYIyoh2f{fill: #e79505;}#BJkttL1o3nG{opacity: 0.1;}#HyltFUyj3nG{-webkit-clip-path: url(#clip-path);clip-path: url(#clip-path);}#H1bYt8yj23G{fill: #fff;}#HyGKYU1i3nf{fill: #e3032e;}#rJQtYL1s32M{fill: #575756;mix-blend-mode: multiply;opacity: 0.2;}#S14KKL1jhnz{fill: #ca8010;}#HyHFY8ys33G{fill: #eabd02;}#r18KY8Ji2nz{fill: #ca8010;-webkit-transform:  translate(-22.73px, 144.95px) rotate(-27.18deg);transform:  translate(-22.73px, 144.95px) rotate(-27.18deg);}#r1wYtL1j2hz{fill: #a7a6a6;}#Hy_YYU1sh3M{fill: #cfcfcf;}#B1tYYIyinhM{fill: #ffe88e;-webkit-transform:  translate(-31.64px, 141.92px) rotate(-24.46deg);transform:  translate(-31.64px, 141.92px) rotate(-24.46deg);}#S15YK8Jshnf{fill: #eabd02;}#ByjYtIkih3z{fill: #e79505;}#S1V-YIyo32f_ry1uyj23M{-webkit-animation-name: S1V-YIyo32f_ry1uyj23M_Animation;animation-name: S1V-YIyo32f_ry1uyj23M_Animation;-webkit-transform-origin: 50% 50%;transform-origin: 50% 50%;transform-box: fill-box;-webkit-transform: translate(0px, 0px);transform: translate(0px, 0px);}</style><defs><clipPath id="clip-path"><rect class="cls-1" x="169.01" y="129.19" width="34.04" height="38.26"/></clipPath></defs><title>Tekengebied 7</title><g id="HJHK81shhG"><g id="B1IFIkj33z" data-name="Laag 1"><rect x="96.34" y="229.33" width="8.38" height="50.26" id="B1wtUyjn3G"/><rect x="71.38" y="224.57" width="28.92" height="8.38" id="H1OFIJin3M"/><circle cx="79.09" cy="240.94" r="9.22" id="HyKKIyjhnM"/><circle cx="76" cy="241.76" r="5.41" id="rkcYUyjnnM"/><path d="M136.09,288.44l.55-8.37A10.13,10.13,0,1,1,138,259.85l.55-8.36a18.52,18.52,0,0,0-2.44,36.95Z" id="B1jtUJj22M"/><path d="M117,267.33a.84.84,0,0,0-.28-1.15L87,248.37a.84.84,0,0,0-1.15.28.86.86,0,0,0,.29,1.16l29.65,17.81A.83.83,0,0,0,117,267.33Z" id="H1hFLki32f"/><path d="M132.92,286.64a1.22,1.22,0,0,0,.07-.17.83.83,0,0,0-.53-1.06c-12.83-4.22-10.88-14.82-10.79-15.27a.85.85,0,0,0-.66-1,.84.84,0,0,0-1,.66c0,.13-2.31,12.52,11.92,17.19A.86.86,0,0,0,132.92,286.64Z" id="rkpFL1s23f"/><rect x="328.67" y="144.84" width="8.38" height="37.3" id="BJCtUJjn2z"/><rect x="318.08" y="187.4" width="28.92" height="8.38" id="HJ1lK8Jj23f"/><circle cx="340.84" cy="181.17" r="9.22" id="r1xxFL1snnf"/><circle cx="343.95" cy="181.89" r="5.41" id="HyZetUJjh2f"/><path d="M328.82,148.42c-.42.2-.65.61-.51.92L339,172.7a.88.88,0,0,0,1.53-.7l-10.64-23.36A.76.76,0,0,0,328.82,148.42Z" id="BJfxtU1ohnG"/><path d="M109.6,173.11a26.33,26.33,0,0,0,0,52.66Z" id="HkmlKL1i23f"/><path d="M88,203a1.68,1.68,0,0,0,1.67-1.68c0-19.18,15.41-21.16,16.06-21.23a1.68,1.68,0,0,0-.36-3.34c-.19,0-19.05,2.32-19.05,24.57A1.68,1.68,0,0,0,88,203Z" id="ByNxt8Jjh3z"/><circle cx="89.5" cy="207.71" r="1.51" id="BJSlYIki2nM"/><path d="M298.25,170.52a26.33,26.33,0,1,1,0,52.65Z" id="r1UxKIJsn2f"/><path d="M319.86,200.38a1.68,1.68,0,0,1-1.68-1.67c0-19.18-15.41-21.16-16.06-21.24a1.67,1.67,0,0,1,.36-3.33c.19,0,19,2.32,19,24.57A1.67,1.67,0,0,1,319.86,200.38Z" id="SyPxFIJi22z"/><circle cx="318.35" cy="205.12" r="1.51" id="SJdeF81ih2z"/><line x1="249.44" y1="234.42" x2="249.44" y2="303.24" id="SJYgKIJjn3M"/><circle cx="249.44" cy="270.84" r="9.69" id="By9xKUJj23f"/><circle cx="251.85" cy="268.5" r="5.69" id="rkixFIyi3nz"/><line x1="159.32" y1="234.42" x2="159.32" y2="303.24" id="ByheYLyshhf"/><path d="M307.59,195a101.7,101.7,0,1,0-203.39,0Z" id="HkaxYIJo32G"/><rect x="104.2" y="194.81" width="203.39" height="52.31" id="Bk0xK8Jih2f"/><path d="M193.45,335.41a35.74,35.74,0,1,0-71.47,0Z" id="BJkbY81shnM"/><path d="M193.45,335.41a35.74,35.74,0,0,0-35.74-35.74s18.69,5.29,15.54,35.74Z" id="HJgZYI1sh2G"/><path d="M285.5,335.41a35.74,35.74,0,1,0-71.47,0Z" id="SkbbFUkinnM"/><path d="M285.5,335.41a35.74,35.74,0,0,0-35.73-35.74s18.69,5.29,15.53,35.74Z" id="B1zZt8yjn2z"/><circle cx="205.51" cy="160.41" r="46.19" id="SkQ-tLys33f"/><g id="S1V-YIyo32f_ry1uyj23M" data-animator-group="true" data-animator-type="0"><circle cx="206.04" cy="160.91" r="27.92" id="S1V-YIyo32f"/></g><circle cx="227.12" cy="172.57" r="7.14" id="HkBbKI1ihhM"/><line x1="105.4" y1="238.48" x2="307.19" y2="238.48" id="rkIZK8yj2hz"/><line x1="105.4" y1="233.28" x2="307.19" y2="233.28" id="HyPbYIyin3z"/><line x1="105.4" y1="228.07" x2="307.19" y2="228.07" id="rJubF8ys3hG"/><polygon points="249.44 194.81 249.44 247.12 307.59 247.12 307.59 193.8 249.44 194.81" id="HkYZtIyinhM"/><circle cx="159.32" cy="270.84" r="9.69" id="Bkc-tL1o3hz"/><circle cx="161.73" cy="268.5" r="5.69" id="rko-YIko2nf"/><path d="M272.48,226.64l-.16-4.29c14.77-.54,25.91-5.24,33.09-13.95,12.26-14.87,9-36.65,9-36.86l4.24-.67c.15,1,3.55,23.92-9.93,40.26C300.73,220.83,288.53,226.05,272.48,226.64Z" id="rynbtLJohhM"/><rect x="247.6" y="209.37" width="21.2" height="31.65" rx="8.2" ry="8.2" id="B16WYI1j33f"/><path d="M242.31,218.57h0l.08-.06Z" id="SJ0ZFUys23z"/><path d="M250.66,215.5h-1.48a.29.29,0,0,0-.28.31v.81a.31.31,0,0,0,.28.32h1.47a.31.31,0,0,0,.29-.32v-.8A.3.3,0,0,0,250.66,215.5Z" id="H1kMYLkonnM"/><path d="M253,215.52h-1.47a.3.3,0,0,0-.29.31v.81a.3.3,0,0,0,.27.32H253a.3.3,0,0,0,.28-.32v-.8A.29.29,0,0,0,253,215.52Z" id="HJlzY8koh2f"/><path d="M255.42,215.54H254a.29.29,0,0,0-.28.31v.8a.31.31,0,0,0,.28.33h1.47a.3.3,0,0,0,.28-.32v-.8A.3.3,0,0,0,255.42,215.54Z" id="ry-MK81jnhM"/><path d="M257.8,215.56l-1.47,0a.3.3,0,0,0-.28.32v.8a.31.31,0,0,0,.28.33h1.47a.3.3,0,0,0,.28-.32v-.8A.3.3,0,0,0,257.8,215.56Z" id="ByzMYLki32z"/><path d="M260.18,215.58l-1.47,0a.31.31,0,0,0-.28.32v.8a.31.31,0,0,0,.28.33h1.47a.3.3,0,0,0,.28-.32v-.8A.3.3,0,0,0,260.18,215.58Z" id="r1XMtUyj32G"/><path d="M262.56,215.6l-1.47,0a.31.31,0,0,0-.28.32v.8a.31.31,0,0,0,.28.33h1.47a.31.31,0,0,0,.29-.32v-.8A.3.3,0,0,0,262.56,215.6Z" id="rkNzYIyi2hz"/><path d="M265,215.62l-1.47,0a.3.3,0,0,0-.29.32v.8a.3.3,0,0,0,.27.33h1.47a.3.3,0,0,0,.29-.32v-.8A.29.29,0,0,0,265,215.62Z" id="rJrMFL1sn3f"/><path d="M267.33,215.64l-1.47,0a.31.31,0,0,0-.29.32v.8a.31.31,0,0,0,.28.33h1.47a.3.3,0,0,0,.28-.32V216A.3.3,0,0,0,267.33,215.64Z" id="B1IGFIyj3nG"/><path d="M248.26,217.43h-1.47a.31.31,0,0,0-.29.32v.8a.3.3,0,0,0,.27.32h1.48a.3.3,0,0,0,.28-.32v-.8A.31.31,0,0,0,248.26,217.43Z" id="rkPGtUkin3M"/><path d="M250.64,217.45h-1.47a.3.3,0,0,0-.28.32v.8a.3.3,0,0,0,.28.32h1.47a.3.3,0,0,0,.28-.32v-.8A.31.31,0,0,0,250.64,217.45Z" id="Bk_fF81ih2z"/><path d="M253,217.47h-1.47a.3.3,0,0,0-.28.32v.8a.3.3,0,0,0,.28.32H253a.3.3,0,0,0,.28-.32v-.8A.3.3,0,0,0,253,217.47Z" id="HkFfKL1sn2z"/><path d="M255.4,217.49h-1.47a.3.3,0,0,0-.28.32v.8a.31.31,0,0,0,.28.32h1.47a.3.3,0,0,0,.28-.32v-.8A.3.3,0,0,0,255.4,217.49Z" id="Sy5zKUJjh2z"/><path d="M257.78,217.51h-1.47a.3.3,0,0,0-.28.31v.81a.31.31,0,0,0,.28.32h1.47a.31.31,0,0,0,.29-.32v-.8A.3.3,0,0,0,257.78,217.51Z" id="HkjGK8kjn2f"/><path d="M260.17,217.53H258.7a.3.3,0,0,0-.29.31v.81a.3.3,0,0,0,.27.32h1.47a.3.3,0,0,0,.29-.32v-.8A.29.29,0,0,0,260.17,217.53Z" id="SynGF8Js2hf"/><path d="M262.55,217.55h-1.47a.3.3,0,0,0-.29.31v.81a.3.3,0,0,0,.28.32h1.47a.3.3,0,0,0,.28-.32v-.8A.3.3,0,0,0,262.55,217.55Z" id="SyTGKI1onnG"/><path d="M264.93,217.57h-1.47a.29.29,0,0,0-.28.31v.8a.31.31,0,0,0,.28.33h1.47a.3.3,0,0,0,.28-.32v-.8A.3.3,0,0,0,264.93,217.57Z" id="SJ0ztLyohhG"/><path d="M267.31,217.59l-1.47,0a.31.31,0,0,0-.28.32v.8a.31.31,0,0,0,.28.33h1.47a.3.3,0,0,0,.28-.32v-.8A.3.3,0,0,0,267.31,217.59Z" id="ryJQYLJinnM"/><path d="M269.69,217.61l-1.47,0a.31.31,0,0,0-.28.32v.8a.31.31,0,0,0,.28.33h1.47a.3.3,0,0,0,.28-.32v-.8A.3.3,0,0,0,269.69,217.61Z" id="B1e7K8Js3hG"/><path d="M245.86,219.36h-1.47a.3.3,0,0,0-.28.32v.8a.3.3,0,0,0,.28.32h1.47a.29.29,0,0,0,.28-.31v-.8A.31.31,0,0,0,245.86,219.36Z" id="SJZQFLksn2G"/><path d="M248.24,219.38h-1.47a.3.3,0,0,0-.28.32v.8a.3.3,0,0,0,.28.32h1.47a.29.29,0,0,0,.28-.31v-.81A.3.3,0,0,0,248.24,219.38Z" id="rkf7YLyo3hz"/><path d="M250.62,219.4h-1.47a.3.3,0,0,0-.28.32v.8a.3.3,0,0,0,.28.32h1.47a.29.29,0,0,0,.28-.31v-.81A.3.3,0,0,0,250.62,219.4Z" id="HJmQt8ysnnM"/><path d="M253,219.42h-1.48a.3.3,0,0,0-.28.32v.8a.3.3,0,0,0,.28.32H253a.31.31,0,0,0,.29-.31v-.81A.3.3,0,0,0,253,219.42Z" id="HyVmKIJjnhG"/><path d="M255.39,219.44h-1.47a.3.3,0,0,0-.29.32v.8a.29.29,0,0,0,.27.32h1.48a.3.3,0,0,0,.28-.32v-.8A.3.3,0,0,0,255.39,219.44Z" id="ryBmKI1s33f"/><path d="M257.77,219.46H256.3a.31.31,0,0,0-.29.32v.8a.3.3,0,0,0,.28.32h1.47a.3.3,0,0,0,.28-.32v-.8A.31.31,0,0,0,257.77,219.46Z" id="HJLQYIJj33M"/><path d="M260.15,219.48h-1.47a.3.3,0,0,0-.28.32v.8a.3.3,0,0,0,.28.32h1.47a.3.3,0,0,0,.28-.32v-.8A.3.3,0,0,0,260.15,219.48Z" id="S1DmFLJi33M"/><path d="M262.53,219.5h-1.47a.3.3,0,0,0-.28.32v.8a.3.3,0,0,0,.28.32h1.47a.3.3,0,0,0,.28-.32v-.8A.3.3,0,0,0,262.53,219.5Z" id="Sy_mK81jhhf"/><path d="M264.91,219.52h-1.47a.3.3,0,0,0-.28.32v.8a.31.31,0,0,0,.28.32h1.47a.31.31,0,0,0,.29-.32v-.8A.3.3,0,0,0,264.91,219.52Z" id="SyKXKI1snhf"/><path d="M267.3,219.54h-1.48a.3.3,0,0,0-.28.31v.81a.3.3,0,0,0,.27.32h1.47a.3.3,0,0,0,.29-.32v-.8A.29.29,0,0,0,267.3,219.54Z" id="r15QKUyonhM"/><path d="M269.68,219.56h-1.47a.31.31,0,0,0-.29.31v.81a.3.3,0,0,0,.27.32h1.48a.3.3,0,0,0,.28-.32v-.8A.3.3,0,0,0,269.68,219.56Z" id="HJjQY8ki33M"/><path d="M272.06,219.58h-1.47a.29.29,0,0,0-.28.31v.81a.3.3,0,0,0,.28.32h1.47a.3.3,0,0,0,.28-.32v-.8A.3.3,0,0,0,272.06,219.58Z" id="BkhmKU1s3nz"/><path d="M245.84,221.31h-1.47a.3.3,0,0,0-.28.32v.8a.3.3,0,0,0,.28.32l1.47,0a.3.3,0,0,0,.28-.32v-.8A.31.31,0,0,0,245.84,221.31Z" id="rkaXFLyjh2M"/><path d="M248.23,221.33h-1.48a.3.3,0,0,0-.28.32v.8a.3.3,0,0,0,.28.32l1.47,0a.32.32,0,0,0,.29-.32v-.8A.31.31,0,0,0,248.23,221.33Z" id="SkCmF81jhhf"/><path d="M250.61,221.35h-1.47a.3.3,0,0,0-.29.32v.8a.3.3,0,0,0,.27.32l1.48,0a.31.31,0,0,0,.28-.32v-.8A.3.3,0,0,0,250.61,221.35Z" id="Hyy4KUyi2nG"/><path d="M253,221.37h-1.47a.3.3,0,0,0-.28.32v.8a.3.3,0,0,0,.28.32l1.47,0a.31.31,0,0,0,.28-.32v-.8A.31.31,0,0,0,253,221.37Z" id="BJe4t8Jo23f"/><path d="M255.37,221.39H253.9a.3.3,0,0,0-.28.32v.8a.3.3,0,0,0,.28.32h1.47a.29.29,0,0,0,.28-.31v-.8A.31.31,0,0,0,255.37,221.39Z" id="ryZNt8Jj2nz"/><path d="M257.75,221.41h-1.47a.3.3,0,0,0-.28.32v.8a.3.3,0,0,0,.28.32h1.47a.29.29,0,0,0,.28-.31v-.81A.3.3,0,0,0,257.75,221.41Z" id="BkfVFU1jh2f"/><path d="M260.13,221.43h-1.47a.3.3,0,0,0-.28.32v.8a.3.3,0,0,0,.28.32h1.47a.3.3,0,0,0,.29-.31v-.81A.3.3,0,0,0,260.13,221.43Z" id="rkm4K8yih2G"/><path d="M262.52,221.45h-1.47a.3.3,0,0,0-.29.32v.8a.29.29,0,0,0,.27.32h1.47a.3.3,0,0,0,.29-.31v-.81A.3.3,0,0,0,262.52,221.45Z" id="ryVVt81o2nM"/><path d="M264.9,221.47h-1.47a.31.31,0,0,0-.29.32v.8a.3.3,0,0,0,.28.32h1.47a.3.3,0,0,0,.28-.32v-.8A.31.31,0,0,0,264.9,221.47Z" id="H1H4FIkj2hf"/><path d="M267.28,221.49h-1.47a.3.3,0,0,0-.28.32v.8a.3.3,0,0,0,.28.32h1.47a.3.3,0,0,0,.28-.32v-.8A.31.31,0,0,0,267.28,221.49Z" id="HkLVt81jn2M"/><path d="M269.66,221.51h-1.47a.3.3,0,0,0-.28.32v.8a.3.3,0,0,0,.28.32h1.47a.3.3,0,0,0,.28-.32v-.8A.3.3,0,0,0,269.66,221.51Z" id="SywNFIJi2nf"/><path d="M272,221.53h-1.47a.3.3,0,0,0-.28.32v.8a.31.31,0,0,0,.28.32H272a.3.3,0,0,0,.28-.32v-.8A.3.3,0,0,0,272,221.53Z" id="HyuEFIkj3hM"/><path d="M245.83,223.27l-1.47,0a.3.3,0,0,0-.29.32v.8a.31.31,0,0,0,.27.33h1.48a.3.3,0,0,0,.28-.32v-.8A.3.3,0,0,0,245.83,223.27Z" id="SJtNKLks2hM"/><path d="M248.21,223.29l-1.47,0a.3.3,0,0,0-.28.32v.8a.31.31,0,0,0,.28.33h1.47a.3.3,0,0,0,.28-.32v-.8A.3.3,0,0,0,248.21,223.29Z" id="B194KUyi3hf"/><path d="M250.59,223.31l-1.47,0a.3.3,0,0,0-.28.32v.8a.31.31,0,0,0,.28.33h1.47a.3.3,0,0,0,.28-.32v-.8A.3.3,0,0,0,250.59,223.31Z" id="BJiEKLJo3hM"/><path d="M253,223.32H251.5a.3.3,0,0,0-.28.32v.8a.3.3,0,0,0,.28.32l1.47,0a.3.3,0,0,0,.28-.32v-.8A.31.31,0,0,0,253,223.32Z" id="Bk2VF8kohnG"/><path d="M255.35,223.34h-1.47a.3.3,0,0,0-.28.32v.8a.3.3,0,0,0,.28.32l1.47,0a.31.31,0,0,0,.29-.32v-.8A.31.31,0,0,0,255.35,223.34Z" id="HJa4KLyinnG"/><path d="M257.74,223.36h-1.47a.3.3,0,0,0-.29.32v.8a.29.29,0,0,0,.27.32l1.47,0a.3.3,0,0,0,.29-.32v-.8A.3.3,0,0,0,257.74,223.36Z" id="HyAEYLyihnG"/><path d="M260.12,223.38h-1.47a.31.31,0,0,0-.29.32v.8a.3.3,0,0,0,.28.32l1.47,0a.31.31,0,0,0,.28-.32v-.8A.31.31,0,0,0,260.12,223.38Z" id="S1JHtU1sh2z"/><path d="M262.5,223.4H261a.3.3,0,0,0-.28.32v.8a.3.3,0,0,0,.28.32l1.47,0a.31.31,0,0,0,.28-.32v-.8A.31.31,0,0,0,262.5,223.4Z" id="HkgBKLkon3G"/><path d="M264.88,223.42h-1.47a.3.3,0,0,0-.28.32v.8a.3.3,0,0,0,.28.32h1.47a.29.29,0,0,0,.28-.31v-.8A.31.31,0,0,0,264.88,223.42Z" id="rJbrYLki2hG"/><path d="M267.26,223.44h-1.47a.3.3,0,0,0-.28.32v.8a.3.3,0,0,0,.28.32h1.47a.29.29,0,0,0,.28-.31v-.81A.3.3,0,0,0,267.26,223.44Z" id="S1fBF8ksnhz"/><path d="M269.65,223.46h-1.48a.3.3,0,0,0-.28.32v.8a.29.29,0,0,0,.27.32h1.47a.3.3,0,0,0,.29-.31v-.81A.3.3,0,0,0,269.65,223.46Z" id="rJmHYL1i2nG"/><path d="M272,223.48h-1.47a.3.3,0,0,0-.29.32v.8a.3.3,0,0,0,.27.32H272a.29.29,0,0,0,.28-.31v-.81A.31.31,0,0,0,272,223.48Z" id="Hy4HKUJih3z"/><path d="M245.81,225.22h-1.47a.29.29,0,0,0-.28.31v.8a.31.31,0,0,0,.28.33h1.47a.3.3,0,0,0,.28-.32v-.8A.3.3,0,0,0,245.81,225.22Z" id="HyBBKLks2hG"/><path d="M248.19,225.24h-1.47a.29.29,0,0,0-.28.31v.8a.31.31,0,0,0,.28.33h1.47a.3.3,0,0,0,.28-.32v-.8A.3.3,0,0,0,248.19,225.24Z" id="BJIBF8ki32f"/><path d="M250.58,225.26l-1.48,0a.31.31,0,0,0-.28.32v.8a.31.31,0,0,0,.28.33h1.47a.31.31,0,0,0,.29-.32v-.8A.3.3,0,0,0,250.58,225.26Z" id="SkPBKLkj32f"/><path d="M253,225.28l-1.47,0a.31.31,0,0,0-.29.32v.8a.3.3,0,0,0,.27.33H253a.3.3,0,0,0,.28-.32v-.8A.29.29,0,0,0,253,225.28Z" id="SyOBtIkihnz"/><path d="M255.34,225.3l-1.47,0a.31.31,0,0,0-.29.32v.8a.31.31,0,0,0,.28.33h1.47a.3.3,0,0,0,.28-.32v-.8A.3.3,0,0,0,255.34,225.3Z" id="r1FSK81s3hM"/><path d="M257.72,225.32l-1.47,0a.3.3,0,0,0-.28.32v.8a.31.31,0,0,0,.28.33h1.47a.3.3,0,0,0,.28-.32v-.8A.3.3,0,0,0,257.72,225.32Z" id="BkcSYUys3hM"/><path d="M260.1,225.34l-1.47,0a.3.3,0,0,0-.28.32v.8a.31.31,0,0,0,.28.33h1.47a.3.3,0,0,0,.28-.32v-.8A.3.3,0,0,0,260.1,225.34Z" id="B1irK8kj3hM"/><path d="M262.48,225.35H261a.3.3,0,0,0-.28.32v.8a.3.3,0,0,0,.28.32l1.47,0a.31.31,0,0,0,.29-.32v-.8A.31.31,0,0,0,262.48,225.35Z" id="rJnrFIkih3f"/><path d="M264.87,225.37h-1.48a.3.3,0,0,0-.28.32v.8a.29.29,0,0,0,.27.32l1.47,0a.3.3,0,0,0,.29-.32v-.8A.3.3,0,0,0,264.87,225.37Z" id="HyaBYUJohnz"/><path d="M267.25,225.39h-1.47a.31.31,0,0,0-.29.32v.8a.3.3,0,0,0,.27.32l1.48,0a.3.3,0,0,0,.28-.32v-.8A.32.32,0,0,0,267.25,225.39Z" id="SJ0rKUyjnhf"/><path d="M269.63,225.41h-1.47a.3.3,0,0,0-.28.32v.8a.3.3,0,0,0,.28.32l1.47,0a.31.31,0,0,0,.28-.32v-.8A.31.31,0,0,0,269.63,225.41Z" id="ryy8K8yinnG"/><path d="M272,225.43h-1.47a.3.3,0,0,0-.28.32v.8a.3.3,0,0,0,.28.32l1.47,0a.31.31,0,0,0,.28-.32v-.8A.31.31,0,0,0,272,225.43Z" id="BJeUF8kjn2G"/><path d="M245.8,227.17h-1.48a.3.3,0,0,0-.28.32v.8a.31.31,0,0,0,.28.32h1.47a.31.31,0,0,0,.29-.32v-.8A.3.3,0,0,0,245.8,227.17Z" id="S1Z8KUkjhnG"/><path d="M248.18,227.19h-1.47a.3.3,0,0,0-.29.31v.81a.3.3,0,0,0,.27.32h1.48a.3.3,0,0,0,.28-.32v-.8A.29.29,0,0,0,248.18,227.19Z" id="HkMLF8yoh3G"/><path d="M250.56,227.21h-1.47a.29.29,0,0,0-.28.31v.81a.3.3,0,0,0,.28.32h1.47a.3.3,0,0,0,.28-.32v-.8A.3.3,0,0,0,250.56,227.21Z" id="BJmItL1onhM"/><path d="M252.94,227.23h-1.47a.29.29,0,0,0-.28.31v.81a.3.3,0,0,0,.28.32h1.47a.3.3,0,0,0,.28-.32v-.8A.3.3,0,0,0,252.94,227.23Z" id="HJVLK81in2M"/><path d="M255.32,227.25h-1.47a.29.29,0,0,0-.28.31v.8a.31.31,0,0,0,.28.33h1.47a.3.3,0,0,0,.28-.32v-.8A.3.3,0,0,0,255.32,227.25Z" id="BkHLt8Jsnnz"/><path d="M257.7,227.27h-1.47a.29.29,0,0,0-.28.31v.8a.31.31,0,0,0,.28.33h1.47a.31.31,0,0,0,.29-.32v-.8A.3.3,0,0,0,257.7,227.27Z" id="SyUUtUkin3M"/><path d="M260.09,227.29l-1.47,0a.31.31,0,0,0-.29.32v.8a.3.3,0,0,0,.27.33h1.47a.3.3,0,0,0,.29-.32v-.8A.29.29,0,0,0,260.09,227.29Z" id="H1wLF81sh3f"/><path d="M262.47,227.31l-1.47,0a.32.32,0,0,0-.29.32v.8a.31.31,0,0,0,.28.33h1.47a.3.3,0,0,0,.28-.32v-.8A.3.3,0,0,0,262.47,227.31Z" id="ByO8tLyin3f"/><path d="M264.85,227.33l-1.47,0a.3.3,0,0,0-.28.32v.8a.31.31,0,0,0,.28.33h1.47a.3.3,0,0,0,.28-.32v-.8A.3.3,0,0,0,264.85,227.33Z" id="SkYIK81jhnM"/><path d="M267.23,227.35l-1.47,0a.3.3,0,0,0-.28.32v.8a.31.31,0,0,0,.28.33h1.47a.3.3,0,0,0,.28-.32v-.8A.3.3,0,0,0,267.23,227.35Z" id="rk58KUkinhz"/><path d="M269.61,227.37l-1.47,0a.3.3,0,0,0-.28.32v.8a.32.32,0,0,0,.28.33h1.47a.3.3,0,0,0,.28-.32v-.8A.3.3,0,0,0,269.61,227.37Z" id="H1iLKLkinhG"/><path d="M272,227.38h-1.48a.3.3,0,0,0-.28.32v.8a.32.32,0,0,0,.28.33H272a.31.31,0,0,0,.29-.32v-.8A.31.31,0,0,0,272,227.38Z" id="HkhLt8kih2G"/><path d="M245.78,229.12h-1.47a.3.3,0,0,0-.28.32v.8a.3.3,0,0,0,.28.32h1.47a.3.3,0,0,0,.28-.31v-.81A.31.31,0,0,0,245.78,229.12Z" id="BJTIFLyin2G"/><path d="M248.16,229.14h-1.47a.3.3,0,0,0-.28.32v.8a.3.3,0,0,0,.28.32h1.47a.3.3,0,0,0,.28-.32v-.8A.3.3,0,0,0,248.16,229.14Z" id="r1AIt8Js2nM"/><path d="M250.54,229.16h-1.47a.3.3,0,0,0-.28.32v.8a.31.31,0,0,0,.28.32h1.47a.3.3,0,0,0,.28-.32v-.8A.3.3,0,0,0,250.54,229.16Z" id="rJkwtU1i32f"/><path d="M252.92,229.18h-1.47a.3.3,0,0,0-.28.32v.8a.31.31,0,0,0,.28.32h1.47a.31.31,0,0,0,.29-.32v-.8A.3.3,0,0,0,252.92,229.18Z" id="rylvY8Ji32z"/><path d="M255.31,229.2h-1.47a.3.3,0,0,0-.29.32v.8a.3.3,0,0,0,.27.32h1.47a.3.3,0,0,0,.29-.32v-.8A.3.3,0,0,0,255.31,229.2Z" id="SkWvKIyi3nM"/><path d="M257.69,229.22h-1.47a.31.31,0,0,0-.29.31v.81a.3.3,0,0,0,.28.32h1.47a.3.3,0,0,0,.28-.32v-.8A.3.3,0,0,0,257.69,229.22Z" id="Bkzvt8kih3f"/><path d="M260.07,229.24H258.6a.29.29,0,0,0-.28.31v.81a.3.3,0,0,0,.28.32h1.47a.3.3,0,0,0,.28-.32v-.8A.3.3,0,0,0,260.07,229.24Z" id="HymPK8kshhG"/><path d="M262.45,229.26H261a.29.29,0,0,0-.28.31v.81a.3.3,0,0,0,.28.32h1.47a.3.3,0,0,0,.28-.32v-.8A.3.3,0,0,0,262.45,229.26Z" id="B1VvKIJs33G"/><path d="M264.83,229.28h-1.47a.29.29,0,0,0-.28.31v.81a.31.31,0,0,0,.28.32h1.47a.3.3,0,0,0,.28-.32v-.8A.3.3,0,0,0,264.83,229.28Z" id="H1BvtI1i3hM"/><path d="M267.22,229.3h-1.48a.29.29,0,0,0-.28.31v.8a.3.3,0,0,0,.27.33h1.47a.3.3,0,0,0,.29-.32v-.8A.3.3,0,0,0,267.22,229.3Z" id="ByIvYUJin2z"/><path d="M269.6,229.32l-1.47,0a.31.31,0,0,0-.29.32v.8a.31.31,0,0,0,.27.33h1.48a.3.3,0,0,0,.28-.32v-.8A.3.3,0,0,0,269.6,229.32Z" id="rkDDKL1j32f"/><path d="M272,229.34l-1.47,0a.3.3,0,0,0-.28.32v.8a.31.31,0,0,0,.28.33H272a.3.3,0,0,0,.28-.32v-.8A.3.3,0,0,0,272,229.34Z" id="r1_vKU1onnf"/><path d="M248.15,231.09h-1.48a.3.3,0,0,0-.28.32v.8a.3.3,0,0,0,.28.32h1.47a.3.3,0,0,0,.29-.31v-.8A.31.31,0,0,0,248.15,231.09Z" id="HJFwFUks32f"/><path d="M250.53,231.11h-1.47a.3.3,0,0,0-.29.32v.8a.29.29,0,0,0,.27.32h1.48a.29.29,0,0,0,.28-.31v-.81A.3.3,0,0,0,250.53,231.11Z" id="HJ9vF8Jsh3M"/><path d="M252.91,231.13h-1.47a.31.31,0,0,0-.29.32v.8a.3.3,0,0,0,.28.32h1.47a.29.29,0,0,0,.28-.31v-.81A.31.31,0,0,0,252.91,231.13Z" id="SkiDFLysn2z"/><path d="M255.29,231.15h-1.47a.3.3,0,0,0-.28.32v.8a.3.3,0,0,0,.28.32h1.47a.3.3,0,0,0,.28-.31v-.81A.3.3,0,0,0,255.29,231.15Z" id="rJ3DK8ko23z"/><path d="M257.67,231.17H256.2a.3.3,0,0,0-.28.32v.8a.3.3,0,0,0,.28.32h1.47a.3.3,0,0,0,.28-.32v-.8A.3.3,0,0,0,257.67,231.17Z" id="r1TPF81oh2z"/><path d="M260.05,231.19h-1.47a.3.3,0,0,0-.28.32v.8a.31.31,0,0,0,.28.32H260a.31.31,0,0,0,.29-.32v-.8A.3.3,0,0,0,260.05,231.19Z" id="Bk0vFIJs33G"/><path d="M262.44,231.21H261a.3.3,0,0,0-.28.32v.8a.3.3,0,0,0,.27.32h1.47a.3.3,0,0,0,.29-.32v-.8A.3.3,0,0,0,262.44,231.21Z" id="B1JdKL1in3G"/><path d="M264.82,231.23h-1.47a.31.31,0,0,0-.29.32v.8a.3.3,0,0,0,.27.32h1.48a.3.3,0,0,0,.28-.32v-.8A.31.31,0,0,0,264.82,231.23Z" id="S1xdtLko22G"/><path d="M267.2,231.25h-1.47a.3.3,0,0,0-.28.32v.8a.3.3,0,0,0,.28.32h1.47a.3.3,0,0,0,.28-.32v-.8A.3.3,0,0,0,267.2,231.25Z" id="Sy-_K8yj2nM"/><path d="M269.58,231.27h-1.47a.3.3,0,0,0-.28.31v.81a.3.3,0,0,0,.28.32h1.47a.3.3,0,0,0,.28-.32v-.8A.3.3,0,0,0,269.58,231.27Z" id="SyG_YUJj23f"/><path d="M250.51,233.06H249a.3.3,0,0,0-.28.32v.8a.3.3,0,0,0,.28.32l1.47,0a.31.31,0,0,0,.28-.32v-.8A.31.31,0,0,0,250.51,233.06Z" id="HJmOtI1j22G"/><path d="M252.89,233.08h-1.47a.3.3,0,0,0-.28.32v.8a.3.3,0,0,0,.28.32l1.47,0a.3.3,0,0,0,.28-.32v-.8A.31.31,0,0,0,252.89,233.08Z" id="SkNOFLksnnM"/><path d="M255.27,233.1H253.8a.3.3,0,0,0-.28.32v.8a.3.3,0,0,0,.28.32l1.47,0a.32.32,0,0,0,.29-.32v-.8A.31.31,0,0,0,255.27,233.1Z" id="SJS_tU1i33f"/><path d="M257.66,233.12h-1.47a.3.3,0,0,0-.29.32v.8a.29.29,0,0,0,.27.32h1.47a.3.3,0,0,0,.29-.31v-.8A.3.3,0,0,0,257.66,233.12Z" id="Sy8uYU1j3hM"/><path d="M260,233.14h-1.47a.31.31,0,0,0-.29.32v.8a.3.3,0,0,0,.28.32H260a.29.29,0,0,0,.28-.31v-.81A.31.31,0,0,0,260,233.14Z" id="HyvutIysn3G"/><path d="M262.42,233.16H261a.3.3,0,0,0-.28.32v.8a.3.3,0,0,0,.28.32h1.47a.29.29,0,0,0,.28-.31v-.81A.31.31,0,0,0,262.42,233.16Z" id="Hy__Y8kj3nz"/><path d="M264.8,233.18h-1.47a.3.3,0,0,0-.28.32v.8a.3.3,0,0,0,.28.32h1.47a.3.3,0,0,0,.28-.31v-.81A.3.3,0,0,0,264.8,233.18Z" id="rktdK8ks23G"/><path d="M267.18,233.2h-1.47a.3.3,0,0,0-.28.32v.8a.3.3,0,0,0,.28.32h1.47a.3.3,0,0,0,.28-.32v-.8A.3.3,0,0,0,267.18,233.2Z" id="rkcdY81in3G"/><rect x="116.12" y="112.72" width="13.53" height="13.53" rx="4.56" ry="4.56" id="Byo_KLJinnM"/><ellipse cx="99.99" cy="143.96" rx="27.13" ry="5.45" id="BJ2uFIJjn3M"/><path d="M125.91,118.35l-5-2.25a7.53,7.53,0,0,0-10,3.74L88.76,168.66a7.53,7.53,0,0,0,3.75,10l4.95,2.26a8,8,0,0,0,.89.33l28.39-62.43A7.31,7.31,0,0,0,125.91,118.35Z" id="S1adtUyj23f"/><path d="M126.74,118.8,98.35,181.23a7.53,7.53,0,0,0,9.1-4.07l22.2-48.82A7.53,7.53,0,0,0,126.74,118.8Z" id="Sk0dYIyoh2f"/><g id="BJkttL1o3nG"><g id="HyltFUyj3nG"><path d="M183.53,167.25c-9.29-1.55-15.71-11.28-14.33-21.73s10-17.66,19.33-16.12,15.71,11.28,14.34,21.73-10,17.66-19.34,16.12" id="H1bYt8yj23G"/></g></g>

<rect x="159.02" y="108.42" width="92.68" height="1.92" id="HyGKYU1i3nf">

  <animate xmlns="http://www.w3.org/2000/svg" dur="4s" attributeName="height" repeatCount="indefinite" values="1; 1; 1; 1; 75; 1; 0" keyTimes="0; 0.25; 0.5; 0.85; 0.9; 0.95; 1"/>

</rect>


<path d="M249.34,196.85h57.82s2.2-46.32-35.68-78.88c0,0-26.46-24.67-65.44-24.67,0,0,38.65,29.49,43.3,50.91a53.45,53.45,0,0,1,0,30.85Z" id="rJQtYL1s32M"/><path d="M171.09,82.25a103.39,103.39,0,0,1,34.08-5.31h.13a103.33,103.33,0,0,1,34.07,5.31c21.38,7.24,38.68,21.45,51.45,42.23l5.38-1.84c-13.47-22.2-31.88-37.33-54.72-45a110.09,110.09,0,0,0-35.79-5.51h-.15a110.09,110.09,0,0,0-35.79,5.51c-22.83,7.66-41.25,22.79-54.72,45l4.75,1.63C132.54,103.6,149.79,89.47,171.09,82.25Z" id="S14KKL1jhnz"/><path d="M205.54,79.51h.15c24.86-.17,58.46,7.95,81.65,46.16l3.48-1.19c-12.77-20.78-30.07-35-51.45-42.23a103.33,103.33,0,0,0-34.07-5.31h-.13a103.39,103.39,0,0,0-34.08,5.31c-21.3,7.22-38.55,21.35-51.31,42l4.11,1.4C147.08,87.46,180.68,79.34,205.54,79.51Z" id="HyHFY8ys33G"/><rect x="281.7" y="112.72" width="13.53" height="13.53" rx="4.56" ry="4.56" id="r18KY8Ji2nz"/><path d="M309.63,124.63l3.06,7.81a10.14,10.14,0,0,1,13.12,5.75,10.13,10.13,0,0,1-5.75,13.12l3.06,7.81a18.52,18.52,0,0,0-13.49-34.49Z" id="r1wYtL1j2hz"/><path d="M313.21,125.6a.6.6,0,0,0,0,.19.84.84,0,0,0,.93.73c13.41-1.63,16.15,8.79,16.26,9.24a.83.83,0,0,0,1,.61.86.86,0,0,0,.62-1c0-.12-3.23-12.31-18.09-10.5A.85.85,0,0,0,313.21,125.6Z" id="Hy_YYU1sh3M"/><ellipse cx="311.61" cy="143.96" rx="5.45" ry="27.13" id="B1tYYIyinhM"/><path d="M285.7,118.35l5-2.25a7.53,7.53,0,0,1,10,3.74l22.21,48.82a7.54,7.54,0,0,1-3.75,10l-5,2.26a7.2,7.2,0,0,1-.88.33L284.87,118.8A7.31,7.31,0,0,1,285.7,118.35Z" id="S15YK8Jshnf"/><path d="M284.87,118.8l28.39,62.43a7.53,7.53,0,0,1-9.1-4.07L282,128.34A7.52,7.52,0,0,1,284.87,118.8Z" id="ByjYtIkih3z"/></g></g></svg>
