<svg xmlns="http://www.w3.org/2000/svg" xmlns:xlink="http://www.w3.org/1999/xlink" viewBox="0 0 400 340" id="SkFSQtu23z"><style>@-webkit-keyframes r1y7SXK_hhG_ryTXF_n3G_Animation{0%{-webkit-transform: translate(0px, 0px);transform: translate(0px, 0px);}50%{-webkit-transform: translate(0px, 15px);transform: translate(0px, 15px);}100%{-webkit-transform: translate(0px, 0px);transform: translate(0px, 0px);}}@keyframes r1y7SXK_hhG_ryTXF_n3G_Animation{0%{-webkit-transform: translate(0px, 0px);transform: translate(0px, 0px);}50%{-webkit-transform: translate(0px, 15px);transform: translate(0px, 15px);}100%{-webkit-transform: translate(0px, 0px);transform: translate(0px, 0px);}}#SkFSQtu23z *{-webkit-animation-duration: 3s;animation-duration: 3s;-webkit-animation-iteration-count: infinite;animation-iteration-count: infinite;-webkit-animation-timing-function: cubic-bezier(0, 0, 1, 1);animation-timing-function: cubic-bezier(0, 0, 1, 1);}#rycBmYd3hz{isolation: isolate;}#Hy2BmYOnhz{fill: #a7a6a6;-webkit-transform:  translate(-13.72px, 6.08px) rotate(-6.41deg);transform:  translate(-13.72px, 6.08px) rotate(-6.41deg);}#HJ6BXKO2nz{fill: #a7a6a6;-webkit-transform:  translate(-100.18px, 94.89px) rotate(-45.56deg);transform:  translate(-100.18px, 94.89px) rotate(-45.56deg);}#r10HmtO23z{fill: #575756;}#SkyeSmt_3nf{fill: #868686;}#r1xlSmtO2hf{fill: #cfcfcf;}#HyWlHXYO32z{fill: #a7a6a6;}#HyfgHmt_hnz{fill: #cfcfcf;}#HkQxSXFOn2z{fill: #575756;}#H1VeS7KO23f{fill: #a7a6a6;}#HyrxB7Y_n2z{fill: #a7a6a6;}#Hy8eH7t_hnM{fill: #a7a6a6;-webkit-transform:  translate(180.33px, 512.76px) rotate(-89.05deg);transform:  translate(180.33px, 512.76px) rotate(-89.05deg);}#HkPxB7tO2hf{fill: #575756;}#rkugBQYu32f{fill: #a7a6a6;}#r1YxrmYdnhf{fill: #575756;}#rk9eS7Y_hhf{fill: #868686;}#H1olBmFuhnz{fill: #a7a6a6;}#Sk2gBmKOn2f{fill: #a7a6a6;}#BJpxHQFOh3G{fill: #a7a6a6;}#BkCgH7KO23G{fill: #cfcfcf;}#SJkZS7t_2nM{fill: #cfcfcf;}#ByeWBXtuh3z{fill: none;stroke: #a7a6a6;stroke-miterlimit: 10;stroke-width: 4px;}#rybbrXYd32G{fill: #575756;}#ByzbBXtdh2M{fill: #868686;}#ByXZrmt_3hM{fill: none;stroke: #a7a6a6;stroke-miterlimit: 10;stroke-width: 4px;}#HyNZHmK_22M{fill: #e3032e;}#Hyr-B7F_2hz{fill: #575756;}#BkIZH7K_h2G{fill: #575756;}#SkvbrQKd22z{opacity: 0.4;mix-blend-mode: multiply;}#Hy_WSQFO23z{-webkit-clip-path: url(#clip-path);clip-path: url(#clip-path);}#SyYbHXY_nnG{fill: #575756;}#Hk5Zr7tOn2f{fill: #575756;}#SkiZSQFuhhf{opacity: 0.4;mix-blend-mode: multiply;}#Sk2WSmK_33G{-webkit-clip-path: url(#clip-path-2);clip-path: url(#clip-path-2);}#r1a-rmFO32M{fill: #575756;}#Bk0brQK_nhz{fill: none;stroke: #a7a6a6;stroke-miterlimit: 10;stroke-width: 0.75px;}#SykMr7Kdn3f{fill: none;stroke: #a7a6a6;stroke-miterlimit: 10;stroke-width: 0.75px;}#SygGr7Kd2nz{fill: none;stroke: #a7a6a6;stroke-miterlimit: 10;stroke-width: 0.75px;}#SkZzBmtd23z{fill: none;stroke: #a7a6a6;stroke-miterlimit: 10;stroke-width: 0.75px;}#BJzfBXFO3nG{fill: none;stroke: #a7a6a6;stroke-miterlimit: 10;stroke-width: 0.75px;}#SkXMr7Yunnz{fill: none;stroke: #a7a6a6;stroke-miterlimit: 10;stroke-width: 0.75px;}#SJVGrXtOnhz{fill: none;stroke: #a7a6a6;stroke-miterlimit: 10;stroke-width: 0.75px;}#H1HGrmKdn2G{fill: none;stroke: #a7a6a6;stroke-miterlimit: 10;stroke-width: 0.75px;}#ByIMrQYd22G{fill: none;stroke: #a7a6a6;stroke-miterlimit: 10;stroke-width: 0.75px;}#HJvzH7YO32z{fill: none;stroke: #a7a6a6;stroke-miterlimit: 10;stroke-width: 0.75px;}#H1_Grmt_2hf{fill: none;stroke: #a7a6a6;stroke-miterlimit: 10;stroke-width: 0.75px;}#r1tzBXKu22z{opacity: 0.4;mix-blend-mode: multiply;}#rycMH7F_3nf{-webkit-clip-path: url(#clip-path-3);clip-path: url(#clip-path-3);}#HyiGHXYu3nf{fill: #575756;}#HynzSQFd3nf{fill: #575756;}#rkpfr7Ku2nM{fill: #868686;}#BJRfBQFunhM{fill: #fff;}#r1y7SXK_hhG{fill: #1d1d1b;}#HJx7B7Kuhnz{fill: #fff;}#HJZ7BXtdh2M{opacity: 0.1;}#rJMQBQt_h3G{-webkit-clip-path: url(#clip-path-4);clip-path: url(#clip-path-4);}#Bk7QHXF_hnf{fill: #fff;}#r1EQSQK_nnf{fill: #e3032e;-webkit-transform:  translate(385.06px, 204.31px) rotate(180deg);transform:  translate(385.06px, 204.31px) rotate(180deg);}#SJHQSmF_hhM{fill: #575756;mix-blend-mode: multiply;opacity: 0.2;}#r1y7SXK_hhG_ryTXF_n3G{-webkit-animation-name: r1y7SXK_hhG_ryTXF_n3G_Animation;animation-name: r1y7SXK_hhG_ryTXF_n3G_Animation;-webkit-transform-origin: 50% 50%;transform-origin: 50% 50%;transform-box: fill-box;-webkit-transform: translate(0px, 0px);transform: translate(0px, 0px);}</style><defs><clipPath id="clip-path"><rect class="cls-1" x="141.56" y="317.67" width="38.11" height="22.66"/></clipPath><clipPath id="clip-path-2"><rect class="cls-1" x="239.74" y="317.67" width="38.12" height="22.66"/></clipPath><clipPath id="clip-path-3"><rect class="cls-1" x="239.39" y="181.36" width="62.01" height="64.81"/></clipPath><clipPath id="clip-path-4"><rect class="cls-1" x="156.44" y="112.47" width="34.04" height="38.26"/></clipPath></defs><title>Tekengebied 3</title><g id="rycBmYd3hz"><g id="SkiS7Yu2nG" data-name="Laag 1"><rect x="42.95" y="98.85" width="8.94" height="53.6" id="Hy2BmYOnhz"/><rect x="58.42" y="151.3" width="8.94" height="30.85" id="HJ6BXKO2nz"/><path d="M44.91,149.81a9.83,9.83,0,1,0,13.9-.13,9.83,9.83,0,0,0-13.9.13" id="r10HmtO23z"/><path d="M47.73,149.25a5.77,5.77,0,1,0,8.16-.08,5.78,5.78,0,0,0-8.16.08" id="SkyeSmt_3nf"/><path d="M47.67,103.37a.9.9,0,0,0-.79,1L51,141a.9.9,0,1,0,1.78-.2l-4.11-36.66a.9.9,0,0,0-1-.79" id="r1xlSmtO2hf"/><path d="M70.5,96.38l-7.94-4.11a10.81,10.81,0,1,1-19.2-9.93l-7.93-4.11A19.74,19.74,0,0,0,70.5,96.38" id="HyWlHXYO32z"/><path d="M67.39,98.72a.67.67,0,0,0-.14-.15.89.89,0,0,0-1.26.07c-9.6,10.74-19.13,4.31-19.53,4a.89.89,0,0,0-1,1.47c.11.08,11.25,7.6,21.88-4.31a.89.89,0,0,0,.07-1.11" id="HyfgHmt_hnz"/><path d="M90.24,167.23a28.09,28.09,0,0,0,0,56.17Z" id="HkQxSXFOn2z"/><path d="M67.2,199.09A1.79,1.79,0,0,0,69,197.3c0-20.45,16.43-22.57,17.13-22.65a1.79,1.79,0,0,0,1.58-2,1.8,1.8,0,0,0-2-1.58c-.2,0-20.32,2.47-20.32,26.2a1.79,1.79,0,0,0,1.79,1.79" id="H1VeS7KO23f"/><path d="M67.2,204.14a1.61,1.61,0,1,0,1.61-1.61,1.6,1.6,0,0,0-1.61,1.61" id="HyrxB7Y_n2z"/><rect x="324.04" y="160.16" width="53.61" height="9.08" id="Hy8eH7t_hnM"/><path d="M291.45,164.47a28.08,28.08,0,0,1,0,56.16Z" id="HkPxB7tO2hf"/><rect x="319.53" y="188.08" width="30.85" height="8.94" id="rkugBQYu32f"/><path d="M359.63,193.06a9.83,9.83,0,1,1-9.83-9.83,9.83,9.83,0,0,1,9.83,9.83" id="r1YxrmYdnhf"/><path d="M358,190.69a5.77,5.77,0,1,1-5.77-5.77,5.78,5.78,0,0,1,5.77,5.77" id="rk9eS7Y_hhf"/><path d="M363.41,113.73l-8.14,4a10.74,10.74,0,0,1-5,14.47,11.07,11.07,0,0,1-8.38.54,10.87,10.87,0,0,1-6.32-5.46l-8.14,4a19.8,19.8,0,0,0,11.55,10,20.21,20.21,0,0,0,15.32-1,19.66,19.66,0,0,0,10.11-11.37,19.26,19.26,0,0,0-1-15.08" id="H1olBmFuhnz"/><path d="M314.49,196.32a1.79,1.79,0,0,1-1.79-1.79c0-20.45-16.43-22.56-17.13-22.64a1.79,1.79,0,0,1,.39-3.56c.2,0,20.32,2.48,20.32,26.2a1.79,1.79,0,0,1-1.79,1.79" id="Sk2gBmKOn2f"/><path d="M314.49,201.37a1.61,1.61,0,1,1-1.61-1.61,1.61,1.61,0,0,1,1.61,1.61" id="BJpxHQFOh3G"/><path d="M354,142.64a.9.9,0,0,0-.92.88l-.61,36.88a.91.91,0,0,0,1.81,0l.61-36.88a.9.9,0,0,0-.89-.91" id="BkCgH7KO23G"/><path d="M363.45,117.62l-.2,0a.9.9,0,0,0-.71,1.06c3,14.1-8,18-8.46,18.11a.89.89,0,0,0-.56,1.14.92.92,0,0,0,1.15.56c.13,0,13-4.55,9.65-20.18a.92.92,0,0,0-.87-.71" id="SJkZS7t_2nM"/><line x1="239.39" y1="232.63" x2="239.39" y2="319.04" id="ByeWBXtuh3z"/><path d="M249.73,271.47a10.34,10.34,0,1,1-10.34-10.34,10.33,10.33,0,0,1,10.34,10.34" id="rybbrXYd32G"/><path d="M248,269A6.07,6.07,0,1,1,242,262.9,6.07,6.07,0,0,1,248,269" id="ByzbBXtdh2M"/><line x1="143.27" y1="232.63" x2="143.27" y2="319.04" id="ByXZrmt_3hM"/><path d="M301.41,190.58a108.47,108.47,0,1,0-216.93,0Z" id="HyNZHmK_22M"/><rect x="84.48" y="181.36" width="216.92" height="64.81" id="Hyr-B7F_2hz"/><path d="M179.67,340.33c0-12.52-17.06-22.66-38.11-22.66s-38.12,10.14-38.12,22.66Z" id="BkIZH7K_h2G"/><g id="SkvbrQKd22z"><g id="Hy_WSQFO23z"><path d="M179.67,340.33c0-12.52-17.06-22.66-38.11-22.66,0,0,19.93,3.35,16.57,22.66Z" id="SyYbHXY_nnG"/></g></g><path d="M277.85,340.33c0-12.52-17.06-22.66-38.11-22.66s-38.12,10.14-38.12,22.66Z" id="Hk5Zr7tOn2f"/><g id="SkiZSQFuhhf"><g id="Sk2WSmK_33G"><path d="M277.85,340.33c0-12.52-17.06-22.66-38.11-22.66,0,0,19.93,3.35,16.57,22.66Z" id="r1a-rmFO32M"/></g></g><line x1="85.77" y1="236.96" x2="300.98" y2="236.96" id="Bk0brQK_nhz"/><line x1="85.77" y1="242.27" x2="300.98" y2="242.27" id="SykMr7Kdn3f"/><line x1="85.77" y1="231.41" x2="300.98" y2="231.41" id="SygGr7Kd2nz"/><line x1="85.77" y1="225.86" x2="300.98" y2="225.86" id="SkZzBmtd23z"/><line x1="85.77" y1="215.69" x2="300.98" y2="215.69" id="BJzfBXFO3nG"/><line x1="85.77" y1="210.64" x2="300.98" y2="210.64" id="SkXMr7Yunnz"/><line x1="85.34" y1="205.74" x2="300.55" y2="205.74" id="SJVGrXtOnhz"/><line x1="85.77" y1="199.76" x2="300.98" y2="199.76" id="H1HGrmKdn2G"/><line x1="85.77" y1="193.55" x2="300.98" y2="193.55" id="ByIMrQYd22G"/><line x1="85.77" y1="187.46" x2="300.98" y2="187.46" id="HJvzH7YO32z"/><line x1="85.77" y1="220.77" x2="300.98" y2="220.77" id="H1_Grmt_2hf"/><g id="r1tzBXKu22z"><g id="rycMH7F_3nf"><polygon points="239.4 182.6 239.4 246.17 301.41 246.17 301.41 181.36 239.4 182.6" id="HyiGHXYu3nf"/></g></g><path d="M153.61,271.47a10.34,10.34,0,1,1-10.34-10.34,10.33,10.33,0,0,1,10.34,10.34" id="HynzSQFd3nf"/><path d="M151.91,269a6.07,6.07,0,1,1-6.07-6.07,6.07,6.07,0,0,1,6.07,6.07" id="rkpfr7Ku2nM"/><path d="M241.79,153.69a49.26,49.26,0,1,1-49.26-49.26,49.25,49.25,0,0,1,49.26,49.26" id="BJRfBQFunhM"/><g id="r1y7SXK_hhG_ryTXF_n3G" data-animator-group="true" data-animator-type="0"><path d="M217.58,147.76a29.82,29.82,0,1,1-29.82-29.83,29.82,29.82,0,0,1,29.82,29.83" id="r1y7SXK_hhG"/></g><path d="M217.9,160.21a7.63,7.63,0,1,1-7.62-7.62,7.63,7.63,0,0,1,7.62,7.62" id="HJx7B7Kuhnz"/><g id="HJZ7BXtdh2M"><g id="rJMQBQt_h3G"><path d="M171,150.52c-9.3-1.55-15.72-11.28-14.34-21.73s10-17.66,19.33-16.11S191.67,124,190.29,134.4s-10,17.67-19.33,16.12" id="Bk7QHXF_hnf"/></g></g><rect x="143.27" y="100.95" width="98.52" height="2.42" id="r1EQSQK_nnf"/>

<style>
  #r1EQSQK_nnf{transform: none!important;}
</style>

<rect xmlns="http://www.w3.org/2000/svg" id="r1EQSQK_nnf" height="1" width="98.52" y="100.95" x="143.27">

        <animate xmlns="http://www.w3.org/2000/svg" dur="6s" attributeName="height" repeatCount="indefinite" values="1; 1; 1; 1; 75; 1; 0" keyTimes="0; 0.25; 0.5; 0.85; 0.9; 0.95; 1"/>

</rect>



<path d="M239.63,192.55h61.75s2.35-49.4-38.11-84.12c0,0-28.26-26.32-69.9-26.32,0,0,41.29,31.45,46.26,54.3a57,57,0,0,1,0,32.9Z" id="SJHQSmF_hhM"/></g></g></svg>
