<svg xmlns="http://www.w3.org/2000/svg" xmlns:xlink="http://www.w3.org/1999/xlink" viewBox="0 0 400 340" id="ryVrgFun2z"><style>@-webkit-keyframes B1KWHgYuh2z_HJTxKuhhz_Animation{0%{-webkit-transform: translate(0px, 0px);transform: translate(0px, 0px);}50%{-webkit-transform: translate(0px, 15px);transform: translate(0px, 15px);}100%{-webkit-transform: translate(0px, 0px);transform: translate(0px, 0px);}}@keyframes B1KWHgYuh2z_HJTxKuhhz_Animation{0%{-webkit-transform: translate(0px, 0px);transform: translate(0px, 0px);}50%{-webkit-transform: translate(0px, 15px);transform: translate(0px, 15px);}100%{-webkit-transform: translate(0px, 0px);transform: translate(0px, 0px);}}#ryVrgFun2z *{-webkit-animation-duration: 3s;animation-duration: 3s;-webkit-animation-iteration-count: infinite;animation-iteration-count: infinite;-webkit-animation-timing-function: cubic-bezier(0, 0, 1, 1);animation-timing-function: cubic-bezier(0, 0, 1, 1);}#r1HSgKdnnf{isolation: isolate;}#rkDHlKO3nf{fill: #a7a6a6;}#H1dBxYd32M{fill: #a7a6a6;}#rkFSxF_h2f{fill: #cfcfcf;}#rycrltu33f{fill: #cfcfcf;}#HJsBxF_n2G{fill: #a7a6a6;}#rJnSeKu23f{fill: #575756;}#Syprgtd23M{fill: #a7a6a6;}#HyArlKOhnz{fill: #a7a6a6;}#BkklBgtuhnf{fill: #575756;}#BkgxHgYd2hz{fill: #868686;}#SkWgrltd32z{fill: #cfcfcf;}#SJzxreK_n2f{fill: #a7a6a6;}#H1XxrxK_hnM{fill: #cfcfcf;}#Hy4gSltdhhG{fill: #575756;}#S1SlHgYdh3f{fill: #a7a6a6;}#rJLeSxK_23z{fill: #a7a6a6;}#SJwerlY_n2f{fill: #575756;}#r1OgBlK_h3G{fill: #a7a6a6;}#B1FxBlF_3nz{fill: #a7a6a6;}#Sk5erlt_h2f{fill: none;stroke: #a7a6a6;stroke-miterlimit: 10;stroke-width: 4px;}#SkigSltO2hG{fill: #575756;}#SJhxHgKOnnM{fill: #868686;}#Sk6lSgKOnhG{fill: none;stroke: #a7a6a6;stroke-miterlimit: 10;stroke-width: 4px;}#SJRgBeYd22M{fill: #e3032e;}#rJJWBgt_3nM{fill: #575756;}#rygZBeKO32G{fill: #575756;}#HkWWrlKdnhM{opacity: 0.4;mix-blend-mode: multiply;}#r1fbrxtd3hG{-webkit-clip-path: url(#clip-path);clip-path: url(#clip-path);}#SyQ-SlYO33f{fill: #575756;}#HJEZrgtdn2f{fill: #575756;}#ByrWSxK_nhG{opacity: 0.4;mix-blend-mode: multiply;}#HyUZrxK_32M{-webkit-clip-path: url(#clip-path-2);clip-path: url(#clip-path-2);}#BJvWreKOh2z{fill: #575756;}#HJOWHltu3nM{fill: #fff;}#B1KWHgYuh2z{fill: #1d1d1b;}#r1c-BeFOnhf{fill: #fff;}#B1sZretu2nG{fill: none;stroke: #a7a6a6;stroke-miterlimit: 10;stroke-width: 0.75px;}#HynZreFOhhf{fill: none;stroke: #a7a6a6;stroke-miterlimit: 10;stroke-width: 0.75px;}#rypbBlK_n2z{fill: none;stroke: #a7a6a6;stroke-miterlimit: 10;stroke-width: 0.75px;}#H1AWSlKu22f{opacity: 0.4;mix-blend-mode: multiply;}#BJkfBxFOn2M{-webkit-clip-path: url(#clip-path-3);clip-path: url(#clip-path-3);}#r1gGBxKd3nz{fill: #575756;}#SyWGSeYdnnG{fill: #575756;}#r1GzSxKO23z{fill: #868686;}#Hk7MBlY_nnf{opacity: 0.1;}#ryNfreFdn2z{-webkit-clip-path: url(#clip-path-4);clip-path: url(#clip-path-4);}#BJSMreFu3nM{fill: #fff;}#ByLzHgYuhnz{fill: #e3032e;}#B1PGHgFdnhz{fill: #575756;mix-blend-mode: multiply;opacity: 0.2;}#B1KWHgYuh2z_HJTxKuhhz{-webkit-animation-name: B1KWHgYuh2z_HJTxKuhhz_Animation;animation-name: B1KWHgYuh2z_HJTxKuhhz_Animation;-webkit-transform-origin: 50% 50%;transform-origin: 50% 50%;transform-box: fill-box;-webkit-transform: translate(0px, 0px);transform: translate(0px, 0px);}</style><defs><clipPath id="clip-path"><rect class="cls-1" x="160.4" y="306.67" width="30.86" height="33.75"/></clipPath><clipPath id="clip-path-2"><rect class="cls-1" x="239.89" y="306.67" width="30.86" height="33.75"/></clipPath><clipPath id="clip-path-3"><rect class="cls-1" x="239.61" y="206.69" width="50.21" height="50.36"/></clipPath><clipPath id="clip-path-4"><rect class="cls-1" x="170.16" y="137.56" width="34.04" height="38.26"/></clipPath></defs><title>Tekengebied 2</title><g id="r1HSgKdnnf"><g id="ByUSeYu33z" data-name="Laag 1"><polygon points="312.54 266.92 305.72 264.27 320.28 219.55 327.1 222.21 312.54 266.92" id="rkDHlKO3nf"/><path d="M311.31,289.35l-5-5.77a10.23,10.23,0,0,0,.39-13.53,8.36,8.36,0,0,0-6.1-3,8.27,8.27,0,0,0-6.26,2.58l-5-5.77a15.06,15.06,0,0,1,22.6.78,18.68,18.68,0,0,1-.71,24.72" id="H1dBxYd32M"/><path d="M312.49,262.5a.81.81,0,0,1-.44-1l10-30.78a.71.71,0,0,1,.92-.48.81.81,0,0,1,.44,1l-10,30.77a.71.71,0,0,1-.92.48" id="rkFSxF_h2f"/><path d="M312.44,286.13l-.15-.07a.84.84,0,0,1-.22-1.1c6.25-10.76-.86-17.33-1.17-17.61a.84.84,0,0,1-.1-1.11.69.69,0,0,1,1-.11c.09.08,8.4,7.75,1.47,19.68a.68.68,0,0,1-.85.32" id="rycrltu33f"/><polygon points="325.86 219.5 301.21 215.1 302.37 207.29 327.02 211.68 325.86 219.5" id="HJsBxF_n2G"/><path d="M333.76,217.35c-.7,4.75-4.79,8-9.13,7.19s-7.28-5.24-6.57-10,4.79-8,9.13-7.18,7.28,5.24,6.57,10" id="rJnSeKu23f"/><polygon points="81.97 261.77 75.22 261.77 67.47 218.54 74.22 218.54 81.97 261.77" id="Syprgtd23M"/><polygon points="75.28 220.28 99.32 212.86 97.36 205.24 73.32 212.66 75.28 220.28" id="HyArlKOhnz"/><path d="M67.21,219.13c1.19,4.63,5.58,7.32,9.81,6s6.7-6.11,5.51-10.74-5.6-7.31-9.82-6-6.7,6.11-5.5,10.74" id="BkklBgtuhnf"/><path d="M68,216.72a4.63,4.63,0,0,0,5.76,3.53,5.2,5.2,0,0,0,3.23-6.31,4.64,4.64,0,0,0-5.77-3.53A5.19,5.19,0,0,0,68,216.72" id="BkgxHgYd2hz"/><path d="M80,258a.84.84,0,0,1-.8-.71l-5.34-29.75a.57.57,0,0,1,.54-.73.89.89,0,0,1,.81.72l5.33,29.76A.55.55,0,0,1,80,258" id="SkWgrltd32z"/><path d="M98.31,261.53l-4.88,4c-3.22-4-8.48-5.07-11.74-2.4a7.05,7.05,0,0,0-2.47,5.55,10.51,10.51,0,0,0,2.39,6.54l-4.88,4a19,19,0,0,1-4.37-12,12.85,12.85,0,0,1,4.51-10.13,12.59,12.59,0,0,1,10.75-2.38,18.69,18.69,0,0,1,10.69,6.76" id="SJzxreK_n2f"/><path d="M95.5,259.94a.52.52,0,0,1-.06.13.64.64,0,0,1-1,.06c-9.48-7.74-15-1.73-15.24-1.47a.66.66,0,0,1-1-.07.77.77,0,0,1-.12-1c.06-.07,6.52-7.1,17,1.49a.82.82,0,0,1,.3.88" id="H1XxrxK_hnM"/><path d="M118.85,187.15c-12.55,0-22.73,11.13-22.73,24.87s10.18,24.86,22.73,24.86Z" id="Hy4gSltdhhG"/><path d="M100.2,215.36a1.52,1.52,0,0,0,1.45-1.58c0-18.12,13.3-20,13.87-20.06a1.55,1.55,0,0,0,1.27-1.74,1.5,1.5,0,0,0-1.59-1.41c-.16,0-16.45,2.2-16.45,23.21a1.52,1.52,0,0,0,1.45,1.58" id="S1SlHgYdh3f"/><path d="M100.2,219.83a1.31,1.31,0,1,0,1.3-1.43,1.36,1.36,0,0,0-1.3,1.43" id="rJLeSxK_23z"/><path d="M281.76,184.7c12.55,0,22.73,11.14,22.73,24.87s-10.18,24.86-22.73,24.86Z" id="SJwerlY_n2f"/><path d="M300.41,212.91a1.52,1.52,0,0,1-1.45-1.58c0-18.12-13.3-20-13.87-20.06a1.55,1.55,0,0,1-1.27-1.75,1.49,1.49,0,0,1,1.59-1.39c.16,0,16.45,2.19,16.45,23.2a1.52,1.52,0,0,1-1.45,1.58" id="r1OgBlK_h3G"/><path d="M300.41,217.38a1.31,1.31,0,1,1-1.3-1.43,1.37,1.37,0,0,1,1.3,1.43" id="B1FxBlF_3nz"/><line x1="239.61" y1="245.05" x2="239.61" y2="310.04" id="Sk5erlt_h2f"/><path d="M248,279.44c0,5.06-3.75,9.16-8.37,9.16s-8.37-4.1-8.37-9.16,3.75-9.15,8.37-9.15,8.37,4.1,8.37,9.15" id="SkigSltO2hG"/><path d="M246.6,277.23a4.93,4.93,0,1,1-4.91-5.37,5.15,5.15,0,0,1,4.91,5.37" id="SJhxHgKOnnM"/><line x1="161.79" y1="245.05" x2="161.79" y2="310.04" id="Sk6lSgKOnhG"/><path d="M289.82,207.9c0-50.06-39.31-90.64-87.81-90.64s-87.82,40.58-87.82,90.64Z" id="SJRgBeYd22M"/><rect x="114.19" y="207.65" width="175.63" height="49.4" id="rJJWBgt_3nM"/><path d="M191.26,340.42c0-18.64-13.82-33.75-30.86-33.75s-30.86,15.11-30.86,33.75Z" id="rygZBeKO32G"/><g id="HkWWrlKdnhM"><g id="r1fbrxtd3hG"><path d="M191.26,340.42c0-18.64-13.82-33.75-30.86-33.75,0,0,16.14,5,13.41,33.75Z" id="SyQ-SlYO33f"/></g></g><path d="M270.75,340.42c0-18.64-13.82-33.75-30.86-33.75S209,321.78,209,340.42Z" id="HJEZrgtdn2f"/><g id="ByrWSxK_nhG"><g id="HyUZrxK_32M"><path d="M270.75,340.42c0-18.64-13.82-33.75-30.86-33.75,0,0,16.14,5,13.41,33.75Z" id="BJvWreKOh2z"/></g></g><path d="M241.56,175.16c0,24.09-17.86,43.62-39.89,43.62s-39.88-19.53-39.88-43.62,17.85-43.62,39.88-43.62,39.89,19.53,39.89,43.62" id="HJOWHltu3nM"/><g id="B1KWHgYuh2z_HJTxKuhhz" data-animator-group="true" data-animator-type="0"><path d="M226.23,175.63c0,14.56-10.79,26.37-24.1,26.37S178,190.19,178,175.63s10.79-26.36,24.11-26.36,24.1,11.8,24.1,26.36" id="B1KWHgYuh2z"/></g><path d="M226.5,186.64a6.19,6.19,0,1,1-12.33,0c0-3.72,2.76-6.74,6.16-6.74a6.47,6.47,0,0,1,6.17,6.74" id="r1c-BeFOnhf"/><line x1="115.23" y1="248.89" x2="289.47" y2="248.89" id="B1sZretu2nG"/><line x1="115.23" y1="243.97" x2="289.47" y2="243.97" id="HynZreFOhhf"/><line x1="115.23" y1="239.06" x2="289.47" y2="239.06" id="rypbBlK_n2z"/><g id="H1AWSlKu22f"><g id="BJkfBxFOn2M"><polygon points="239.61 207.65 239.61 257.05 289.82 257.05 289.82 206.69 239.61 207.65" id="r1gGBxKd3nz"/></g></g><path d="M170.16,279.44c0,5.06-3.75,9.16-8.37,9.16s-8.37-4.1-8.37-9.16,3.75-9.15,8.37-9.15,8.37,4.1,8.37,9.15" id="SyWGSeYdnnG"/><path d="M168.78,277.23a4.93,4.93,0,1,1-4.91-5.37,5.15,5.15,0,0,1,4.91,5.37" id="r1GzSxKO23z"/><g id="Hk7MBlY_nnf"><g id="ryNfreFdn2z"><path d="M184.68,175.61c-9.3-1.55-15.72-11.27-14.34-21.72s10-17.67,19.33-16.12S205.39,149.05,204,159.5s-10,17.66-19.33,16.11" id="BJSMreFu3nM"/></g></g><rect x="161.79" y="128.87" width="79.77" height="2.67" id="ByLzHgYuhnz"/>

<rect xmlns="http://www.w3.org/2000/svg" x="161.79" y="128.87" width="79.77" height="1" id="ByLzHgYuhnz">

    <animate xmlns="http://www.w3.org/2000/svg" dur="5s" attributeName="height" repeatCount="indefinite" values="1; 1; 1; 1; 75; 1; 0" keyTimes="0; 0.25; 0.5; 0.85; 0.9; 0.95; 1"/>

</rect>


<path d="M239.63,208.06H289.4s1.89-40.62-30.71-69.17c0,0-22.78-21.63-56.34-21.63,0,0,33.27,25.86,37.28,44.64a47.68,47.68,0,0,1,0,27.06Z" id="B1PGHgFdnhz"/></g></g></svg>
