<svg xmlns="http://www.w3.org/2000/svg" xmlns:xlink="http://www.w3.org/1999/xlink" viewBox="0 0 400 336" id="HybbUgC3f"><style>@-webkit-keyframes rJHW-ZIx0hf_rJ1MIlR2G_Animation{0%{-webkit-transform: translate(0px, 0px);transform: translate(0px, 0px);}50%{-webkit-transform: translate(0px, 8px);transform: translate(0px, 8px);}100%{-webkit-transform: translate(0px, 0px);transform: translate(0px, 0px);}}@keyframes rJHW-ZIx0hf_rJ1MIlR2G_Animation{0%{-webkit-transform: translate(0px, 0px);transform: translate(0px, 0px);}50%{-webkit-transform: translate(0px, 8px);transform: translate(0px, 8px);}100%{-webkit-transform: translate(0px, 0px);transform: translate(0px, 0px);}}#HybbUgC3f *{-webkit-animation-duration: 3s;animation-duration: 3s;-webkit-animation-iteration-count: infinite;animation-iteration-count: infinite;-webkit-animation-timing-function: cubic-bezier(0, 0, 1, 1);animation-timing-function: cubic-bezier(0, 0, 1, 1);}#ByeZZLeC3G{isolation: isolate;}#ByGWWUg02M{fill: #a7a6a6;}#BkXZZIlC3G{fill: #a7a6a6;}#BJE-ZLxAnf{fill: #575756;}#r1BbWIeCnG{fill: #868686;}#HyUZWIxR2M{fill: #cfcfcf;}#HJvW-Ue0nf{fill: #a7a6a6;}#SJd--UgCnf{fill: #cfcfcf;}#ByKbZLxRnM{fill: #a7a6a6;}#H1c-bIeRhf{fill: #a7a6a6;}#S1jW-Ug0nM{fill: #575756;}#rkhb-UlR3f{fill: #868686;}#HJ6Z-LxCnG{fill: #cfcfcf;}#ryA--LgC3f{fill: #a7a6a6;}#S1Jl-Z8x0nM{fill: #cfcfcf;}#B1gxb-IlAhM{fill: #575756;}#HJbeZbLgChG{fill: #a7a6a6;}#Skfl--Ux03M{fill: #a7a6a6;}#rkXeZZLgAhf{fill: #575756;}#HJExbZIg02G{fill: #a7a6a6;}#BySxWWUeRnz{fill: #a7a6a6;}#BJUlbWUgRhf{fill: none;stroke: #a7a6a6;stroke-miterlimit: 10;stroke-width: 4px;}#SkPxW-8eCnG{fill: #575756;}#HyuxW-8lChM{fill: #868686;}#SyYlWWIx0nf{fill: none;stroke: #a7a6a6;stroke-miterlimit: 10;stroke-width: 4px;}#By5xZZUlRnG{fill: #e3032e;}#rysxZZLgC2f{fill: #575756;}#B1he--8lR3f{fill: #575756;}#rk6x-ZLeAnM{opacity: 0.4;mix-blend-mode: multiply;}#HJAlbZ8xA2f{-webkit-clip-path: url(#clip-path);clip-path: url(#clip-path);}#SJ1ZZbUxAhM{fill: #575756;}#BJx-bWUx0nf{fill: #575756;}#B1ZbbZUgAhG{opacity: 0.4;mix-blend-mode: multiply;}#Bkf-bW8gC2G{-webkit-clip-path: url(#clip-path-2);clip-path: url(#clip-path-2);}#rkXZZ-Ix0hz{fill: #575756;}#r14bbbIgCnG{fill: #fff;}#rJHW-ZIx0hf{fill: #1d1d1b;}#ByLWZb8gA2M{fill: #fff;}#HJwbZWIeAnG{fill: none;stroke: #a7a6a6;stroke-miterlimit: 10;stroke-width: 0.75px;}#B1dbZbIgRhf{fill: none;stroke: #a7a6a6;stroke-miterlimit: 10;stroke-width: 0.75px;}#S1KZW-LeAhG{fill: none;stroke: #a7a6a6;stroke-miterlimit: 10;stroke-width: 0.75px;}#Skc-bW8xCnM{opacity: 0.4;mix-blend-mode: multiply;}#rkjbbZLeA3f{-webkit-clip-path: url(#clip-path-3);clip-path: url(#clip-path-3);}#B12W-ZLlA3z{fill: #575756;}#B1T--ZUgR2z{fill: #575756;}#H1CbbZ8eC3M{fill: #868686;}#r1JMZb8l0nf{opacity: 0.1;}#rkgMWW8xRhM{-webkit-clip-path: url(#clip-path-4);clip-path: url(#clip-path-4);}#B1ZMbbLxR2z{fill: #fff;}#SJfG-b8lRnG{fill: #e3032e;}#HkXzbZUg02f{fill: #575756;mix-blend-mode: multiply;opacity: 0.2;}#HyEGbZ8xChz{fill: none;stroke-miterlimit: 10;stroke: #575756;stroke-linecap: round;stroke-width: 7px;}#rJHW-ZIx0hf_rJ1MIlR2G{-webkit-animation-name: rJHW-ZIx0hf_rJ1MIlR2G_Animation;animation-name: rJHW-ZIx0hf_rJ1MIlR2G_Animation;-webkit-transform-origin: 50% 50%;transform-origin: 50% 50%;transform-box: fill-box;-webkit-transform: translate(0px, 0px);transform: translate(0px, 0px);}</style><defs><clipPath id="clip-path"><rect class="cls-1" x="158.76" y="302.42" width="30.86" height="33.75"/></clipPath><clipPath id="clip-path-2"><rect class="cls-1" x="238.25" y="302.42" width="30.86" height="33.75"/></clipPath><clipPath id="clip-path-3"><rect class="cls-1" x="239.22" y="215.6" width="50.21" height="50.36"/></clipPath><clipPath id="clip-path-4"><rect class="cls-1" x="160.35" y="135.71" width="45.42" height="51.05"/></clipPath></defs><title>Tekengebied 14</title><g id="ByeZZLeC3G"><g id="SJ-ZZ8g02G" data-name="Laag 1"><polygon points="315.88 272.22 322.38 272.22 329.85 228.99 323.35 228.99 315.88 272.22" id="ByGWWUg02M"/><polygon points="322.32 230.73 299.16 223.32 301.06 215.7 324.22 223.11 322.32 230.73" id="BkXZZIlC3G"/><path d="M330.11,229.58c-1.15,4.63-5.39,7.32-9.46,6s-6.45-6.12-5.3-10.74,5.38-7.32,9.46-6,6.45,6.11,5.3,10.73" id="BJE-ZLxAnf"/><path d="M329.63,225.63c-.68,2.72-3.16,4.3-5.56,3.53a5.23,5.23,0,0,1-3.11-6.3c.68-2.72,3.17-4.3,5.56-3.53a5.24,5.24,0,0,1,3.11,6.3" id="r1BbWIeCnG"/><path d="M317.8,268.44a.84.84,0,0,0,.77-.72L323.72,238a.57.57,0,0,0-.53-.72.85.85,0,0,0-.77.72l-5.15,29.75a.57.57,0,0,0,.53.72" id="HyUZWIxR2M"/><path d="M300.13,272l4.71,4c3.1-4,8.17-5.07,11.31-2.4a7.18,7.18,0,0,1,2.38,5.55,10.67,10.67,0,0,1-2.31,6.54l4.71,4a19.42,19.42,0,0,0,4.21-11.95,13.06,13.06,0,0,0-4.34-10.14,11.83,11.83,0,0,0-10.36-2.38A18,18,0,0,0,300.13,272" id="HJvW-Ue0nf"/><path d="M302.84,270.39l.06.14a.59.59,0,0,0,.91.05c9.14-7.74,14.47-1.73,14.69-1.47a.63.63,0,0,0,.93-.07.79.79,0,0,0,.11-1c-.06-.07-6.28-7.1-16.41,1.49a.87.87,0,0,0-.29.88" id="SJd--UgCnf"/><polygon points="81.58 270.68 74.83 270.68 67.08 227.46 73.82 227.46 81.58 270.68" id="ByKbZLxRnM"/><polygon points="74.89 229.2 98.93 221.78 96.96 214.16 72.92 221.57 74.89 229.2" id="H1c-bIeRhf"/><path d="M66.81,228.05c1.2,4.62,5.59,7.32,9.82,6s6.69-6.11,5.5-10.74-5.59-7.32-9.82-6-6.69,6.11-5.5,10.74" id="S1jW-Ug0nM"/><path d="M67.55,225.63a4.63,4.63,0,0,0,5.77,3.53,5.18,5.18,0,0,0,3.22-6.3,4.62,4.62,0,0,0-5.76-3.53,5.19,5.19,0,0,0-3.23,6.3" id="rkhb-UlR3f"/><path d="M79.59,266.9a.87.87,0,0,1-.81-.72l-5.33-29.75a.57.57,0,0,1,.54-.72.89.89,0,0,1,.81.72l5.33,29.75a.57.57,0,0,1-.54.72" id="HJ6Z-LxCnG"/><path d="M97.92,270.45l-4.89,4c-3.21-4-8.48-5.07-11.73-2.4a7,7,0,0,0-2.47,5.54,10.41,10.41,0,0,0,2.39,6.54l-4.88,4A19.06,19.06,0,0,1,72,276.2a12.92,12.92,0,0,1,4.51-10.14,12.65,12.65,0,0,1,10.76-2.38,18.71,18.71,0,0,1,10.69,6.77" id="ryA--LgC3f"/><path d="M95.11,268.86A.83.83,0,0,1,95,269a.63.63,0,0,1-.94.06c-9.48-7.75-15-1.74-15.24-1.48a.67.67,0,0,1-1-.06.77.77,0,0,1-.12-1c.06-.07,6.51-7.1,17,1.48a.84.84,0,0,1,.3.89" id="S1Jl-Z8x0nM"/><path d="M118.46,196.07c-12.55,0-22.73,11.13-22.73,24.86s10.18,24.87,22.73,24.87Z" id="B1gxb-IlAhM"/><path d="M99.81,224.27a1.51,1.51,0,0,0,1.44-1.58c0-18.11,13.31-20,13.87-20.05a1.55,1.55,0,0,0,1.28-1.75,1.5,1.5,0,0,0-1.59-1.4c-.17,0-16.45,2.19-16.45,23.2a1.51,1.51,0,0,0,1.45,1.58" id="HJbeZbLgChG"/><path d="M99.8,228.74a1.31,1.31,0,1,0,1.31-1.42,1.38,1.38,0,0,0-1.31,1.42" id="Skfl--Ux03M"/><path d="M281.36,193.62c12.56,0,22.74,11.13,22.74,24.86s-10.18,24.87-22.74,24.87Z" id="rkXeZZLgAhf"/><path d="M300,221.83a1.52,1.52,0,0,1-1.45-1.59c0-18.11-13.3-20-13.87-20.05a1.56,1.56,0,0,1-1.28-1.75A1.51,1.51,0,0,1,285,197c.16,0,16.45,2.19,16.45,23.2a1.52,1.52,0,0,1-1.45,1.59" id="HJExbZIg02G"/><path d="M300,226.29a1.31,1.31,0,1,1-1.3-1.42,1.37,1.37,0,0,1,1.3,1.42" id="BySxWWUeRnz"/><line x1="239.22" y1="253.97" x2="239.22" y2="318.96" id="BJUlbWUgRhf"/><path d="M247.59,288.36c0,5.05-3.75,9.15-8.37,9.15s-8.37-4.1-8.37-9.15,3.75-9.15,8.37-9.15,8.37,4.1,8.37,9.15" id="SkPxW-8eCnG"/><path d="M246.21,286.15a4.93,4.93,0,1,1-4.91-5.37,5.15,5.15,0,0,1,4.91,5.37" id="HyuxW-8lChM"/><line x1="161.39" y1="253.97" x2="161.39" y2="318.96" id="SyYlWWIx0nf"/><path d="M289.43,216.82c0-50.07-39.32-90.65-87.82-90.65s-87.81,40.58-87.81,90.65Z" id="By5xZZUlRnG"/><rect x="113.8" y="216.56" width="175.63" height="49.4" id="rysxZZLgC2f"/><path d="M189.62,336.17c0-18.64-13.81-33.75-30.86-33.75s-30.86,15.11-30.86,33.75Z" id="B1he--8lR3f"/><g id="rk6x-ZLeAnM"><g id="HJAlbZ8xA2f"><path d="M189.62,336.17c0-18.64-13.81-33.75-30.86-33.75,0,0,16.14,5,13.42,33.75Z" id="SJ1ZZbUxAhM"/></g></g><path d="M269.11,336.17c0-18.64-13.81-33.75-30.86-33.75s-30.86,15.11-30.86,33.75Z" id="BJx-bWUx0nf"/><g id="B1ZbbZUgAhG"><g id="Bkf-bW8gC2G"><path d="M269.11,336.17c0-18.64-13.81-33.75-30.86-33.75,0,0,16.14,5,13.42,33.75Z" id="rkXZZ-Ix0hz"/></g></g><path d="M241.16,184.08c0,24.09-17.86,43.62-39.88,43.62s-39.89-19.53-39.89-43.62,17.86-43.62,39.89-43.62,39.88,19.53,39.88,43.62" id="r14bbbIgCnG"/><g id="rJHW-ZIx0hf_rJ1MIlR2G" data-animator-group="true" data-animator-type="0"><path d="M235.17,186.5c0,19.43-14.4,35.18-32.16,35.18s-32.17-15.75-32.17-35.18,14.4-35.17,32.17-35.17,32.16,15.75,32.16,35.17" id="rJHW-ZIx0hf"/></g><path d="M235.52,201.2c0,5-3.69,9-8.23,9s-8.22-4-8.22-9,3.68-9,8.22-9,8.23,4,8.23,9" id="ByLWZb8gA2M"/><line x1="114.84" y1="257.81" x2="289.08" y2="257.81" id="HJwbZWIeAnG"/><line x1="114.84" y1="252.89" x2="289.08" y2="252.89" id="B1dbZbIgRhf"/><line x1="114.84" y1="247.98" x2="289.08" y2="247.98" id="S1KZW-LeAhG"/><g id="Skc-bW8xCnM"><g id="rkjbbZLeA3f"><polygon points="239.22 216.57 239.22 265.96 289.43 265.96 289.43 215.6 239.22 216.57" id="B12W-ZLlA3z"/></g></g><path d="M169.76,288.36c0,5.05-3.74,9.15-8.37,9.15s-8.36-4.1-8.36-9.15,3.74-9.15,8.36-9.15,8.37,4.1,8.37,9.15" id="B1T--ZUgR2z"/><path d="M168.39,286.15a4.93,4.93,0,1,1-4.92-5.37,5.16,5.16,0,0,1,4.92,5.37" id="H1CbbZ8eC3M"/><g id="r1JMZb8l0nf"><g id="rkgMWW8xRhM"><path d="M179.73,186.48c-12.41-2.07-21-15-19.13-29S174,133.93,186.38,136s21,15,19.14,29-13.39,23.57-25.79,21.5" id="B1ZMbbLxR2z"/></g></g>
<rect x="161.39" y="137.79" width="79.77" height="2.67" id="SJfG-b8lRnG">

  <animate xmlns="http://www.w3.org/2000/svg" dur="4s" attributeName="height" repeatCount="indefinite" values="1; 1; 1; 1; 75; 1; 0" keyTimes="0; 0.25; 0.5; 0.85; 0.9; 0.95; 1"/>

</rect>





<path d="M238.56,217h49.77s1.89-40.62-30.72-69.17c0,0-22.77-21.64-56.33-21.64,0,0,33.27,25.86,37.28,44.64a47.8,47.8,0,0,1,0,27.06Z" id="HkXzbZUg02f"/><polyline points="154 155.48 202.21 133.23 248.56 155.48" id="HyEGbZ8xChz"/></g></g></svg>
