<svg xmlns="http://www.w3.org/2000/svg" viewBox="0 0 400 336" id="S1VAYMbwTG"><style>@-webkit-keyframes H1H-RYf-w6f_HyFqMbDTz_Animation{0%{-webkit-transform: translate(0px, 0px);transform: translate(0px, 0px);}50%{-webkit-transform: translate(-10px, -10px);transform: translate(-10px, -10px);}100%{-webkit-transform: translate(0px, 0px);transform: translate(0px, 0px);}}@keyframes H1H-RYf-w6f_HyFqMbDTz_Animation{0%{-webkit-transform: translate(0px, 0px);transform: translate(0px, 0px);}50%{-webkit-transform: translate(-10px, -10px);transform: translate(-10px, -10px);}100%{-webkit-transform: translate(0px, 0px);transform: translate(0px, 0px);}}#S1VAYMbwTG *{-webkit-animation-duration: 3s;animation-duration: 3s;-webkit-animation-iteration-count: infinite;animation-iteration-count: infinite;-webkit-animation-timing-function: cubic-bezier(0, 0, 1, 1);animation-timing-function: cubic-bezier(0, 0, 1, 1);}#HJBRFMWwTz{isolation: isolate;}#H1DAtz-vpG{fill: #a7a6a6;-webkit-transform:  translate(-79.86px, 204.74px) rotate(-83.24deg);transform:  translate(-79.86px, 204.74px) rotate(-83.24deg);}#B1dCKG-DTz{fill: #a7a6a6;-webkit-transform:  translate(-108.2px, 111.2px) rotate(-45.56deg);transform:  translate(-108.2px, 111.2px) rotate(-45.56deg);}#SktAKG-vaG{fill: #575756;}#rJ5CYz-vpz{fill: #868686;}#B1oRtG-PTM{fill: #cfcfcf;}#rJ30KGZPpz{fill: #575756;}#ByTCtfbwTG{fill: #a7a6a6;}#B1AAFG-vaM{fill: #a7a6a6;}#HJJgAKzWv6z{fill: #a7a6a6;}#H1xeRFzWDTM{fill: #575756;}#HJ-eRtG-wTf{fill: #a7a6a6;}#SyGxAKGZwaz{fill: #575756;}#Sk7g0FzWwaG{fill: #868686;}#SyElCYGWw6G{fill: #a7a6a6;}#B1SlCFMbw6z{fill: #a7a6a6;}#ryUeRKfWv6z{fill: #a7a6a6;}#ryDxRtzWvaz{fill: #cfcfcf;}#S1_g0FM-w6G{fill: #cfcfcf;}#BkYeAFfWDaf{fill: none;stroke-miterlimit: 10;stroke: #a7a6a6;stroke-width: 4px;}#BJql0FfZwTM{fill: #575756;}#rJsxRYG-D6f{fill: #868686;}#By2lAKMZPTG{fill: none;stroke-miterlimit: 10;stroke: #a7a6a6;stroke-width: 4px;}#rJ6eAKzbw6f{fill: #e3032e;}#SkAl0FzbDpM{fill: #575756;}#BkkWRKGZDaG{fill: #575756;}#B1xbCtf-Paz{fill: #575756;opacity: 0.4;mix-blend-mode: multiply;}#HJ-ZCKM-vTM{fill: #575756;}#rJzbRKzWPpM{fill: #575756;opacity: 0.4;mix-blend-mode: multiply;}#Sk7bCFMWPTM{fill: #575756;mix-blend-mode: multiply;opacity: 0.2;}#rJ4-0YGZDTG{fill: #fff;}#H1H-RYf-w6f{fill: #1d1d1b;}#Hy8-CYG-wpz{fill: #fff;}#rkPbAFG-wpM{fill: #fff;opacity: 0.1;}#r1ubRFG-DTf{fill: none;stroke-miterlimit: 10;stroke: #a7a6a6;stroke-width: 0.75px;}#HyK-RKMZvpf{fill: none;stroke-miterlimit: 10;stroke: #a7a6a6;stroke-width: 0.75px;}#BJ5ZCFfWDaM{fill: none;stroke-miterlimit: 10;stroke: #a7a6a6;stroke-width: 0.75px;}#HJsZRtGWwTf{fill: #575756;opacity: 0.4;mix-blend-mode: multiply;}#ry2bCYzZPTz{fill: #575756;}#r1a-AKf-vTM{fill: #868686;}#SyRZRtfWD6f{fill: #4f4f4f;}#B1JM0YMZwpG{fill: #06080d;}#BJlfCYMZw6M{fill: #4f4f4f;}#H1-MCtzZPTM{fill: #2a2b2a;}#S1ffAtMZPaM{fill: #4f4f4f;}#By7GAYzbPTG{fill: #4f4f4f;}#HyNGCFGWP6G{fill: #06080d;-webkit-transform:  translate(-10.04px, 17.55px) rotate(-13.75deg);transform:  translate(-10.04px, 17.55px) rotate(-13.75deg);}#ByBM0KMZwTz{fill: #97d4eb;}#HyUMAYfWPaG{fill: #a7a6a6;}#rJvzAFMZD6M{fill: #7c7b7b;}#Bydz0Yz-Ppf{fill: none;stroke-miterlimit: 10;stroke: #cfcfcf;stroke-linecap: round;stroke-width: 2px;}#B1FzAKz-vTG{fill: #fff;font-size: 17px;font-family: MyriadPro-Bold, Myriad Pro;font-weight: 700;-webkit-transform:  translate(60.07px, 87.09px);transform:  translate(60.07px, 87.09px);}#Hy5fCYMbwaG{opacity: 0.4;fill: #1e1e1e;}#H1H-RYf-w6f_HyFqMbDTz{-webkit-transform-origin: 50% 50%;transform-origin: 50% 50%;transform-box: fill-box;-webkit-transform: translate(0px, 0px);transform: translate(0px, 0px);-webkit-animation-name: H1H-RYf-w6f_HyFqMbDTz_Animation;animation-name: H1H-RYf-w6f_HyFqMbDTz_Animation;}</style><defs/><title>Tekengebied 15</title><g id="HJBRFMWwTz"><g id="H1ICFzbwpM" data-name="Laag 1"><rect x="51.72" y="143.39" width="47.16" height="7.87" id="H1DAtz-vpG"/><rect x="74.37" y="170.87" width="7.87" height="27.13" id="B1dCKG-DTz"/><circle cx="68.66" cy="175.62" r="8.65" id="SktAKG-vaG"/><circle cx="68.59" cy="172.62" r="5.08" id="rJ5CYz-vpz"/><path d="M80,128.28a.79.79,0,0,0-.88.69L75.28,161.2a.79.79,0,0,0,.69.87.77.77,0,0,0,.87-.68l3.82-32.23A.78.78,0,0,0,80,128.28Z" id="B1oRtG-PTM"/><path d="M102.37,184.89a24.7,24.7,0,1,0,0,49.4Z" id="rJ30KGZPpz"/><path d="M82.1,212.91a1.57,1.57,0,0,0,1.57-1.57c0-18,14.46-19.85,15.07-19.92a1.57,1.57,0,0,0-.34-3.13c-.18,0-17.88,2.18-17.88,23.05A1.57,1.57,0,0,0,82.1,212.91Z" id="ByTCtfbwTG"/><circle cx="83.51" cy="217.35" r="1.41" id="B1AAFG-vaM"/><rect x="327.27" y="207.81" width="7.87" height="47.16" id="HJJgAKzWv6z"/><path d="M279.36,182.46a24.7,24.7,0,1,1,0,49.4Z" id="H1xeRFzWDTM"/><rect x="304.07" y="203.22" width="27.13" height="7.87" id="HJ-eRtG-wTf"/><circle cx="330.69" cy="207.61" r="8.65" id="SyGxAKGZwaz"/><circle cx="332.84" cy="205.52" r="5.08" id="Sk7g0FzWwaG"/><path d="M341.35,276.4l-7-3.6a9.5,9.5,0,1,0-16.9-8.69l-7-3.6a17.37,17.37,0,0,1,30.9,15.89Z" id="SyElCYGWw6G"/><path d="M299.63,210.48a1.57,1.57,0,0,1-1.57-1.57c0-18-14.45-19.86-15.07-19.93a1.57,1.57,0,0,1,.34-3.12c.18,0,17.88,2.17,17.88,23A1.58,1.58,0,0,1,299.63,210.48Z" id="B1SlCFMbw6z"/><circle cx="298.22" cy="214.92" r="1.41" id="ryUeRKfWv6z"/><path d="M333.6,250.84a.78.78,0,0,1-.78-.79V217.6a.79.79,0,1,1,1.57,0v32.45A.79.79,0,0,1,333.6,250.84Z" id="ryDxRtzWvaz"/><path d="M341.43,273l-.17,0a.79.79,0,0,1-.6-.94c2.81-12.36-6.66-15.91-7.06-16.06a.79.79,0,0,1-.48-1,.8.8,0,0,1,1-.48c.11,0,11.18,4.19,8.07,17.89A.79.79,0,0,1,341.43,273Z" id="S1_g0FM-w6G"/><line x1="233.57" y1="242.41" x2="233.57" y2="306.98" id="BkYeAFfWDaf"/><circle cx="233.57" cy="276.58" r="9.09" id="BJql0FfZwTM"/><circle cx="235.83" cy="274.38" r="5.34" id="rJsxRYG-D6f"/><line x1="149.02" y1="242.41" x2="149.02" y2="306.98" id="By2lAKMZPTG"/><path d="M288.13,205.42a95.42,95.42,0,0,0-190.83,0Z" id="rJ6eAKzbw6f"/><rect x="97.3" y="205.25" width="190.82" height="49.08" id="SkAl0FzbDpM"/><path d="M181,337.16a33.53,33.53,0,1,0-67.06,0Z" id="BkkWRKGZDaG"/><path d="M181,337.16a33.53,33.53,0,0,0-33.53-33.53s17.53,5,14.57,33.53Z" id="B1xbCtf-Paz"/><path d="M267.4,337.16a33.53,33.53,0,1,0-67,0Z" id="HJ-ZCKM-vTM"/><path d="M267.4,337.16a33.53,33.53,0,0,0-33.53-33.53s17.54,5,14.58,33.53Z" id="rJzbRKzWPpM"/><path d="M186.57,110s53.23,36,46.56,96.37c0,0,55,1,55,0S288,112.26,186.57,110Z" id="Sk7bCFMWPTM"/><circle cx="192.35" cy="172.97" r="43.33" id="rJ4-0YGZDTG"/><g id="H1H-RYf-w6f_HyFqMbDTz" data-animator-group="true" data-animator-type="0"><circle cx="192.85" cy="173.44" r="26.19" id="H1H-RYf-w6f"/></g><circle cx="212.63" cy="184.38" r="6.7" id="Hy8-CYG-wpz"/><circle cx="174.19" cy="154.62" r="27.4" id="rkPbAFG-wpM"/><line x1="98.43" y1="246.22" x2="287.75" y2="246.22" id="r1ubRFG-DTf"/><line x1="98.43" y1="241.34" x2="287.75" y2="241.34" id="HyK-RKMZvpf"/><line x1="98.43" y1="236.46" x2="287.75" y2="236.46" id="BJ5ZCFfWDaM"/><polygon points="233.57 205.25 233.57 254.33 288.13 254.33 288.13 204.3 233.57 205.25" id="HJsZRtGWwTf"/><circle cx="149.02" cy="276.58" r="9.09" id="ry2bCYzZPTz"/><circle cx="151.27" cy="274.38" r="5.34" id="r1a-AKf-vTM"/><path d="M64.65,125.92a5.32,5.32,0,0,1-5.34-5.29V50.74a5.32,5.32,0,0,1,5.34-5.28H94.43a5.31,5.31,0,0,1,5.34,5.28v69.89a5.32,5.32,0,0,1-5.34,5.29Z" id="SyRZRtfWD6f"/><path d="M99.54,120.63a5.09,5.09,0,0,1-5.11,5.06H64.65a5.08,5.08,0,0,1-5.1-5.06V50.74a5.07,5.07,0,0,1,5.1-5.05H94.43a5.08,5.08,0,0,1,5.11,5.05Z" id="B1JM0YMZwpG"/><path d="M95,46.28H80.71l13.43.44c2.35,0,4.7,1.9,4.7,4.23v69.58c0,2.33-2.35,4.22-4.7,4.22l-13.43.35H95a4.5,4.5,0,0,0,4.51-4.47V50.74A4.49,4.49,0,0,0,95,46.28Z" id="BJlfCYMZw6M"/><rect x="60.31" y="54.19" width="37.73" height="63" id="H1-MCtzZPTM"/><path d="M76.33,50.68h-.68a.36.36,0,1,1,0-.71h.68ZM81.62,50H80.29v.71h1.33Zm1,0h-.75v.71h.75a.36.36,0,0,0,0-.71ZM80,50H78.24v.71H80Zm-2,0H76.59v.71H78Z" id="S1ffAtMZPaM"/><circle cx="67.75" cy="50.42" r="1.79" id="By7GAYzbPTG"/><circle cx="67.75" cy="50.42" r="1.26" id="HyNGCFGWP6G"/><path d="M68.79,50.42a1,1,0,1,0-1,1A1,1,0,0,0,68.79,50.42Z" id="ByBM0KMZwTz"/><path d="M87.21,125.66l-5.31-.26c-.53,1.19-.48,2.72-2.1,2.61-4.7-.32-3.85-7.55-3.1-17.95a1,1,0,0,0-.91-1.15l-8-.55a1,1,0,0,0-1,1c-1.06,12-2.94,28.36,9,29.17C82.3,139,85.82,133.29,87.21,125.66Z" id="HyUMAYfWPaG"/><path d="M87.21,125.66s-3.34.41-4.2,1.06-1.87,2.31-3.71,1.22c.5.07,2,0,2.61-2.65Z" id="rJvzAFMZD6M"/><path d="M74.74,113.77s-1.95,14.7,2.89,15.85" id="Bydz0Yz-Ppf"/><text id="B1FzAKz-vTG">miep</text><path d="M98.91,53.43V50.68a5.06,5.06,0,0,0-5.06-5H64.36a5,5,0,0,0-5,5V93Z" id="Hy5fCYMbwaG"/></g></g><script>(function(){var a=document.querySelector('#S1VAYMbwTG'),b=a.querySelectorAll('style'),c=function(d){b.forEach(function(f){var g=f.textContent;g&amp;&amp;(f.textContent=g.replace(/transform-box:[^;\r\n]*/gi,'transform-box: '+d))})};c('initial'),window.requestAnimationFrame(function(){return c('fill-box')})})();</script></svg>