<svg xmlns="http://www.w3.org/2000/svg" xmlns:xlink="http://www.w3.org/1999/xlink" viewBox="0 0 400 336.46"><defs><style>.cls-1,.cls-12,.cls-7{fill:none;}.cls-2{isolation:isolate;}.cls-3{fill:#a7a6a6;}.cls-21,.cls-4,.cls-9{fill:#575756;}.cls-5{fill:#868686;}.cls-6{fill:#cfcfcf;}.cls-12,.cls-7{stroke:#a7a6a6;stroke-miterlimit:10;}.cls-7{stroke-width:5.81px;}.cls-8{fill:#e3032e;}.cls-9{opacity:0.4;}.cls-21,.cls-9{mix-blend-mode:multiply;}.cls-10,.cls-15{fill:#fff;}.cls-11{fill:#1d1d1b;}.cls-12{stroke-width:1.09px;}.cls-13{fill:#f6aa30;}.cls-14{fill:#e79505;}.cls-15,.cls-21{opacity:0.2;}.cls-16{fill:#ca8010;}.cls-17{fill:#ffe88e;}.cls-18{fill:#eabd02;}.cls-19{opacity:0.1;}.cls-20{clip-path:url(#clip-path);}</style><clipPath id="clip-path"><rect class="cls-1" x="169.01" y="129.19" width="34.04" height="38.26"/></clipPath></defs><title>Tekengebied 7</title><g class="cls-2"><g id="Laag_1" data-name="Laag 1"><rect class="cls-3" x="96.34" y="229.33" width="8.38" height="50.26" transform="translate(-169.36 209.59) rotate(-59)"/><rect class="cls-3" x="71.38" y="224.57" width="28.92" height="8.38" transform="translate(-154.46 184.54) rotate(-59)"/><circle class="cls-4" cx="79.09" cy="240.94" r="9.22"/><circle class="cls-5" cx="76" cy="241.76" r="5.41"/><path class="cls-3" d="M136.09,288.44l.55-8.37A10.13,10.13,0,1,1,138,259.85l.55-8.36a18.52,18.52,0,0,0-2.44,36.95Z"/><path class="cls-6" d="M117,267.33a.84.84,0,0,0-.28-1.15L87,248.37a.84.84,0,0,0-1.15.28.86.86,0,0,0,.29,1.16l29.65,17.81A.83.83,0,0,0,117,267.33Z"/><path class="cls-6" d="M132.92,286.64a1.22,1.22,0,0,0,.07-.17.83.83,0,0,0-.53-1.06c-12.83-4.22-10.88-14.82-10.79-15.27a.85.85,0,0,0-.66-1,.84.84,0,0,0-1,.66c0,.13-2.31,12.52,11.92,17.19A.86.86,0,0,0,132.92,286.64Z"/><rect class="cls-3" x="328.67" y="144.84" width="8.38" height="37.3" transform="translate(-37.82 152.66) rotate(-24.49)"/><rect class="cls-3" x="318.08" y="187.4" width="28.92" height="8.38" transform="translate(-51.16 199.4) rotate(-31.11)"/><circle class="cls-4" cx="340.84" cy="181.17" r="9.22"/><circle class="cls-5" cx="343.95" cy="181.89" r="5.41"/><path class="cls-6" d="M328.82,148.42c-.42.2-.65.61-.51.92L339,172.7a.88.88,0,0,0,1.53-.7l-10.64-23.36A.76.76,0,0,0,328.82,148.42Z"/><path class="cls-4" d="M109.6,173.11a26.33,26.33,0,0,0,0,52.66Z"/><path class="cls-3" d="M88,203a1.68,1.68,0,0,0,1.67-1.68c0-19.18,15.41-21.16,16.06-21.23a1.68,1.68,0,0,0-.36-3.34c-.19,0-19.05,2.32-19.05,24.57A1.68,1.68,0,0,0,88,203Z"/><circle class="cls-3" cx="89.5" cy="207.71" r="1.51"/><path class="cls-4" d="M298.25,170.52a26.33,26.33,0,1,1,0,52.65Z"/><path class="cls-3" d="M319.86,200.38a1.68,1.68,0,0,1-1.68-1.67c0-19.18-15.41-21.16-16.06-21.24a1.67,1.67,0,0,1,.36-3.33c.19,0,19,2.32,19,24.57A1.67,1.67,0,0,1,319.86,200.38Z"/><circle class="cls-3" cx="318.35" cy="205.12" r="1.51"/><line class="cls-7" x1="249.44" y1="234.42" x2="249.44" y2="303.24"/><circle class="cls-4" cx="249.44" cy="270.84" r="9.69"/><circle class="cls-5" cx="251.85" cy="268.5" r="5.69"/><line class="cls-7" x1="159.32" y1="234.42" x2="159.32" y2="303.24"/><path class="cls-8" d="M307.59,195a101.7,101.7,0,1,0-203.39,0Z"/><rect class="cls-4" x="104.2" y="194.81" width="203.39" height="52.31"/><path class="cls-4" d="M193.45,335.41a35.74,35.74,0,1,0-71.47,0Z"/><path class="cls-9" d="M193.45,335.41a35.74,35.74,0,0,0-35.74-35.74s18.69,5.29,15.54,35.74Z"/><path class="cls-4" d="M285.5,335.41a35.74,35.74,0,1,0-71.47,0Z"/><path class="cls-9" d="M285.5,335.41a35.74,35.74,0,0,0-35.73-35.74s18.69,5.29,15.53,35.74Z"/><circle class="cls-10" cx="205.51" cy="160.41" r="46.19"/><circle class="cls-11" cx="206.04" cy="160.91" r="27.92"/><circle class="cls-10" cx="227.12" cy="172.57" r="7.14"/><line class="cls-12" x1="105.4" y1="238.48" x2="307.19" y2="238.48"/><line class="cls-12" x1="105.4" y1="233.28" x2="307.19" y2="233.28"/><line class="cls-12" x1="105.4" y1="228.07" x2="307.19" y2="228.07"/><polygon class="cls-9" points="249.44 194.81 249.44 247.12 307.59 247.12 307.59 193.8 249.44 194.81"/><circle class="cls-4" cx="159.32" cy="270.84" r="9.69"/><circle class="cls-5" cx="161.73" cy="268.5" r="5.69"/><path class="cls-13" d="M272.48,226.64l-.16-4.29c14.77-.54,25.91-5.24,33.09-13.95,12.26-14.87,9-36.65,9-36.86l4.24-.67c.15,1,3.55,23.92-9.93,40.26C300.73,220.83,288.53,226.05,272.48,226.64Z"/><rect class="cls-14" x="247.6" y="209.37" width="21.2" height="31.65" rx="8.2" ry="8.2" transform="translate(31.35 481.93) rotate(-89.63)"/><path class="cls-15" d="M242.31,218.57h0l.08-.06Z"/><path class="cls-16" d="M250.66,215.5h-1.48a.29.29,0,0,0-.28.31v.81a.31.31,0,0,0,.28.32h1.47a.31.31,0,0,0,.29-.32v-.8A.3.3,0,0,0,250.66,215.5Z"/><path class="cls-16" d="M253,215.52h-1.47a.3.3,0,0,0-.29.31v.81a.3.3,0,0,0,.27.32H253a.3.3,0,0,0,.28-.32v-.8A.29.29,0,0,0,253,215.52Z"/><path class="cls-16" d="M255.42,215.54H254a.29.29,0,0,0-.28.31v.8a.31.31,0,0,0,.28.33h1.47a.3.3,0,0,0,.28-.32v-.8A.3.3,0,0,0,255.42,215.54Z"/><path class="cls-16" d="M257.8,215.56l-1.47,0a.3.3,0,0,0-.28.32v.8a.31.31,0,0,0,.28.33h1.47a.3.3,0,0,0,.28-.32v-.8A.3.3,0,0,0,257.8,215.56Z"/><path class="cls-16" d="M260.18,215.58l-1.47,0a.31.31,0,0,0-.28.32v.8a.31.31,0,0,0,.28.33h1.47a.3.3,0,0,0,.28-.32v-.8A.3.3,0,0,0,260.18,215.58Z"/><path class="cls-16" d="M262.56,215.6l-1.47,0a.31.31,0,0,0-.28.32v.8a.31.31,0,0,0,.28.33h1.47a.31.31,0,0,0,.29-.32v-.8A.3.3,0,0,0,262.56,215.6Z"/><path class="cls-16" d="M265,215.62l-1.47,0a.3.3,0,0,0-.29.32v.8a.3.3,0,0,0,.27.33h1.47a.3.3,0,0,0,.29-.32v-.8A.29.29,0,0,0,265,215.62Z"/><path class="cls-16" d="M267.33,215.64l-1.47,0a.31.31,0,0,0-.29.32v.8a.31.31,0,0,0,.28.33h1.47a.3.3,0,0,0,.28-.32V216A.3.3,0,0,0,267.33,215.64Z"/><path class="cls-16" d="M248.26,217.43h-1.47a.31.31,0,0,0-.29.32v.8a.3.3,0,0,0,.27.32h1.48a.3.3,0,0,0,.28-.32v-.8A.31.31,0,0,0,248.26,217.43Z"/><path class="cls-16" d="M250.64,217.45h-1.47a.3.3,0,0,0-.28.32v.8a.3.3,0,0,0,.28.32h1.47a.3.3,0,0,0,.28-.32v-.8A.31.31,0,0,0,250.64,217.45Z"/><path class="cls-16" d="M253,217.47h-1.47a.3.3,0,0,0-.28.32v.8a.3.3,0,0,0,.28.32H253a.3.3,0,0,0,.28-.32v-.8A.3.3,0,0,0,253,217.47Z"/><path class="cls-16" d="M255.4,217.49h-1.47a.3.3,0,0,0-.28.32v.8a.31.31,0,0,0,.28.32h1.47a.3.3,0,0,0,.28-.32v-.8A.3.3,0,0,0,255.4,217.49Z"/><path class="cls-16" d="M257.78,217.51h-1.47a.3.3,0,0,0-.28.31v.81a.31.31,0,0,0,.28.32h1.47a.31.31,0,0,0,.29-.32v-.8A.3.3,0,0,0,257.78,217.51Z"/><path class="cls-16" d="M260.17,217.53H258.7a.3.3,0,0,0-.29.31v.81a.3.3,0,0,0,.27.32h1.47a.3.3,0,0,0,.29-.32v-.8A.29.29,0,0,0,260.17,217.53Z"/><path class="cls-16" d="M262.55,217.55h-1.47a.3.3,0,0,0-.29.31v.81a.3.3,0,0,0,.28.32h1.47a.3.3,0,0,0,.28-.32v-.8A.3.3,0,0,0,262.55,217.55Z"/><path class="cls-16" d="M264.93,217.57h-1.47a.29.29,0,0,0-.28.31v.8a.31.31,0,0,0,.28.33h1.47a.3.3,0,0,0,.28-.32v-.8A.3.3,0,0,0,264.93,217.57Z"/><path class="cls-16" d="M267.31,217.59l-1.47,0a.31.31,0,0,0-.28.32v.8a.31.31,0,0,0,.28.33h1.47a.3.3,0,0,0,.28-.32v-.8A.3.3,0,0,0,267.31,217.59Z"/><path class="cls-16" d="M269.69,217.61l-1.47,0a.31.31,0,0,0-.28.32v.8a.31.31,0,0,0,.28.33h1.47a.3.3,0,0,0,.28-.32v-.8A.3.3,0,0,0,269.69,217.61Z"/><path class="cls-16" d="M245.86,219.36h-1.47a.3.3,0,0,0-.28.32v.8a.3.3,0,0,0,.28.32h1.47a.29.29,0,0,0,.28-.31v-.8A.31.31,0,0,0,245.86,219.36Z"/><path class="cls-16" d="M248.24,219.38h-1.47a.3.3,0,0,0-.28.32v.8a.3.3,0,0,0,.28.32h1.47a.29.29,0,0,0,.28-.31v-.81A.3.3,0,0,0,248.24,219.38Z"/><path class="cls-16" d="M250.62,219.4h-1.47a.3.3,0,0,0-.28.32v.8a.3.3,0,0,0,.28.32h1.47a.29.29,0,0,0,.28-.31v-.81A.3.3,0,0,0,250.62,219.4Z"/><path class="cls-16" d="M253,219.42h-1.48a.3.3,0,0,0-.28.32v.8a.3.3,0,0,0,.28.32H253a.31.31,0,0,0,.29-.31v-.81A.3.3,0,0,0,253,219.42Z"/><path class="cls-16" d="M255.39,219.44h-1.47a.3.3,0,0,0-.29.32v.8a.29.29,0,0,0,.27.32h1.48a.3.3,0,0,0,.28-.32v-.8A.3.3,0,0,0,255.39,219.44Z"/><path class="cls-16" d="M257.77,219.46H256.3a.31.31,0,0,0-.29.32v.8a.3.3,0,0,0,.28.32h1.47a.3.3,0,0,0,.28-.32v-.8A.31.31,0,0,0,257.77,219.46Z"/><path class="cls-16" d="M260.15,219.48h-1.47a.3.3,0,0,0-.28.32v.8a.3.3,0,0,0,.28.32h1.47a.3.3,0,0,0,.28-.32v-.8A.3.3,0,0,0,260.15,219.48Z"/><path class="cls-16" d="M262.53,219.5h-1.47a.3.3,0,0,0-.28.32v.8a.3.3,0,0,0,.28.32h1.47a.3.3,0,0,0,.28-.32v-.8A.3.3,0,0,0,262.53,219.5Z"/><path class="cls-16" d="M264.91,219.52h-1.47a.3.3,0,0,0-.28.32v.8a.31.31,0,0,0,.28.32h1.47a.31.31,0,0,0,.29-.32v-.8A.3.3,0,0,0,264.91,219.52Z"/><path class="cls-16" d="M267.3,219.54h-1.48a.3.3,0,0,0-.28.31v.81a.3.3,0,0,0,.27.32h1.47a.3.3,0,0,0,.29-.32v-.8A.29.29,0,0,0,267.3,219.54Z"/><path class="cls-16" d="M269.68,219.56h-1.47a.31.31,0,0,0-.29.31v.81a.3.3,0,0,0,.27.32h1.48a.3.3,0,0,0,.28-.32v-.8A.3.3,0,0,0,269.68,219.56Z"/><path class="cls-16" d="M272.06,219.58h-1.47a.29.29,0,0,0-.28.31v.81a.3.3,0,0,0,.28.32h1.47a.3.3,0,0,0,.28-.32v-.8A.3.3,0,0,0,272.06,219.58Z"/><path class="cls-16" d="M245.84,221.31h-1.47a.3.3,0,0,0-.28.32v.8a.3.3,0,0,0,.28.32l1.47,0a.3.3,0,0,0,.28-.32v-.8A.31.31,0,0,0,245.84,221.31Z"/><path class="cls-16" d="M248.23,221.33h-1.48a.3.3,0,0,0-.28.32v.8a.3.3,0,0,0,.28.32l1.47,0a.32.32,0,0,0,.29-.32v-.8A.31.31,0,0,0,248.23,221.33Z"/><path class="cls-16" d="M250.61,221.35h-1.47a.3.3,0,0,0-.29.32v.8a.3.3,0,0,0,.27.32l1.48,0a.31.31,0,0,0,.28-.32v-.8A.3.3,0,0,0,250.61,221.35Z"/><path class="cls-16" d="M253,221.37h-1.47a.3.3,0,0,0-.28.32v.8a.3.3,0,0,0,.28.32l1.47,0a.31.31,0,0,0,.28-.32v-.8A.31.31,0,0,0,253,221.37Z"/><path class="cls-16" d="M255.37,221.39H253.9a.3.3,0,0,0-.28.32v.8a.3.3,0,0,0,.28.32h1.47a.29.29,0,0,0,.28-.31v-.8A.31.31,0,0,0,255.37,221.39Z"/><path class="cls-16" d="M257.75,221.41h-1.47a.3.3,0,0,0-.28.32v.8a.3.3,0,0,0,.28.32h1.47a.29.29,0,0,0,.28-.31v-.81A.3.3,0,0,0,257.75,221.41Z"/><path class="cls-16" d="M260.13,221.43h-1.47a.3.3,0,0,0-.28.32v.8a.3.3,0,0,0,.28.32h1.47a.3.3,0,0,0,.29-.31v-.81A.3.3,0,0,0,260.13,221.43Z"/><path class="cls-16" d="M262.52,221.45h-1.47a.3.3,0,0,0-.29.32v.8a.29.29,0,0,0,.27.32h1.47a.3.3,0,0,0,.29-.31v-.81A.3.3,0,0,0,262.52,221.45Z"/><path class="cls-16" d="M264.9,221.47h-1.47a.31.31,0,0,0-.29.32v.8a.3.3,0,0,0,.28.32h1.47a.3.3,0,0,0,.28-.32v-.8A.31.31,0,0,0,264.9,221.47Z"/><path class="cls-16" d="M267.28,221.49h-1.47a.3.3,0,0,0-.28.32v.8a.3.3,0,0,0,.28.32h1.47a.3.3,0,0,0,.28-.32v-.8A.31.31,0,0,0,267.28,221.49Z"/><path class="cls-16" d="M269.66,221.51h-1.47a.3.3,0,0,0-.28.32v.8a.3.3,0,0,0,.28.32h1.47a.3.3,0,0,0,.28-.32v-.8A.3.3,0,0,0,269.66,221.51Z"/><path class="cls-16" d="M272,221.53h-1.47a.3.3,0,0,0-.28.32v.8a.31.31,0,0,0,.28.32H272a.3.3,0,0,0,.28-.32v-.8A.3.3,0,0,0,272,221.53Z"/><path class="cls-16" d="M245.83,223.27l-1.47,0a.3.3,0,0,0-.29.32v.8a.31.31,0,0,0,.27.33h1.48a.3.3,0,0,0,.28-.32v-.8A.3.3,0,0,0,245.83,223.27Z"/><path class="cls-16" d="M248.21,223.29l-1.47,0a.3.3,0,0,0-.28.32v.8a.31.31,0,0,0,.28.33h1.47a.3.3,0,0,0,.28-.32v-.8A.3.3,0,0,0,248.21,223.29Z"/><path class="cls-16" d="M250.59,223.31l-1.47,0a.3.3,0,0,0-.28.32v.8a.31.31,0,0,0,.28.33h1.47a.3.3,0,0,0,.28-.32v-.8A.3.3,0,0,0,250.59,223.31Z"/><path class="cls-16" d="M253,223.32H251.5a.3.3,0,0,0-.28.32v.8a.3.3,0,0,0,.28.32l1.47,0a.3.3,0,0,0,.28-.32v-.8A.31.31,0,0,0,253,223.32Z"/><path class="cls-16" d="M255.35,223.34h-1.47a.3.3,0,0,0-.28.32v.8a.3.3,0,0,0,.28.32l1.47,0a.31.31,0,0,0,.29-.32v-.8A.31.31,0,0,0,255.35,223.34Z"/><path class="cls-16" d="M257.74,223.36h-1.47a.3.3,0,0,0-.29.32v.8a.29.29,0,0,0,.27.32l1.47,0a.3.3,0,0,0,.29-.32v-.8A.3.3,0,0,0,257.74,223.36Z"/><path class="cls-16" d="M260.12,223.38h-1.47a.31.31,0,0,0-.29.32v.8a.3.3,0,0,0,.28.32l1.47,0a.31.31,0,0,0,.28-.32v-.8A.31.31,0,0,0,260.12,223.38Z"/><path class="cls-16" d="M262.5,223.4H261a.3.3,0,0,0-.28.32v.8a.3.3,0,0,0,.28.32l1.47,0a.31.31,0,0,0,.28-.32v-.8A.31.31,0,0,0,262.5,223.4Z"/><path class="cls-16" d="M264.88,223.42h-1.47a.3.3,0,0,0-.28.32v.8a.3.3,0,0,0,.28.32h1.47a.29.29,0,0,0,.28-.31v-.8A.31.31,0,0,0,264.88,223.42Z"/><path class="cls-16" d="M267.26,223.44h-1.47a.3.3,0,0,0-.28.32v.8a.3.3,0,0,0,.28.32h1.47a.29.29,0,0,0,.28-.31v-.81A.3.3,0,0,0,267.26,223.44Z"/><path class="cls-16" d="M269.65,223.46h-1.48a.3.3,0,0,0-.28.32v.8a.29.29,0,0,0,.27.32h1.47a.3.3,0,0,0,.29-.31v-.81A.3.3,0,0,0,269.65,223.46Z"/><path class="cls-16" d="M272,223.48h-1.47a.3.3,0,0,0-.29.32v.8a.3.3,0,0,0,.27.32H272a.29.29,0,0,0,.28-.31v-.81A.31.31,0,0,0,272,223.48Z"/><path class="cls-16" d="M245.81,225.22h-1.47a.29.29,0,0,0-.28.31v.8a.31.31,0,0,0,.28.33h1.47a.3.3,0,0,0,.28-.32v-.8A.3.3,0,0,0,245.81,225.22Z"/><path class="cls-16" d="M248.19,225.24h-1.47a.29.29,0,0,0-.28.31v.8a.31.31,0,0,0,.28.33h1.47a.3.3,0,0,0,.28-.32v-.8A.3.3,0,0,0,248.19,225.24Z"/><path class="cls-16" d="M250.58,225.26l-1.48,0a.31.31,0,0,0-.28.32v.8a.31.31,0,0,0,.28.33h1.47a.31.31,0,0,0,.29-.32v-.8A.3.3,0,0,0,250.58,225.26Z"/><path class="cls-16" d="M253,225.28l-1.47,0a.31.31,0,0,0-.29.32v.8a.3.3,0,0,0,.27.33H253a.3.3,0,0,0,.28-.32v-.8A.29.29,0,0,0,253,225.28Z"/><path class="cls-16" d="M255.34,225.3l-1.47,0a.31.31,0,0,0-.29.32v.8a.31.31,0,0,0,.28.33h1.47a.3.3,0,0,0,.28-.32v-.8A.3.3,0,0,0,255.34,225.3Z"/><path class="cls-16" d="M257.72,225.32l-1.47,0a.3.3,0,0,0-.28.32v.8a.31.31,0,0,0,.28.33h1.47a.3.3,0,0,0,.28-.32v-.8A.3.3,0,0,0,257.72,225.32Z"/><path class="cls-16" d="M260.1,225.34l-1.47,0a.3.3,0,0,0-.28.32v.8a.31.31,0,0,0,.28.33h1.47a.3.3,0,0,0,.28-.32v-.8A.3.3,0,0,0,260.1,225.34Z"/><path class="cls-16" d="M262.48,225.35H261a.3.3,0,0,0-.28.32v.8a.3.3,0,0,0,.28.32l1.47,0a.31.31,0,0,0,.29-.32v-.8A.31.31,0,0,0,262.48,225.35Z"/><path class="cls-16" d="M264.87,225.37h-1.48a.3.3,0,0,0-.28.32v.8a.29.29,0,0,0,.27.32l1.47,0a.3.3,0,0,0,.29-.32v-.8A.3.3,0,0,0,264.87,225.37Z"/><path class="cls-16" d="M267.25,225.39h-1.47a.31.31,0,0,0-.29.32v.8a.3.3,0,0,0,.27.32l1.48,0a.3.3,0,0,0,.28-.32v-.8A.32.32,0,0,0,267.25,225.39Z"/><path class="cls-16" d="M269.63,225.41h-1.47a.3.3,0,0,0-.28.32v.8a.3.3,0,0,0,.28.32l1.47,0a.31.31,0,0,0,.28-.32v-.8A.31.31,0,0,0,269.63,225.41Z"/><path class="cls-16" d="M272,225.43h-1.47a.3.3,0,0,0-.28.32v.8a.3.3,0,0,0,.28.32l1.47,0a.31.31,0,0,0,.28-.32v-.8A.31.31,0,0,0,272,225.43Z"/><path class="cls-16" d="M245.8,227.17h-1.48a.3.3,0,0,0-.28.32v.8a.31.31,0,0,0,.28.32h1.47a.31.31,0,0,0,.29-.32v-.8A.3.3,0,0,0,245.8,227.17Z"/><path class="cls-16" d="M248.18,227.19h-1.47a.3.3,0,0,0-.29.31v.81a.3.3,0,0,0,.27.32h1.48a.3.3,0,0,0,.28-.32v-.8A.29.29,0,0,0,248.18,227.19Z"/><path class="cls-16" d="M250.56,227.21h-1.47a.29.29,0,0,0-.28.31v.81a.3.3,0,0,0,.28.32h1.47a.3.3,0,0,0,.28-.32v-.8A.3.3,0,0,0,250.56,227.21Z"/><path class="cls-16" d="M252.94,227.23h-1.47a.29.29,0,0,0-.28.31v.81a.3.3,0,0,0,.28.32h1.47a.3.3,0,0,0,.28-.32v-.8A.3.3,0,0,0,252.94,227.23Z"/><path class="cls-16" d="M255.32,227.25h-1.47a.29.29,0,0,0-.28.31v.8a.31.31,0,0,0,.28.33h1.47a.3.3,0,0,0,.28-.32v-.8A.3.3,0,0,0,255.32,227.25Z"/><path class="cls-16" d="M257.7,227.27h-1.47a.29.29,0,0,0-.28.31v.8a.31.31,0,0,0,.28.33h1.47a.31.31,0,0,0,.29-.32v-.8A.3.3,0,0,0,257.7,227.27Z"/><path class="cls-16" d="M260.09,227.29l-1.47,0a.31.31,0,0,0-.29.32v.8a.3.3,0,0,0,.27.33h1.47a.3.3,0,0,0,.29-.32v-.8A.29.29,0,0,0,260.09,227.29Z"/><path class="cls-16" d="M262.47,227.31l-1.47,0a.32.32,0,0,0-.29.32v.8a.31.31,0,0,0,.28.33h1.47a.3.3,0,0,0,.28-.32v-.8A.3.3,0,0,0,262.47,227.31Z"/><path class="cls-16" d="M264.85,227.33l-1.47,0a.3.3,0,0,0-.28.32v.8a.31.31,0,0,0,.28.33h1.47a.3.3,0,0,0,.28-.32v-.8A.3.3,0,0,0,264.85,227.33Z"/><path class="cls-16" d="M267.23,227.35l-1.47,0a.3.3,0,0,0-.28.32v.8a.31.31,0,0,0,.28.33h1.47a.3.3,0,0,0,.28-.32v-.8A.3.3,0,0,0,267.23,227.35Z"/><path class="cls-16" d="M269.61,227.37l-1.47,0a.3.3,0,0,0-.28.32v.8a.32.32,0,0,0,.28.33h1.47a.3.3,0,0,0,.28-.32v-.8A.3.3,0,0,0,269.61,227.37Z"/><path class="cls-16" d="M272,227.38h-1.48a.3.3,0,0,0-.28.32v.8a.32.32,0,0,0,.28.33H272a.31.31,0,0,0,.29-.32v-.8A.31.31,0,0,0,272,227.38Z"/><path class="cls-16" d="M245.78,229.12h-1.47a.3.3,0,0,0-.28.32v.8a.3.3,0,0,0,.28.32h1.47a.3.3,0,0,0,.28-.31v-.81A.31.31,0,0,0,245.78,229.12Z"/><path class="cls-16" d="M248.16,229.14h-1.47a.3.3,0,0,0-.28.32v.8a.3.3,0,0,0,.28.32h1.47a.3.3,0,0,0,.28-.32v-.8A.3.3,0,0,0,248.16,229.14Z"/><path class="cls-16" d="M250.54,229.16h-1.47a.3.3,0,0,0-.28.32v.8a.31.31,0,0,0,.28.32h1.47a.3.3,0,0,0,.28-.32v-.8A.3.3,0,0,0,250.54,229.16Z"/><path class="cls-16" d="M252.92,229.18h-1.47a.3.3,0,0,0-.28.32v.8a.31.31,0,0,0,.28.32h1.47a.31.31,0,0,0,.29-.32v-.8A.3.3,0,0,0,252.92,229.18Z"/><path class="cls-16" d="M255.31,229.2h-1.47a.3.3,0,0,0-.29.32v.8a.3.3,0,0,0,.27.32h1.47a.3.3,0,0,0,.29-.32v-.8A.3.3,0,0,0,255.31,229.2Z"/><path class="cls-16" d="M257.69,229.22h-1.47a.31.31,0,0,0-.29.31v.81a.3.3,0,0,0,.28.32h1.47a.3.3,0,0,0,.28-.32v-.8A.3.3,0,0,0,257.69,229.22Z"/><path class="cls-16" d="M260.07,229.24H258.6a.29.29,0,0,0-.28.31v.81a.3.3,0,0,0,.28.32h1.47a.3.3,0,0,0,.28-.32v-.8A.3.3,0,0,0,260.07,229.24Z"/><path class="cls-16" d="M262.45,229.26H261a.29.29,0,0,0-.28.31v.81a.3.3,0,0,0,.28.32h1.47a.3.3,0,0,0,.28-.32v-.8A.3.3,0,0,0,262.45,229.26Z"/><path class="cls-16" d="M264.83,229.28h-1.47a.29.29,0,0,0-.28.31v.81a.31.31,0,0,0,.28.32h1.47a.3.3,0,0,0,.28-.32v-.8A.3.3,0,0,0,264.83,229.28Z"/><path class="cls-16" d="M267.22,229.3h-1.48a.29.29,0,0,0-.28.31v.8a.3.3,0,0,0,.27.33h1.47a.3.3,0,0,0,.29-.32v-.8A.3.3,0,0,0,267.22,229.3Z"/><path class="cls-16" d="M269.6,229.32l-1.47,0a.31.31,0,0,0-.29.32v.8a.31.31,0,0,0,.27.33h1.48a.3.3,0,0,0,.28-.32v-.8A.3.3,0,0,0,269.6,229.32Z"/><path class="cls-16" d="M272,229.34l-1.47,0a.3.3,0,0,0-.28.32v.8a.31.31,0,0,0,.28.33H272a.3.3,0,0,0,.28-.32v-.8A.3.3,0,0,0,272,229.34Z"/><path class="cls-16" d="M248.15,231.09h-1.48a.3.3,0,0,0-.28.32v.8a.3.3,0,0,0,.28.32h1.47a.3.3,0,0,0,.29-.31v-.8A.31.31,0,0,0,248.15,231.09Z"/><path class="cls-16" d="M250.53,231.11h-1.47a.3.3,0,0,0-.29.32v.8a.29.29,0,0,0,.27.32h1.48a.29.29,0,0,0,.28-.31v-.81A.3.3,0,0,0,250.53,231.11Z"/><path class="cls-16" d="M252.91,231.13h-1.47a.31.31,0,0,0-.29.32v.8a.3.3,0,0,0,.28.32h1.47a.29.29,0,0,0,.28-.31v-.81A.31.31,0,0,0,252.91,231.13Z"/><path class="cls-16" d="M255.29,231.15h-1.47a.3.3,0,0,0-.28.32v.8a.3.3,0,0,0,.28.32h1.47a.3.3,0,0,0,.28-.31v-.81A.3.3,0,0,0,255.29,231.15Z"/><path class="cls-16" d="M257.67,231.17H256.2a.3.3,0,0,0-.28.32v.8a.3.3,0,0,0,.28.32h1.47a.3.3,0,0,0,.28-.32v-.8A.3.3,0,0,0,257.67,231.17Z"/><path class="cls-16" d="M260.05,231.19h-1.47a.3.3,0,0,0-.28.32v.8a.31.31,0,0,0,.28.32H260a.31.31,0,0,0,.29-.32v-.8A.3.3,0,0,0,260.05,231.19Z"/><path class="cls-16" d="M262.44,231.21H261a.3.3,0,0,0-.28.32v.8a.3.3,0,0,0,.27.32h1.47a.3.3,0,0,0,.29-.32v-.8A.3.3,0,0,0,262.44,231.21Z"/><path class="cls-16" d="M264.82,231.23h-1.47a.31.31,0,0,0-.29.32v.8a.3.3,0,0,0,.27.32h1.48a.3.3,0,0,0,.28-.32v-.8A.31.31,0,0,0,264.82,231.23Z"/><path class="cls-16" d="M267.2,231.25h-1.47a.3.3,0,0,0-.28.32v.8a.3.3,0,0,0,.28.32h1.47a.3.3,0,0,0,.28-.32v-.8A.3.3,0,0,0,267.2,231.25Z"/><path class="cls-16" d="M269.58,231.27h-1.47a.3.3,0,0,0-.28.31v.81a.3.3,0,0,0,.28.32h1.47a.3.3,0,0,0,.28-.32v-.8A.3.3,0,0,0,269.58,231.27Z"/><path class="cls-16" d="M250.51,233.06H249a.3.3,0,0,0-.28.32v.8a.3.3,0,0,0,.28.32l1.47,0a.31.31,0,0,0,.28-.32v-.8A.31.31,0,0,0,250.51,233.06Z"/><path class="cls-16" d="M252.89,233.08h-1.47a.3.3,0,0,0-.28.32v.8a.3.3,0,0,0,.28.32l1.47,0a.3.3,0,0,0,.28-.32v-.8A.31.31,0,0,0,252.89,233.08Z"/><path class="cls-16" d="M255.27,233.1H253.8a.3.3,0,0,0-.28.32v.8a.3.3,0,0,0,.28.32l1.47,0a.32.32,0,0,0,.29-.32v-.8A.31.31,0,0,0,255.27,233.1Z"/><path class="cls-16" d="M257.66,233.12h-1.47a.3.3,0,0,0-.29.32v.8a.29.29,0,0,0,.27.32h1.47a.3.3,0,0,0,.29-.31v-.8A.3.3,0,0,0,257.66,233.12Z"/><path class="cls-16" d="M260,233.14h-1.47a.31.31,0,0,0-.29.32v.8a.3.3,0,0,0,.28.32H260a.29.29,0,0,0,.28-.31v-.81A.31.31,0,0,0,260,233.14Z"/><path class="cls-16" d="M262.42,233.16H261a.3.3,0,0,0-.28.32v.8a.3.3,0,0,0,.28.32h1.47a.29.29,0,0,0,.28-.31v-.81A.31.31,0,0,0,262.42,233.16Z"/><path class="cls-16" d="M264.8,233.18h-1.47a.3.3,0,0,0-.28.32v.8a.3.3,0,0,0,.28.32h1.47a.3.3,0,0,0,.28-.31v-.81A.3.3,0,0,0,264.8,233.18Z"/><path class="cls-16" d="M267.18,233.2h-1.47a.3.3,0,0,0-.28.32v.8a.3.3,0,0,0,.28.32h1.47a.3.3,0,0,0,.28-.32v-.8A.3.3,0,0,0,267.18,233.2Z"/><rect class="cls-16" x="116.12" y="112.72" width="13.53" height="13.53" rx="4.56" ry="4.56" transform="translate(-39.54 174.23) rotate(-62.82)"/><ellipse class="cls-17" cx="99.99" cy="143.96" rx="27.13" ry="5.45" transform="translate(-72.45 175.39) rotate(-65.54)"/><path class="cls-18" d="M125.91,118.35l-5-2.25a7.53,7.53,0,0,0-10,3.74L88.76,168.66a7.53,7.53,0,0,0,3.75,10l4.95,2.26a8,8,0,0,0,.89.33l28.39-62.43A7.31,7.31,0,0,0,125.91,118.35Z"/><path class="cls-14" d="M126.74,118.8,98.35,181.23a7.53,7.53,0,0,0,9.1-4.07l22.2-48.82A7.53,7.53,0,0,0,126.74,118.8Z"/><g class="cls-19"><g class="cls-20"><path class="cls-10" d="M183.53,167.25c-9.29-1.55-15.71-11.28-14.33-21.73s10-17.66,19.33-16.12,15.71,11.28,14.34,21.73-10,17.66-19.34,16.12"/></g></g><rect class="cls-8" x="159.02" y="108.42" width="92.68" height="1.92"/><path class="cls-21" d="M249.34,196.85h57.82s2.2-46.32-35.68-78.88c0,0-26.46-24.67-65.44-24.67,0,0,38.65,29.49,43.3,50.91a53.45,53.45,0,0,1,0,30.85Z"/><path class="cls-16" d="M171.09,82.25a103.39,103.39,0,0,1,34.08-5.31h.13a103.33,103.33,0,0,1,34.07,5.31c21.38,7.24,38.68,21.45,51.45,42.23l5.38-1.84c-13.47-22.2-31.88-37.33-54.72-45a110.09,110.09,0,0,0-35.79-5.51h-.15a110.09,110.09,0,0,0-35.79,5.51c-22.83,7.66-41.25,22.79-54.72,45l4.75,1.63C132.54,103.6,149.79,89.47,171.09,82.25Z"/><path class="cls-18" d="M205.54,79.51h.15c24.86-.17,58.46,7.95,81.65,46.16l3.48-1.19c-12.77-20.78-30.07-35-51.45-42.23a103.33,103.33,0,0,0-34.07-5.31h-.13a103.39,103.39,0,0,0-34.08,5.31c-21.3,7.22-38.55,21.35-51.31,42l4.11,1.4C147.08,87.46,180.68,79.34,205.54,79.51Z"/><rect class="cls-16" x="281.7" y="112.72" width="13.53" height="13.53" rx="4.56" ry="4.56" transform="translate(-22.73 144.95) rotate(-27.18)"/><path class="cls-3" d="M309.63,124.63l3.06,7.81a10.14,10.14,0,0,1,13.12,5.75,10.13,10.13,0,0,1-5.75,13.12l3.06,7.81a18.52,18.52,0,0,0-13.49-34.49Z"/><path class="cls-6" d="M313.21,125.6a.6.6,0,0,0,0,.19.84.84,0,0,0,.93.73c13.41-1.63,16.15,8.79,16.26,9.24a.83.83,0,0,0,1,.61.86.86,0,0,0,.62-1c0-.12-3.23-12.31-18.09-10.5A.85.85,0,0,0,313.21,125.6Z"/><ellipse class="cls-17" cx="311.61" cy="143.96" rx="5.45" ry="27.13" transform="translate(-31.64 141.92) rotate(-24.46)"/><path class="cls-18" d="M285.7,118.35l5-2.25a7.53,7.53,0,0,1,10,3.74l22.21,48.82a7.54,7.54,0,0,1-3.75,10l-5,2.26a7.2,7.2,0,0,1-.88.33L284.87,118.8A7.31,7.31,0,0,1,285.7,118.35Z"/><path class="cls-14" d="M284.87,118.8l28.39,62.43a7.53,7.53,0,0,1-9.1-4.07L282,128.34A7.52,7.52,0,0,1,284.87,118.8Z"/></g></g></svg>