<svg xmlns="http://www.w3.org/2000/svg" xmlns:xlink="http://www.w3.org/1999/xlink" viewBox="0 0 400 336.46"><defs><style>.cls-1,.cls-12,.cls-7{fill:none;}.cls-2{isolation:isolate;}.cls-3{fill:#a7a6a6;}.cls-15,.cls-4,.cls-9{fill:#575756;}.cls-5{fill:#868686;}.cls-6{fill:#cfcfcf;}.cls-12,.cls-7{stroke:#a7a6a6;stroke-miterlimit:10;}.cls-7{stroke-width:4px;}.cls-8{fill:#e3032e;}.cls-9{opacity:0.4;}.cls-15,.cls-9{mix-blend-mode:multiply;}.cls-10{fill:#fff;}.cls-11{fill:#1d1d1b;}.cls-12{stroke-width:0.75px;}.cls-13{opacity:0.1;}.cls-14{clip-path:url(#clip-path);}.cls-15{opacity:0.2;}</style><clipPath id="clip-path"><rect class="cls-1" x="159.45" y="105.91" width="38.02" height="36.92"/></clipPath></defs><title>Tekengebied 9</title><g class="cls-2"><g id="Laag_1" data-name="Laag 1"><rect class="cls-3" x="328.94" y="149.89" width="54.65" height="9.12" transform="translate(124.01 465.64) rotate(-76.7)"/><rect class="cls-3" x="329.95" y="162.43" width="9.12" height="31.45" transform="translate(84.18 462.71) rotate(-76.7)"/><circle class="cls-4" cx="349.35" cy="181.13" r="10.02"/><circle class="cls-5" cx="351.22" cy="184.06" r="5.88"/><path class="cls-6" d="M364.16,133.15a.92.92,0,0,0-1.1.68l-8.65,36.6a.91.91,0,1,0,1.78.42l8.65-36.6A.91.91,0,0,0,364.16,133.15Z"/><path class="cls-3" d="M381.46,116.05l-9.11.14a11,11,0,0,1-10.86,11.17,11,11,0,0,1-11.17-10.85l-9.12.13a20.13,20.13,0,0,0,40.26-.59Z"/><path class="cls-6" d="M379.79,119.65l-.19-.07a.91.91,0,0,0-1.1.67c-3.45,14.27-15.11,13.09-15.61,13a.92.92,0,0,0-.21,1.82c.14,0,13.77,1.4,17.59-14.42A.92.92,0,0,0,379.79,119.65Z"/><path class="cls-4" d="M294.83,141.33a28.63,28.63,0,1,1,10.58,56.28Z"/><path class="cls-3" d="M323.92,168.91a1.82,1.82,0,0,1-2.13-1.45c-3.85-20.5-20.71-19.52-21.43-19.47a1.82,1.82,0,0,1-.28-3.63c.21,0,20.83-1.35,25.3,22.42A1.83,1.83,0,0,1,323.92,168.91Z"/><circle class="cls-3" cx="324.35" cy="173.84" r="1.64"/><rect class="cls-3" x="39.66" y="127.12" width="9.12" height="54.65" transform="translate(-34.34 14.31) rotate(-13.3)"/><rect class="cls-3" x="50.26" y="173.6" width="31.45" height="9.12" transform="translate(-39.21 19.95) rotate(-13.3)"/><circle class="cls-4" cx="51.13" cy="181.13" r="10.02"/><circle class="cls-5" cx="49.27" cy="184.06" r="5.88"/><path class="cls-6" d="M36.33,133.15a.9.9,0,0,1,1.09.68l8.65,36.6a.91.91,0,0,1-.67,1.1.92.92,0,0,1-1.1-.68l-8.65-36.6A.91.91,0,0,1,36.33,133.15Z"/><path class="cls-3" d="M19,116.05l9.12.14A11,11,0,0,0,39,127.36a11,11,0,0,0,11.18-10.85l9.11.13A20.13,20.13,0,0,1,19,116.05Z"/><path class="cls-6" d="M20.7,119.65l.19-.07a.91.91,0,0,1,1.1.67c3.45,14.27,15.11,13.09,15.6,13a.93.93,0,0,1,1,.81.91.91,0,0,1-.8,1c-.14,0-13.76,1.4-17.58-14.42A.91.91,0,0,1,20.7,119.65Z"/><path class="cls-4" d="M105.65,141.33a28.63,28.63,0,0,0-10.58,56.28Z"/><path class="cls-3" d="M76.56,168.91a1.81,1.81,0,0,0,2.13-1.45C82.55,147,99.41,147.94,100.12,148a1.82,1.82,0,1,0,.28-3.63c-.21,0-20.82-1.35-25.29,22.42A1.82,1.82,0,0,0,76.56,168.91Z"/><circle class="cls-3" cx="76.14" cy="173.84" r="1.64"/><line class="cls-7" x1="247.28" y1="226.65" x2="247.28" y2="301.48"/><circle class="cls-4" cx="247.28" cy="266.25" r="10.54"/><circle class="cls-5" cx="249.9" cy="263.71" r="6.19"/><line class="cls-7" x1="149.28" y1="226.65" x2="149.28" y2="301.48"/><path class="cls-8" d="M310.5,183.78a110.58,110.58,0,1,0-221.15,0Z"/><rect class="cls-4" x="89.35" y="183.58" width="221.16" height="56.88"/><path class="cls-4" d="M186.39,336.46a38.86,38.86,0,1,0-77.71,0Z"/><path class="cls-9" d="M186.39,336.46a38.86,38.86,0,0,0-38.86-38.86s20.33,5.76,16.9,38.86Z"/><path class="cls-4" d="M286.49,336.46a38.86,38.86,0,0,0-77.72,0Z"/><path class="cls-9" d="M286.49,336.46a38.86,38.86,0,0,0-38.86-38.86s20.32,5.76,16.89,38.86Z"/><circle class="cls-10" cx="199.51" cy="146.18" r="50.22"/><circle class="cls-11" cx="200.49" cy="146.95" r="41.04"/><circle class="cls-10" cx="231.48" cy="164.1" r="10.49"/><line class="cls-12" x1="90.65" y1="231.07" x2="310.07" y2="231.07"/><line class="cls-12" x1="90.65" y1="225.41" x2="310.07" y2="225.41"/><line class="cls-12" x1="90.65" y1="219.75" x2="310.07" y2="219.75"/><polygon class="cls-9" points="247.28 183.58 247.28 240.46 310.5 240.46 310.5 182.48 247.28 183.58"/><circle class="cls-4" cx="149.28" cy="266.25" r="10.54"/><circle class="cls-5" cx="151.9" cy="263.71" r="6.19"/><g class="cls-13"><g class="cls-14"><path class="cls-10" d="M175.67,142.63a18.53,18.53,0,0,1-16-21c1.53-10.08,11.2-17,21.58-15.55a18.54,18.54,0,0,1,16,21c-1.54,10.09-11.2,17-21.58,15.55"/></g></g><rect class="cls-8" x="149.28" y="91.09" width="100.45" height="2.3"/><path class="cls-15" d="M247.59,183.29h62.89s2.39-49.24-38.81-83.86c0,0-28.78-26.23-71.18-26.23,0,0,42,31.35,47.1,54.12a55.67,55.67,0,0,1,0,32.81Z"/></g></g></svg>