<svg xmlns="http://www.w3.org/2000/svg" viewBox="0 0 400 336.46"><defs><style>.cls-1{isolation:isolate;}.cls-2{fill:#a7a6a6;}.cls-3,.cls-8,.cls-9{fill:#575756;}.cls-4{fill:#868686;}.cls-5{fill:#cfcfcf;}.cls-13,.cls-19,.cls-6{fill:none;stroke-miterlimit:10;}.cls-13,.cls-6{stroke:#a7a6a6;}.cls-6{stroke-width:4px;}.cls-7{fill:#e3032e;}.cls-21,.cls-8{opacity:0.4;}.cls-8,.cls-9{mix-blend-mode:multiply;}.cls-9{opacity:0.2;}.cls-10,.cls-12,.cls-20{fill:#fff;}.cls-11{fill:#1d1d1b;}.cls-12{opacity:0.1;}.cls-13{stroke-width:0.75px;}.cls-14{fill:#4f4f4f;}.cls-15{fill:#06080d;}.cls-16{fill:#2a2b2a;}.cls-17{fill:#97d4eb;}.cls-18{fill:#7c7b7b;}.cls-19{stroke:#cfcfcf;stroke-linecap:round;stroke-width:2px;}.cls-20{font-size:17px;font-family:MyriadPro-Bold, Myriad Pro;font-weight:700;}.cls-21{fill:#1e1e1e;}</style></defs><title>Tekengebied 15</title><g class="cls-1"><g id="Laag_1" data-name="Laag 1"><rect class="cls-2" x="51.72" y="143.39" width="47.16" height="7.87" transform="translate(-79.86 204.74) rotate(-83.24)"/><rect class="cls-2" x="74.37" y="170.87" width="7.87" height="27.13" transform="translate(-108.2 111.2) rotate(-45.56)"/><circle class="cls-3" cx="68.66" cy="175.62" r="8.65"/><circle class="cls-4" cx="68.59" cy="172.62" r="5.08"/><path class="cls-5" d="M80,128.28a.79.79,0,0,0-.88.69L75.28,161.2a.79.79,0,0,0,.69.87.77.77,0,0,0,.87-.68l3.82-32.23A.78.78,0,0,0,80,128.28Z"/><path class="cls-3" d="M102.37,184.89a24.7,24.7,0,1,0,0,49.4Z"/><path class="cls-2" d="M82.1,212.91a1.57,1.57,0,0,0,1.57-1.57c0-18,14.46-19.85,15.07-19.92a1.57,1.57,0,0,0-.34-3.13c-.18,0-17.88,2.18-17.88,23.05A1.57,1.57,0,0,0,82.1,212.91Z"/><circle class="cls-2" cx="83.51" cy="217.35" r="1.41"/><rect class="cls-2" x="327.27" y="207.81" width="7.87" height="47.16"/><path class="cls-3" d="M279.36,182.46a24.7,24.7,0,1,1,0,49.4Z"/><rect class="cls-2" x="304.07" y="203.22" width="27.13" height="7.87"/><circle class="cls-3" cx="330.69" cy="207.61" r="8.65"/><circle class="cls-4" cx="332.84" cy="205.52" r="5.08"/><path class="cls-2" d="M341.35,276.4l-7-3.6a9.5,9.5,0,1,0-16.9-8.69l-7-3.6a17.37,17.37,0,0,1,30.9,15.89Z"/><path class="cls-2" d="M299.63,210.48a1.57,1.57,0,0,1-1.57-1.57c0-18-14.45-19.86-15.07-19.93a1.57,1.57,0,0,1,.34-3.12c.18,0,17.88,2.17,17.88,23A1.58,1.58,0,0,1,299.63,210.48Z"/><circle class="cls-2" cx="298.22" cy="214.92" r="1.41"/><path class="cls-5" d="M333.6,250.84a.78.78,0,0,1-.78-.79V217.6a.79.79,0,1,1,1.57,0v32.45A.79.79,0,0,1,333.6,250.84Z"/><path class="cls-5" d="M341.43,273l-.17,0a.79.79,0,0,1-.6-.94c2.81-12.36-6.66-15.91-7.06-16.06a.79.79,0,0,1-.48-1,.8.8,0,0,1,1-.48c.11,0,11.18,4.19,8.07,17.89A.79.79,0,0,1,341.43,273Z"/><line class="cls-6" x1="233.57" y1="242.41" x2="233.57" y2="306.98"/><circle class="cls-3" cx="233.57" cy="276.58" r="9.09"/><circle class="cls-4" cx="235.83" cy="274.38" r="5.34"/><line class="cls-6" x1="149.02" y1="242.41" x2="149.02" y2="306.98"/><path class="cls-7" d="M288.13,205.42a95.42,95.42,0,0,0-190.83,0Z"/><rect class="cls-3" x="97.3" y="205.25" width="190.82" height="49.08"/><path class="cls-3" d="M181,337.16a33.53,33.53,0,1,0-67.06,0Z"/><path class="cls-8" d="M181,337.16a33.53,33.53,0,0,0-33.53-33.53s17.53,5,14.57,33.53Z"/><path class="cls-3" d="M267.4,337.16a33.53,33.53,0,1,0-67,0Z"/><path class="cls-8" d="M267.4,337.16a33.53,33.53,0,0,0-33.53-33.53s17.54,5,14.58,33.53Z"/><path class="cls-9" d="M186.57,110s53.23,36,46.56,96.37c0,0,55,1,55,0S288,112.26,186.57,110Z"/><circle class="cls-10" cx="192.35" cy="172.97" r="43.33"/><circle class="cls-11" cx="192.85" cy="173.44" r="26.19"/><circle class="cls-10" cx="212.63" cy="184.38" r="6.7"/><circle class="cls-12" cx="174.19" cy="154.62" r="27.4"/><line class="cls-13" x1="98.43" y1="246.22" x2="287.75" y2="246.22"/><line class="cls-13" x1="98.43" y1="241.34" x2="287.75" y2="241.34"/><line class="cls-13" x1="98.43" y1="236.46" x2="287.75" y2="236.46"/><polygon class="cls-8" points="233.57 205.25 233.57 254.33 288.13 254.33 288.13 204.3 233.57 205.25"/><circle class="cls-3" cx="149.02" cy="276.58" r="9.09"/><circle class="cls-4" cx="151.27" cy="274.38" r="5.34"/><path class="cls-14" d="M64.65,125.92a5.32,5.32,0,0,1-5.34-5.29V50.74a5.32,5.32,0,0,1,5.34-5.28H94.43a5.31,5.31,0,0,1,5.34,5.28v69.89a5.32,5.32,0,0,1-5.34,5.29Z"/><path class="cls-15" d="M99.54,120.63a5.09,5.09,0,0,1-5.11,5.06H64.65a5.08,5.08,0,0,1-5.1-5.06V50.74a5.07,5.07,0,0,1,5.1-5.05H94.43a5.08,5.08,0,0,1,5.11,5.05Z"/><path class="cls-14" d="M95,46.28H80.71l13.43.44c2.35,0,4.7,1.9,4.7,4.23v69.58c0,2.33-2.35,4.22-4.7,4.22l-13.43.35H95a4.5,4.5,0,0,0,4.51-4.47V50.74A4.49,4.49,0,0,0,95,46.28Z"/><rect class="cls-16" x="60.31" y="54.19" width="37.73" height="63"/><path class="cls-14" d="M76.33,50.68h-.68a.36.36,0,1,1,0-.71h.68ZM81.62,50H80.29v.71h1.33Zm1,0h-.75v.71h.75a.36.36,0,0,0,0-.71ZM80,50H78.24v.71H80Zm-2,0H76.59v.71H78Z"/><circle class="cls-14" cx="67.75" cy="50.42" r="1.79"/><circle class="cls-15" cx="67.75" cy="50.42" r="1.26" transform="translate(-10.04 17.55) rotate(-13.75)"/><path class="cls-17" d="M68.79,50.42a1,1,0,1,0-1,1A1,1,0,0,0,68.79,50.42Z"/><path class="cls-2" d="M87.21,125.66l-5.31-.26c-.53,1.19-.48,2.72-2.1,2.61-4.7-.32-3.85-7.55-3.1-17.95a1,1,0,0,0-.91-1.15l-8-.55a1,1,0,0,0-1,1c-1.06,12-2.94,28.36,9,29.17C82.3,139,85.82,133.29,87.21,125.66Z"/><path class="cls-18" d="M87.21,125.66s-3.34.41-4.2,1.06-1.87,2.31-3.71,1.22c.5.07,2,0,2.61-2.65Z"/><path class="cls-19" d="M74.74,113.77s-1.95,14.7,2.89,15.85"/><text class="cls-20" transform="translate(60.07 87.09)">miep</text><path class="cls-21" d="M98.91,53.43V50.68a5.06,5.06,0,0,0-5.06-5H64.36a5,5,0,0,0-5,5V93Z"/></g></g></svg>