<svg xmlns="http://www.w3.org/2000/svg" viewBox="0 0 400 336.46"><defs><style>.cls-1{isolation:isolate;}.cls-2{fill:#a7a6a6;}.cls-15,.cls-3,.cls-8{fill:#575756;}.cls-4{fill:#868686;}.cls-5{fill:#cfcfcf;}.cls-12,.cls-14,.cls-6{fill:none;}.cls-12,.cls-6{stroke:#a7a6a6;stroke-miterlimit:10;}.cls-6{stroke-width:6.58px;}.cls-7{fill:#e3032e;}.cls-8{opacity:0.4;}.cls-15,.cls-8{mix-blend-mode:multiply;}.cls-11,.cls-9{fill:#fff;}.cls-10{fill:#1d1d1b;}.cls-11{opacity:0.1;}.cls-12{stroke-width:1.23px;}.cls-13{fill:#3c3c3b;}.cls-14{stroke:#3c3c3b;stroke-linecap:round;stroke-linejoin:round;stroke-width:1.5px;}.cls-15{opacity:0.2;}</style></defs><title>Tekengebied 5</title><g class="cls-1"><g id="Laag_1" data-name="Laag 1"><rect class="cls-2" x="338.22" y="200.9" width="8.36" height="50.11"/><path class="cls-3" d="M287.31,174a26.25,26.25,0,0,1,0,52.5Z"/><rect class="cls-2" x="313.56" y="196.03" width="28.83" height="8.36"/><circle class="cls-3" cx="341.86" cy="200.69" r="9.19"/><circle class="cls-4" cx="344.14" cy="198.47" r="5.39"/><path class="cls-2" d="M353.18,273.79,345.75,270a10.13,10.13,0,0,0-4.37-13.61,10.11,10.11,0,0,0-13.6,4.37l-7.43-3.83a18.46,18.46,0,0,1,32.83,16.89Z"/><path class="cls-2" d="M308.85,203.74a1.68,1.68,0,0,1-1.67-1.68c0-19.12-15.36-21.09-16-21.17a1.67,1.67,0,1,1,.36-3.32c.19,0,19,2.31,19,24.49A1.67,1.67,0,0,1,308.85,203.74Z"/><circle class="cls-2" cx="307.35" cy="208.45" r="1.5"/><path class="cls-5" d="M345,246.62a.83.83,0,0,1-.83-.83V211.3a.84.84,0,0,1,.83-.84.85.85,0,0,1,.84.84v34.49A.84.84,0,0,1,345,246.62Z"/><path class="cls-5" d="M353.27,270.15a.55.55,0,0,1-.18,0,.82.82,0,0,1-.63-1c3-13.13-7.08-16.91-7.51-17.06a.83.83,0,1,1,.56-1.57c.12,0,11.88,4.45,8.57,19A.82.82,0,0,1,353.27,270.15Z"/><rect class="cls-2" x="58.87" y="112.83" width="8.36" height="50.11" transform="translate(-1.34 0.62) rotate(-0.56)"/><rect class="cls-2" x="69.47" y="161.65" width="8.36" height="28.83" transform="translate(-103.62 105.36) rotate(-45.56)"/><path class="cls-5" d="M65.4,117.19a.85.85,0,0,0-.83.85l.34,34.48a.84.84,0,0,0,1.67,0L66.25,118A.85.85,0,0,0,65.4,117.19Z"/><path class="cls-2" d="M77.69,114l-3.89-7.4A10.1,10.1,0,0,1,59.45,94.69a10,10,0,0,1,4.94-5.94l-3.89-7.4A18.46,18.46,0,0,0,77.69,114Z"/><path class="cls-5" d="M57.48,109.39l.16-.1a.83.83,0,0,0,.11-1.18c-8.54-10.4-1.24-18.29-.92-18.62a.85.85,0,0,0,0-1.18.84.84,0,0,0-1.18,0c-.09.09-8.63,9.3.84,20.83A.84.84,0,0,0,57.48,109.39Z"/><path class="cls-3" d="M99.22,176.54a26.25,26.25,0,0,0,0,52.5Z"/><path class="cls-2" d="M77.68,206.32a1.68,1.68,0,0,0,1.68-1.67c0-19.12,15.36-21.1,16-21.17a1.67,1.67,0,0,0-.36-3.32c-.2,0-19,2.31-19,24.49A1.67,1.67,0,0,0,77.68,206.32Z"/><circle class="cls-2" cx="79.19" cy="211.04" r="1.5"/><line class="cls-6" x1="238.65" y1="237.67" x2="238.65" y2="306.29"/><circle class="cls-3" cx="238.65" cy="273.98" r="9.66"/><circle class="cls-4" cx="241.05" cy="271.65" r="5.67"/><line class="cls-6" x1="148.8" y1="237.67" x2="148.8" y2="306.29"/><path class="cls-7" d="M296.62,198.36a101.39,101.39,0,0,0-202.78,0Z"/><rect class="cls-3" x="93.84" y="198.18" width="202.78" height="52.15"/><path class="cls-3" d="M182.82,338.36a35.63,35.63,0,0,0-71.26,0Z"/><path class="cls-8" d="M182.82,338.36a35.63,35.63,0,0,0-35.63-35.63s18.64,5.27,15.49,35.63Z"/><path class="cls-3" d="M274.6,338.36a35.63,35.63,0,0,0-71.26,0Z"/><path class="cls-8" d="M274.6,338.36A35.63,35.63,0,0,0,239,302.73s18.64,5.27,15.49,35.63Z"/><circle class="cls-9" cx="194.85" cy="163.88" r="46.05"/><circle class="cls-10" cx="195.37" cy="164.38" r="27.83"/><circle class="cls-9" cx="216.39" cy="176.01" r="7.12"/><circle class="cls-11" cx="175.54" cy="144.37" r="29.12"/><line class="cls-12" x1="95.04" y1="241.72" x2="296.22" y2="241.72"/><line class="cls-12" x1="95.04" y1="236.53" x2="296.22" y2="236.53"/><line class="cls-12" x1="95.04" y1="231.34" x2="296.22" y2="231.34"/><polygon class="cls-8" points="238.65 198.18 238.65 250.34 296.62 250.34 296.62 198.37 238.65 198.18"/><circle class="cls-3" cx="148.8" cy="273.98" r="9.66"/><circle class="cls-4" cx="151.19" cy="271.65" r="5.67"/><path d="M100.42,161.94c-1.12-5.47,1.92-7.78,1.92-7.78l30.41.23v-8.68h-35a4.37,4.37,0,0,0-4.11,2.88c-3.75,10.2,1,20.17,3.54,24.38Z"/><path class="cls-13" d="M96,146.6h34.11l-1.1,2.09A276.38,276.38,0,0,1,96,146.6Z"/><path d="M293.33,173c2.51-4.21,7.29-14.18,3.54-24.38a4.37,4.37,0,0,0-4.11-2.88h-35v8.68l30.41-.23s3,2.31,1.92,7.78Z"/><path class="cls-13" d="M294.5,146.6H260.39l1.1,2.09A276.38,276.38,0,0,0,294.5,146.6Z"/><path class="cls-14" d="M251.27,137.47s14.89,29.39-3,58.36"/><circle class="cls-13" cx="248.8" cy="132.87" r="1.5"/><circle class="cls-3" cx="63.41" cy="166.69" r="9.19"/><circle class="cls-4" cx="63.34" cy="163.51" r="5.39"/><rect class="cls-7" x="147.57" y="114.8" width="94.55" height="2.7"/><path class="cls-15" d="M238.72,198.18H296.6s2.2-45.16-35.72-76.91c0,0-26.48-24.06-65.51-24.06,0,0,38.69,28.75,43.35,49.64a50.81,50.81,0,0,1,0,30.09Z"/><path class="cls-10" d="M195.21,99a65.13,65.13,0,1,0,65.14,65.13A65.13,65.13,0,0,0,195.21,99Zm0,118.93c-30.26,0-54.8-24.09-54.8-53.8s24.54-53.79,54.8-53.79S250,134.46,250,164.17,225.48,218,195.21,218Z"/></g></g></svg>