<svg xmlns="http://www.w3.org/2000/svg" xmlns:xlink="http://www.w3.org/1999/xlink" viewBox="0 0 400 340.73"><defs><style>.cls-1,.cls-12,.cls-7{fill:none;}.cls-2{isolation:isolate;}.cls-3{fill:#a7a6a6;}.cls-18,.cls-4{fill:#575756;}.cls-5{fill:#868686;}.cls-6{fill:#cfcfcf;}.cls-12,.cls-7{stroke:#a7a6a6;stroke-miterlimit:10;}.cls-7{stroke-width:4px;}.cls-8{fill:#e3032e;}.cls-9{opacity:0.4;}.cls-18,.cls-9{mix-blend-mode:multiply;}.cls-10{clip-path:url(#clip-path);}.cls-11{clip-path:url(#clip-path-2);}.cls-12{stroke-width:0.75px;}.cls-13{clip-path:url(#clip-path-3);}.cls-14{fill:#fff;}.cls-15{fill:#1d1d1b;}.cls-16{opacity:0.1;}.cls-17{clip-path:url(#clip-path-4);}.cls-18{opacity:0.2;}</style><clipPath id="clip-path"><rect class="cls-1" x="141.56" y="317.67" width="38.11" height="22.66"/></clipPath><clipPath id="clip-path-2"><rect class="cls-1" x="239.74" y="317.67" width="38.12" height="22.66"/></clipPath><clipPath id="clip-path-3"><rect class="cls-1" x="239.39" y="181.36" width="62.01" height="64.81"/></clipPath><clipPath id="clip-path-4"><rect class="cls-1" x="156.44" y="112.47" width="34.04" height="38.26"/></clipPath></defs><title>Tekengebied 3</title><g class="cls-2"><g id="Laag_1" data-name="Laag 1"><rect class="cls-3" x="42.95" y="98.85" width="8.94" height="53.6" transform="translate(-13.72 6.08) rotate(-6.41)"/><rect class="cls-3" x="58.42" y="151.3" width="8.94" height="30.85" transform="translate(-100.18 94.89) rotate(-45.56)"/><path class="cls-4" d="M44.91,149.81a9.83,9.83,0,1,0,13.9-.13,9.83,9.83,0,0,0-13.9.13"/><path class="cls-5" d="M47.73,149.25a5.77,5.77,0,1,0,8.16-.08,5.78,5.78,0,0,0-8.16.08"/><path class="cls-6" d="M47.67,103.37a.9.9,0,0,0-.79,1L51,141a.9.9,0,1,0,1.78-.2l-4.11-36.66a.9.9,0,0,0-1-.79"/><path class="cls-3" d="M70.5,96.38l-7.94-4.11a10.81,10.81,0,1,1-19.2-9.93l-7.93-4.11A19.74,19.74,0,0,0,70.5,96.38"/><path class="cls-6" d="M67.39,98.72a.67.67,0,0,0-.14-.15.89.89,0,0,0-1.26.07c-9.6,10.74-19.13,4.31-19.53,4a.89.89,0,0,0-1,1.47c.11.08,11.25,7.6,21.88-4.31a.89.89,0,0,0,.07-1.11"/><path class="cls-4" d="M90.24,167.23a28.09,28.09,0,0,0,0,56.17Z"/><path class="cls-3" d="M67.2,199.09A1.79,1.79,0,0,0,69,197.3c0-20.45,16.43-22.57,17.13-22.65a1.79,1.79,0,0,0,1.58-2,1.8,1.8,0,0,0-2-1.58c-.2,0-20.32,2.47-20.32,26.2a1.79,1.79,0,0,0,1.79,1.79"/><path class="cls-3" d="M67.2,204.14a1.61,1.61,0,1,0,1.61-1.61,1.6,1.6,0,0,0-1.61,1.61"/><rect class="cls-3" x="324.04" y="160.16" width="53.61" height="9.08" transform="translate(180.33 512.76) rotate(-89.05)"/><path class="cls-4" d="M291.45,164.47a28.08,28.08,0,0,1,0,56.16Z"/><rect class="cls-3" x="319.53" y="188.08" width="30.85" height="8.94"/><path class="cls-4" d="M359.63,193.06a9.83,9.83,0,1,1-9.83-9.83,9.83,9.83,0,0,1,9.83,9.83"/><path class="cls-5" d="M358,190.69a5.77,5.77,0,1,1-5.77-5.77,5.78,5.78,0,0,1,5.77,5.77"/><path class="cls-3" d="M363.41,113.73l-8.14,4a10.74,10.74,0,0,1-5,14.47,11.07,11.07,0,0,1-8.38.54,10.87,10.87,0,0,1-6.32-5.46l-8.14,4a19.8,19.8,0,0,0,11.55,10,20.21,20.21,0,0,0,15.32-1,19.66,19.66,0,0,0,10.11-11.37,19.26,19.26,0,0,0-1-15.08"/><path class="cls-3" d="M314.49,196.32a1.79,1.79,0,0,1-1.79-1.79c0-20.45-16.43-22.56-17.13-22.64a1.79,1.79,0,0,1,.39-3.56c.2,0,20.32,2.48,20.32,26.2a1.79,1.79,0,0,1-1.79,1.79"/><path class="cls-3" d="M314.49,201.37a1.61,1.61,0,1,1-1.61-1.61,1.61,1.61,0,0,1,1.61,1.61"/><path class="cls-6" d="M354,142.64a.9.9,0,0,0-.92.88l-.61,36.88a.91.91,0,0,0,1.81,0l.61-36.88a.9.9,0,0,0-.89-.91"/><path class="cls-6" d="M363.45,117.62l-.2,0a.9.9,0,0,0-.71,1.06c3,14.1-8,18-8.46,18.11a.89.89,0,0,0-.56,1.14.92.92,0,0,0,1.15.56c.13,0,13-4.55,9.65-20.18a.92.92,0,0,0-.87-.71"/><line class="cls-7" x1="239.39" y1="232.63" x2="239.39" y2="319.04"/><path class="cls-4" d="M249.73,271.47a10.34,10.34,0,1,1-10.34-10.34,10.33,10.33,0,0,1,10.34,10.34"/><path class="cls-5" d="M248,269A6.07,6.07,0,1,1,242,262.9,6.07,6.07,0,0,1,248,269"/><line class="cls-7" x1="143.27" y1="232.63" x2="143.27" y2="319.04"/><path class="cls-8" d="M301.41,190.58a108.47,108.47,0,1,0-216.93,0Z"/><rect class="cls-4" x="84.48" y="181.36" width="216.92" height="64.81"/><path class="cls-4" d="M179.67,340.33c0-12.52-17.06-22.66-38.11-22.66s-38.12,10.14-38.12,22.66Z"/><g class="cls-9"><g class="cls-10"><path class="cls-4" d="M179.67,340.33c0-12.52-17.06-22.66-38.11-22.66,0,0,19.93,3.35,16.57,22.66Z"/></g></g><path class="cls-4" d="M277.85,340.33c0-12.52-17.06-22.66-38.11-22.66s-38.12,10.14-38.12,22.66Z"/><g class="cls-9"><g class="cls-11"><path class="cls-4" d="M277.85,340.33c0-12.52-17.06-22.66-38.11-22.66,0,0,19.93,3.35,16.57,22.66Z"/></g></g><line class="cls-12" x1="85.77" y1="236.96" x2="300.98" y2="236.96"/><line class="cls-12" x1="85.77" y1="242.27" x2="300.98" y2="242.27"/><line class="cls-12" x1="85.77" y1="231.41" x2="300.98" y2="231.41"/><line class="cls-12" x1="85.77" y1="225.86" x2="300.98" y2="225.86"/><line class="cls-12" x1="85.77" y1="215.69" x2="300.98" y2="215.69"/><line class="cls-12" x1="85.77" y1="210.64" x2="300.98" y2="210.64"/><line class="cls-12" x1="85.34" y1="205.74" x2="300.55" y2="205.74"/><line class="cls-12" x1="85.77" y1="199.76" x2="300.98" y2="199.76"/><line class="cls-12" x1="85.77" y1="193.55" x2="300.98" y2="193.55"/><line class="cls-12" x1="85.77" y1="187.46" x2="300.98" y2="187.46"/><line class="cls-12" x1="85.77" y1="220.77" x2="300.98" y2="220.77"/><g class="cls-9"><g class="cls-13"><polygon class="cls-4" points="239.4 182.6 239.4 246.17 301.41 246.17 301.41 181.36 239.4 182.6"/></g></g><path class="cls-4" d="M153.61,271.47a10.34,10.34,0,1,1-10.34-10.34,10.33,10.33,0,0,1,10.34,10.34"/><path class="cls-5" d="M151.91,269a6.07,6.07,0,1,1-6.07-6.07,6.07,6.07,0,0,1,6.07,6.07"/><path class="cls-14" d="M241.79,153.69a49.26,49.26,0,1,1-49.26-49.26,49.25,49.25,0,0,1,49.26,49.26"/><path class="cls-15" d="M217.58,147.76a29.82,29.82,0,1,1-29.82-29.83,29.82,29.82,0,0,1,29.82,29.83"/><path class="cls-14" d="M217.9,160.21a7.63,7.63,0,1,1-7.62-7.62,7.63,7.63,0,0,1,7.62,7.62"/><g class="cls-16"><g class="cls-17"><path class="cls-14" d="M171,150.52c-9.3-1.55-15.72-11.28-14.34-21.73s10-17.66,19.33-16.11S191.67,124,190.29,134.4s-10,17.67-19.33,16.12"/></g></g><rect class="cls-8" x="143.27" y="100.95" width="98.52" height="2.42" transform="translate(385.06 204.31) rotate(180)"/><path class="cls-18" d="M239.63,192.55h61.75s2.35-49.4-38.11-84.12c0,0-28.26-26.32-69.9-26.32,0,0,41.29,31.45,46.26,54.3a57,57,0,0,1,0,32.9Z"/></g></g></svg>