<svg xmlns="http://www.w3.org/2000/svg" xmlns:xlink="http://www.w3.org/1999/xlink" viewBox="0 0 400 336.46"><defs><style>.cls-1,.cls-14,.cls-7{fill:none;}.cls-2{isolation:isolate;}.cls-3{fill:#a7a6a6;}.cls-4{fill:#cfcfcf;}.cls-18,.cls-5{fill:#575756;}.cls-6{fill:#868686;}.cls-14,.cls-7{stroke:#a7a6a6;stroke-miterlimit:10;}.cls-7{stroke-width:4px;}.cls-8{fill:#e3032e;}.cls-9{opacity:0.4;}.cls-18,.cls-9{mix-blend-mode:multiply;}.cls-10{clip-path:url(#clip-path);}.cls-11{clip-path:url(#clip-path-2);}.cls-12{fill:#fff;}.cls-13{fill:#1d1d1b;}.cls-14{stroke-width:0.75px;}.cls-15{clip-path:url(#clip-path-3);}.cls-16{opacity:0.1;}.cls-17{clip-path:url(#clip-path-4);}.cls-18{opacity:0.2;}</style><clipPath id="clip-path"><rect class="cls-1" x="152.64" y="295.89" width="36.58" height="40"/></clipPath><clipPath id="clip-path-2"><rect class="cls-1" x="246.87" y="295.89" width="36.58" height="40"/></clipPath><clipPath id="clip-path-3"><rect class="cls-1" x="246.54" y="177.38" width="59.51" height="59.69"/></clipPath><clipPath id="clip-path-4"><rect class="cls-1" x="164.33" y="105.35" width="34.04" height="38.26"/></clipPath></defs><title>Tekengebied 6</title><g class="cls-2"><g id="Laag_1" data-name="Laag 1"><polygon class="cls-3" points="332.99 248.78 324.9 245.63 342.16 192.63 350.25 195.78 332.99 248.78"/><path class="cls-3" d="M331.52,275.36l-5.87-6.84a12.11,12.11,0,0,0,.46-16,9.94,9.94,0,0,0-7.23-3.58,9.81,9.81,0,0,0-7.42,3.07l-5.87-6.85a18,18,0,0,1,13.56-5.6,18.18,18.18,0,0,1,13.22,6.53,22.1,22.1,0,0,1-.85,29.3"/><path class="cls-4" d="M332.92,243.53a1,1,0,0,1-.52-1.2l11.88-36.47a.84.84,0,0,1,1.1-.57,1,1,0,0,1,.52,1.2L334,243a.84.84,0,0,1-1.1.57"/><path class="cls-4" d="M332.86,271.55a.7.7,0,0,1-.17-.09,1,1,0,0,1-.26-1.3c7.4-12.76-1-20.54-1.39-20.87a1,1,0,0,1-.12-1.32.82.82,0,0,1,1.21-.14c.1.1,10,9.19,1.74,23.34a.83.83,0,0,1-1,.38"/><polygon class="cls-3" points="348.77 192.56 319.56 187.35 320.94 178.09 350.15 183.3 348.77 192.56"/><path class="cls-5" d="M358.14,190c-.83,5.63-5.68,9.44-10.82,8.52s-8.64-6.21-7.8-11.84,5.69-9.44,10.83-8.52S359,184.4,358.14,190"/><polygon class="cls-3" points="59.67 242.66 51.68 242.66 42.49 191.43 50.48 191.43 59.67 242.66"/><polygon class="cls-3" points="51.75 193.49 80.24 184.7 77.91 175.66 49.42 184.45 51.75 193.49"/><path class="cls-5" d="M42.18,192.12c1.41,5.49,6.62,8.68,11.63,7.13s7.94-7.24,6.52-12.73-6.62-8.67-11.64-7.12-7.93,7.24-6.51,12.72"/><path class="cls-6" d="M43.05,189.26a5.5,5.5,0,0,0,6.84,4.19A6.15,6.15,0,0,0,53.71,186a5.49,5.49,0,0,0-6.83-4.19,6.16,6.16,0,0,0-3.83,7.47"/><path class="cls-4" d="M57.32,238.18a1,1,0,0,1-1-.85L50,202.07a.67.67,0,0,1,.64-.86,1,1,0,0,1,1,.85L58,237.33a.67.67,0,0,1-.64.85"/><path class="cls-3" d="M79.05,242.38l-5.79,4.76c-3.81-4.74-10.05-6-13.91-2.85a8.35,8.35,0,0,0-2.93,6.58,12.35,12.35,0,0,0,2.83,7.75l-5.79,4.76a22.64,22.64,0,0,1-5.18-14.17,15.26,15.26,0,0,1,5.35-12,14.92,14.92,0,0,1,12.74-2.82,22.22,22.22,0,0,1,12.68,8"/><path class="cls-4" d="M75.71,240.5a.46.46,0,0,1-.07.16.74.74,0,0,1-1.12.06c-11.24-9.17-17.79-2.05-18.07-1.74a.79.79,0,0,1-1.14-.08.92.92,0,0,1-.14-1.21c.08-.08,7.73-8.42,20.19,1.76a1,1,0,0,1,.35,1.05"/><path class="cls-5" d="M103.4,154.22c-14.89,0-26.95,13.2-26.95,29.47s12.06,29.48,27,29.48Z"/><path class="cls-3" d="M81.28,187.65A1.8,1.8,0,0,0,83,185.78c0-21.47,15.77-23.69,16.44-23.77a1.84,1.84,0,0,0,1.51-2.07,1.77,1.77,0,0,0-1.88-1.66c-.2,0-19.5,2.59-19.5,27.5a1.79,1.79,0,0,0,1.71,1.87"/><path class="cls-3" d="M81.28,193a1.55,1.55,0,1,0,1.55-1.69A1.62,1.62,0,0,0,81.28,193"/><path class="cls-5" d="M296.5,151.32c14.88,0,26.95,13.19,26.95,29.47s-12.07,29.47-26.95,29.47Z"/><path class="cls-3" d="M318.61,184.75a1.8,1.8,0,0,1-1.72-1.88c0-21.47-15.77-23.68-16.44-23.77a1.83,1.83,0,0,1-1.51-2.07,1.77,1.77,0,0,1,1.89-1.66c.19,0,19.5,2.6,19.5,27.5a1.8,1.8,0,0,1-1.72,1.88"/><path class="cls-3" d="M318.61,190.05a1.55,1.55,0,1,1-1.54-1.69,1.62,1.62,0,0,1,1.54,1.69"/><line class="cls-7" x1="246.54" y1="222.85" x2="246.54" y2="299.89"/><path class="cls-5" d="M256.46,263.62c0,6-4.44,10.85-9.92,10.85s-9.92-4.86-9.92-10.85,4.44-10.85,9.92-10.85,9.92,4.86,9.92,10.85"/><path class="cls-6" d="M254.82,261a5.84,5.84,0,1,1-5.82-6.37,6.11,6.11,0,0,1,5.82,6.37"/><line class="cls-7" x1="154.29" y1="222.85" x2="154.29" y2="299.89"/><path class="cls-8" d="M306.05,178.81c0-59.34-46.6-107.44-104.09-107.44S97.87,119.47,97.87,178.81Z"/><path class="cls-5" d="M306.05,237.07H97.87V178.51H306.05Z"/><path class="cls-5" d="M189.22,335.89c0-22.09-16.37-40-36.58-40s-36.58,17.91-36.58,40Z"/><g class="cls-9"><g class="cls-10"><path class="cls-5" d="M189.22,335.89c0-22.09-16.37-40-36.58-40,0,0,19.13,5.92,15.9,40Z"/></g></g><path class="cls-5" d="M283.45,335.89c0-22.09-16.38-40-36.58-40s-36.58,17.91-36.58,40Z"/><g class="cls-9"><g class="cls-11"><path class="cls-5" d="M283.45,335.89c0-22.09-16.38-40-36.58-40,0,0,19.12,5.92,15.9,40Z"/></g></g><path class="cls-12" d="M248.84,140c0,28.55-21.17,51.7-47.27,51.7s-47.28-23.15-47.28-51.7S175.46,88.3,201.57,88.3s47.27,23.15,47.27,51.71"/><path class="cls-13" d="M230.68,140.56c0,17.26-12.79,31.25-28.57,31.25s-28.58-14-28.58-31.25,12.79-31.24,28.58-31.24,28.57,14,28.57,31.24"/><path class="cls-12" d="M231,153.62c0,4.41-3.27,8-7.3,8s-7.31-3.57-7.31-8,3.27-8,7.31-8,7.3,3.58,7.3,8"/><line class="cls-14" x1="99.1" y1="227.4" x2="305.64" y2="227.4"/><line class="cls-14" x1="99.1" y1="221.57" x2="305.64" y2="221.57"/><line class="cls-14" x1="99.1" y1="215.75" x2="305.64" y2="215.75"/><g class="cls-9"><g class="cls-15"><polygon class="cls-5" points="246.54 178.52 246.54 237.07 306.05 237.07 306.05 177.38 246.54 178.52"/></g></g><path class="cls-5" d="M164.21,263.62c0,6-4.44,10.85-9.92,10.85s-9.92-4.86-9.92-10.85,4.44-10.85,9.92-10.85,9.92,4.86,9.92,10.85"/><path class="cls-6" d="M162.58,261a5.85,5.85,0,1,1-5.83-6.37,6.11,6.11,0,0,1,5.83,6.37"/><g class="cls-16"><g class="cls-17"><path class="cls-12" d="M178.85,143.4c-9.3-1.55-15.72-11.27-14.34-21.72s10-17.67,19.33-16.12,15.72,11.28,14.34,21.73-10,17.66-19.33,16.11"/></g></g><rect class="cls-8" x="154.29" y="87.05" width="94.55" height="1.25"/><path class="cls-18" d="M246.54,178.52h59.51s2.26-47.93-36.73-81.62c0,0-27.23-25.53-67.36-25.53,0,0,39.79,30.51,44.58,52.67a55.6,55.6,0,0,1,0,31.93Z"/></g></g></svg>